<svg width="131" height="131" viewBox="0 0 131 131" fill="none" xmlns="http://www.w3.org/2000/svg">
<rect width="131" height="131" rx="20" fill="#E6E7F2"/>
<g clip-path="url(#clip0_339_2437)">
<path d="M108.407 71.1678C108.228 70.1758 107.818 69.2401 107.21 68.4364L107.159 68.367C106.97 68.1154 106.76 67.881 106.529 67.6669C106.094 67.2737 105.596 66.958 105.055 66.7332L104.96 66.6954C104.28 66.4248 103.547 66.3168 102.818 66.38C102.504 66.4066 102.195 66.4723 101.898 66.5755H101.822C101.393 66.7189 100.991 66.932 100.631 67.2063L100.562 67.2568C100.149 67.5855 99.8078 67.9956 99.5598 68.4617C99.2928 69.0172 99.1143 69.611 99.0305 70.2216C98.8541 71.3511 98.8351 72.4996 98.9738 73.6343C98.9738 73.6974 98.9738 73.7605 98.9738 73.8235C99.3403 76.3991 100.355 78.8389 101.923 80.9138C102.061 80.6047 102.206 80.283 102.364 79.9991C102.376 79.9706 102.391 79.9431 102.408 79.9171C102.972 78.807 103.603 77.7327 104.298 76.7L104.374 76.5865C104.777 75.9872 105.193 75.4069 105.634 74.8328L105.735 74.7003C106.132 74.1831 106.542 73.6784 106.964 73.1801C107.528 72.5733 108.013 71.8971 108.407 71.1678Z" fill="#EAF6FE"/>
<path d="M112.969 77.7661C113.842 78.2682 114.583 78.9709 115.13 79.8162L115.175 79.8856C115.344 80.1573 115.491 80.4421 115.616 80.7372C115.836 81.2821 115.963 81.8598 115.994 82.4467C115.997 82.4803 115.997 82.514 115.994 82.5476C116.02 83.2801 115.873 84.0085 115.565 84.6734C115.431 84.9575 115.266 85.2262 115.074 85.4746L115.023 85.5377C114.739 85.8914 114.398 86.1961 114.015 86.4397L113.939 86.4839C113.493 86.7646 112.993 86.9473 112.471 87.0201C111.851 87.0965 111.223 87.0688 110.612 86.938C109.491 86.7241 108.405 86.3547 107.386 85.8404C107.327 85.8161 107.27 85.7866 107.216 85.7521C104.917 84.5381 102.966 82.7579 101.545 80.5795C101.879 80.5795 102.219 80.5164 102.553 80.4723H102.647C103.881 80.3187 105.103 80.0891 106.309 79.7847H106.441C107.14 79.608 107.833 79.4125 108.514 79.1917L108.672 79.1413C109.302 78.9394 109.9 78.7249 110.512 78.5105C111.294 78.153 112.12 77.9026 112.969 77.7661Z" fill="#EAF6FE"/>
<path d="M69.433 92.6153C69.0385 93.8141 68.4206 94.9272 67.6119 95.8955C67.53 96.0028 67.4355 96.1037 67.341 96.2046C66.525 97.0989 65.5166 97.7956 64.3919 98.2421L64.2911 98.2863H64.2407C64.0454 101.44 62.3944 104.487 60.0692 106.802L59.7856 107.086C58.6546 108.155 57.3824 109.063 56.0048 109.786C55.8725 109.855 55.7276 109.931 55.5952 109.988C53.9215 110.8 52.1383 111.363 50.3021 111.659C47.551 112.098 44.748 112.098 41.9969 111.659C41.0299 111.802 40.0561 111.895 39.0794 111.937C35.2538 112.21 31.4243 111.461 27.9827 109.767C26.5779 109.036 25.2889 108.1 24.1578 106.991C24.0586 106.904 23.964 106.811 23.8742 106.714C21.6956 104.583 20.2878 101.786 19.8729 98.7657C19.8729 98.6143 19.8414 98.4692 19.8287 98.3178C18.5818 97.8589 17.4717 97.0906 16.6025 96.0848C16.5205 95.9838 16.4386 95.8892 16.363 95.7883C15.5969 94.8544 15.0133 93.7844 14.6427 92.6343C14.0009 90.5394 13.8521 88.3242 14.2079 86.1622C14.2079 86.0865 14.2079 86.0171 14.2079 85.9414C14.271 85.544 14.334 85.1465 14.4159 84.7554C14.8633 82.6485 15.6762 80.3966 17.1318 78.8069C16.8365 78.4052 16.5692 77.9837 16.3315 77.5453C16.2811 77.457 16.237 77.3624 16.1866 77.2678C14.8139 74.3792 14.495 71.1006 15.2855 68.0012C15.3019 67.9284 15.3229 67.8568 15.3485 67.7867C15.4669 67.2921 15.6164 66.8054 15.7959 66.3296C16.7562 63.9121 18.2665 61.7522 20.2068 60.0215L20.4085 59.8323C21.6462 58.724 22.9908 57.7414 24.4224 56.899C24.1399 55.1557 24.2085 53.3734 24.6241 51.657C24.6241 51.5813 24.6556 51.5119 24.6682 51.4488C25.4283 48.4259 27.0455 45.6875 29.3249 43.5637C29.4887 43.406 29.6589 43.2546 29.829 43.1159C29.898 43.0497 29.9718 42.9885 30.0495 42.9329C32.9632 40.5839 36.4381 39.0359 40.1317 38.4415C40.4405 38.3785 40.7618 38.328 41.0517 38.2902H42.9421C46.9861 38.7962 50.8104 40.4166 53.9884 42.9707C54.0639 43.0267 54.1355 43.0879 54.2026 43.1537L54.6626 43.5637C56.9485 45.6839 58.5743 48.4197 59.3446 51.4425C59.3446 51.5119 59.3824 51.5876 59.4013 51.6507C59.7966 53.349 59.8566 55.1083 59.5777 56.8296C61.0383 57.6903 62.4084 58.6963 63.6673 59.8323C63.7366 59.889 63.8059 59.9584 63.8689 60.0215C65.7815 61.7433 67.2697 63.8851 68.2168 66.2791C68.4057 66.7884 68.5635 67.3087 68.6894 67.8372C68.7143 67.9113 68.7332 67.9872 68.7462 68.0643C69.5233 71.175 69.1728 74.4609 67.7568 77.3372L67.6119 77.621C67.3938 78.0248 67.1474 78.4127 66.8747 78.7817C68.3303 80.3714 69.1495 82.6233 69.5843 84.7302C69.6788 85.1592 69.7544 85.5881 69.8111 85.9918C69.8277 86.0666 69.8383 86.1425 69.8426 86.2189C70.193 88.3545 70.053 90.542 69.433 92.6153Z" fill="#F3AB56"/>
<path d="M54.2341 43.1536C50.5675 43.5891 46.8801 43.8271 43.1879 43.8664H42.1797C38.051 43.8715 33.9261 43.6188 29.829 43.1095C29.898 43.0433 29.9718 42.9821 30.0495 42.9265C38.0012 43.8948 46.04 43.9075 53.9947 42.9644C54.0791 43.0214 54.1592 43.0847 54.2341 43.1536Z" fill="#F28D43"/>
<path d="M59.4328 51.6506C54.0659 52.5748 48.6333 53.0643 43.1879 53.114H42.1796C36.2974 53.1258 30.4253 52.6234 24.6304 51.6127C24.6304 51.537 24.6619 51.4676 24.6745 51.4045C36.1501 53.444 47.8931 53.4654 59.376 51.4676C59.4012 51.5118 59.4138 51.6127 59.4328 51.6506Z" fill="#F28D43"/>
<path d="M59.4328 51.6506C54.0659 52.5748 48.6333 53.0643 43.1879 53.114H42.1796C36.2974 53.1258 30.4253 52.6234 24.6304 51.6127C24.6304 51.537 24.6619 51.4676 24.6745 51.4045C36.1501 53.444 47.8931 53.4654 59.376 51.4676C59.4012 51.5118 59.4138 51.6127 59.4328 51.6506Z" fill="#F28D43"/>
<path d="M63.9004 60.0214C57.0962 61.5204 50.1546 62.3068 43.1879 62.368H42.1734C34.7822 62.3749 27.413 61.5625 20.2005 59.9457L20.4022 59.7565C34.6517 62.946 49.4265 62.9698 63.6862 59.8259C63.7681 59.889 63.8374 59.9584 63.9004 60.0214Z" fill="#F28D43"/>
<path d="M63.9004 60.0214C57.0962 61.5204 50.1546 62.3068 43.1879 62.368H42.1734C34.7822 62.3749 27.413 61.5625 20.2005 59.9457L20.4022 59.7565C34.6517 62.946 49.4265 62.9698 63.6862 59.8259C63.7681 59.889 63.8374 59.9584 63.9004 60.0214Z" fill="#F28D43"/>
<path d="M68.7777 68.0642C60.4372 70.3519 51.8354 71.5457 43.1879 71.6157H42.1796C33.0892 71.6315 24.0398 70.3962 15.2855 67.9444C15.3019 67.8716 15.3229 67.7999 15.3485 67.7299C32.8011 72.6074 51.2501 72.6423 68.7209 67.8308C68.7461 67.907 68.765 67.985 68.7777 68.0642Z" fill="#F28D43"/>
<path d="M68.7777 68.0642C60.4372 70.3519 51.8354 71.5457 43.1879 71.6157H42.1796C33.0892 71.6315 24.0398 70.3962 15.2855 67.9444C15.3019 67.8716 15.3229 67.7999 15.3485 67.7299C32.8011 72.6074 51.2501 72.6423 68.7209 67.8308C68.7461 67.907 68.765 67.985 68.7777 68.0642Z" fill="#F28D43"/>
<path d="M67.7631 77.3372L67.6182 77.621C59.6391 79.7041 51.4336 80.7931 43.1879 80.8634C42.8476 80.8634 42.5136 80.8634 42.1797 80.8634C33.4572 80.8714 24.7714 79.7347 16.3441 77.4823C16.2937 77.394 16.2496 77.2993 16.1992 77.2047C33.0791 81.7675 50.86 81.8132 67.7631 77.3372Z" fill="#F28D43"/>
<path d="M67.7631 77.3372L67.6182 77.621C59.6391 79.7041 51.4336 80.7931 43.1879 80.8634C42.8476 80.8634 42.5136 80.8634 42.1797 80.8634C33.4572 80.8714 24.7714 79.7347 16.3441 77.4823C16.2937 77.394 16.2496 77.2993 16.1992 77.2047C33.0791 81.7675 50.86 81.8132 67.7631 77.3372Z" fill="#F28D43"/>
<path d="M69.8741 86.2504C61.1927 88.7311 52.2157 90.0234 43.1879 90.0921H42.1796C32.7128 90.1178 23.2912 88.7859 14.2016 86.1369C14.2016 86.0612 14.2016 85.9918 14.2016 85.9161C32.3627 91.2216 51.6549 91.2588 69.8363 86.0234C69.8551 86.0979 69.8677 86.1738 69.8741 86.2504Z" fill="#F28D43"/>
<path d="M69.8741 86.2504C61.1927 88.7311 52.2157 90.0234 43.1879 90.0921H42.1796C32.7128 90.1178 23.2912 88.7859 14.2016 86.1369C14.2016 86.0612 14.2016 85.9918 14.2016 85.9161C32.3627 91.2216 51.6549 91.2588 69.8363 86.0234C69.8551 86.0979 69.8677 86.1738 69.8741 86.2504Z" fill="#F28D43"/>
<path d="M67.6119 95.8892C67.53 95.9965 67.4355 96.0974 67.3409 96.1983C59.4429 98.2249 51.3283 99.284 43.1753 99.3523H42.1607C33.5234 99.3651 24.9211 98.2518 16.5709 96.0406C16.489 95.9397 16.4071 95.8451 16.3315 95.7441C33.1213 100.258 50.7969 100.308 67.6119 95.8892Z" fill="#F28D43"/>
<path d="M67.6119 95.8892C67.53 95.9965 67.4355 96.0974 67.3409 96.1983C59.4429 98.2249 51.3283 99.284 43.1753 99.3523H42.1607C33.5234 99.3651 24.9211 98.2518 16.5709 96.0406C16.489 95.9397 16.4071 95.8451 16.3315 95.7441C33.1213 100.258 50.7969 100.308 67.6119 95.8892Z" fill="#F28D43"/>
<path d="M60.0692 106.808L59.7856 107.092C54.3047 108.059 48.753 108.567 43.1879 108.613C42.8539 108.613 42.5136 108.613 42.1796 108.613C36.153 108.618 30.1382 108.08 24.2082 107.004C24.109 106.916 24.0144 106.824 23.9246 106.726C35.8678 108.952 48.1161 108.98 60.0692 106.808Z" fill="#F28D43"/>
<path d="M60.0692 106.808L59.7856 107.092C54.3047 108.059 48.753 108.567 43.1879 108.613C42.8539 108.613 42.5136 108.613 42.1796 108.613C36.153 108.618 30.1382 108.08 24.2082 107.004C24.109 106.916 24.0144 106.824 23.9246 106.726C35.8678 108.952 48.1161 108.98 60.0692 106.808Z" fill="#F28D43"/>
<g style="mix-blend-mode:multiply" opacity="0.3">
<path d="M69.433 92.6153C69.0479 93.8907 68.3814 95.0631 67.4826 96.0458C66.5839 97.0285 65.4759 97.7964 64.2407 98.2926C63.9445 103.106 60.3023 107.572 56.0489 109.792C51.7955 112.013 46.7796 112.378 42.041 111.685C41.074 111.828 40.1001 111.92 39.1235 111.962C43.0162 110.554 46.6394 108.489 49.8358 105.856C53.5896 102.964 56.6923 99.3119 58.9412 95.1385C61.0711 91.0257 61.6697 86.5658 61.8273 81.9231C62.1225 73.4319 60.2917 65.0016 56.5013 57.3996C52.711 49.7976 47.0815 43.2653 40.1254 38.3974C40.4342 38.3343 40.7556 38.2838 41.0454 38.246H42.9358C47.2857 38.776 51.3726 40.6148 54.6563 43.5195C58.2607 46.8565 60.3906 51.9345 59.5714 56.7665C63.3207 58.9995 66.673 62.1347 68.2105 66.2286C69.7481 70.3225 69.4267 75.1924 66.8683 78.7312C68.324 80.3208 69.1431 82.5728 69.5779 84.6797C70.2279 87.2916 70.1779 90.0289 69.433 92.6153Z" fill="#F3AB56"/>
</g>
<g style="mix-blend-mode:multiply" opacity="0.3">
<path d="M64.3919 98.2358L64.2911 98.2799H64.2407C63.9445 103.093 60.3023 107.559 56.0489 109.78C55.9166 109.849 55.7717 109.925 55.6393 109.981C56.6332 109.229 57.5418 108.37 58.3489 107.42C60.5488 104.772 62.0463 101.611 62.7032 98.2295L64.3919 98.2358Z" fill="#F3AB56"/>
</g>
<path d="M24.3279 56.8422C24.3279 56.8422 32.192 58.457 38.8525 58.1038" stroke="#AE5335" stroke-width="0.66" stroke-linecap="round" stroke-linejoin="round"/>
<path d="M59.836 56.6592C56.5731 57.8328 53.0938 58.2806 49.6404 57.9713" stroke="#AE5335" stroke-width="0.66" stroke-linecap="round" stroke-linejoin="round"/>
<path d="M49.0418 80.3271C55.0657 81.0058 61.1629 80.5631 67.0259 79.0214" stroke="#AE5335" stroke-width="0.66" stroke-linecap="round" stroke-linejoin="round"/>
<path d="M16.9742 78.7375C21.7803 79.9821 26.7178 80.647 31.6816 80.7183" stroke="#AE5335" stroke-width="0.66" stroke-linecap="round" stroke-linejoin="round"/>
<path d="M29.7093 99.3081C29.7098 99.3633 29.6903 99.4167 29.6543 99.4585C29.6184 99.5003 29.5685 99.5275 29.5139 99.5352C28.8397 99.5352 28.1591 99.592 27.4849 99.592C24.9254 99.5894 22.3735 99.3123 19.8729 98.7656C19.8729 98.6142 19.8414 98.4691 19.8288 98.3177C23.0069 99.0307 26.2686 99.2982 29.5202 99.1126C29.569 99.1193 29.6142 99.1423 29.6484 99.1777C29.6827 99.2132 29.7041 99.2591 29.7093 99.3081Z" fill="#AE5335"/>
<path d="M40.932 104.26C47.6904 104.26 53.1692 98.3574 53.1692 91.0761C53.1692 83.7948 47.6904 77.8922 40.932 77.8922C34.1735 77.8922 28.6947 83.7948 28.6947 91.0761C28.6947 98.3574 34.1735 104.26 40.932 104.26Z" fill="#884E43"/>
<g style="mix-blend-mode:multiply" opacity="0.33">
<path d="M30.4213 92.1674C30.3988 94.2552 30.8619 96.3196 31.774 98.1973C32.6861 100.075 34.0223 101.714 35.6767 102.986C33.5314 101.835 31.7447 100.115 30.5129 98.0137C29.2811 95.9125 28.652 93.512 28.6948 91.0761C28.6948 83.7903 34.1706 77.8922 40.932 77.8922C43.4578 77.8906 45.9137 78.722 47.9202 80.2577C46.2942 79.423 44.4922 78.9904 42.6649 78.9961C35.8972 78.9835 30.4213 84.8816 30.4213 92.1674Z" fill="#884E43"/>
</g>
<path d="M45.198 33.0481C47.0317 31.7865 48.3487 29.8941 49.8169 28.1972C54.3854 22.9299 60.9703 19.1956 67.9333 19C66.8872 22.2991 64.5305 24.8665 61.6319 26.7716C58.7333 28.6766 55.4629 29.8751 52.1799 31.0169C49.9177 31.8117 47.5358 32.4173 45.198 33.0481Z" fill="#5D9264"/>
<path d="M100.625 36.24C99.1015 37.7195 97.441 39.0502 95.6655 40.2141L95.5899 40.2646L95.2748 40.4538C93.6478 41.4354 91.9352 42.2672 90.1582 42.9392L89.7296 43.0969L89.4272 43.1978C85.3359 44.5663 81.0113 45.0962 76.7111 44.756C74.624 44.6026 72.5539 44.2713 70.5231 43.7656L70.2018 43.6836H70.1576C67.9963 43.1474 65.961 42.422 63.9886 41.7911C62.4152 41.2648 60.8118 40.833 59.187 40.498C58.9097 40.4412 58.6451 40.3971 58.3678 40.3592C58.3322 40.3628 58.2963 40.3628 58.2607 40.3592C56.3803 40.1111 54.4779 40.0751 52.5895 40.252C52.1799 40.252 51.7577 40.3277 51.3292 40.3781C51.1654 40.3781 50.9889 40.416 50.8251 40.4412C47.5043 40.8702 44.0953 41.7028 40.472 42.4093C36.1427 43.2775 31.7517 43.8027 27.34 43.9801C24.4751 44.0891 21.6062 43.9816 18.7575 43.6584L18.2408 43.5952C17.4972 43.5069 16.76 43.3934 16.0164 43.2736L15.5312 43.1852V33.5213C15.6197 33.4588 15.7254 33.4257 15.8337 33.4266C15.8564 33.4208 15.8803 33.4208 15.903 33.4266L16.1362 33.5086C16.489 33.6222 16.8419 33.7294 17.1948 33.8304C17.5098 33.9313 17.8249 34.0196 18.1589 34.0953C21.1925 34.9042 24.3003 35.403 27.4345 35.584C31.4387 35.8127 35.4546 35.7241 39.4449 35.3191C42.4947 35.0415 45.6895 34.5936 49.0229 34.4107C49.3317 34.4107 49.653 34.3729 49.9555 34.3665C50.7558 34.3224 51.5624 34.3161 52.3752 34.3224C53.614 34.3378 54.851 34.422 56.0804 34.5747C56.7106 34.6504 57.3407 34.7513 57.9708 34.8649C58.1221 34.8649 58.2733 34.928 58.4119 34.9595C58.7018 35.0163 58.9979 35.0857 59.2878 35.1551C60.3405 35.4159 61.3777 35.736 62.3944 36.1139C62.9489 36.3031 63.4908 36.5176 64.0201 36.7447L64.5936 36.9781L65.6144 37.4133C67.5678 38.2397 69.433 39.1102 71.2856 39.7726H71.3297C71.7267 39.924 72.1363 40.0627 72.5459 40.1889C74.0308 40.6647 75.5468 41.0378 77.0828 41.3054C79.3923 41.7164 81.7428 41.8477 84.0836 41.6965C84.1275 41.7027 84.1721 41.7027 84.216 41.6965C85.8448 41.5937 87.4618 41.351 89.0491 40.9711C90.9491 40.4824 92.7961 39.8062 94.5628 38.9525L94.7644 38.8642C96.4537 37.978 98.0625 36.9459 99.5724 35.7795L99.9315 35.502C99.9812 35.46 100.039 35.4285 100.101 35.4092C100.163 35.39 100.228 35.3834 100.293 35.3899C100.357 35.3963 100.42 35.4157 100.477 35.4469C100.534 35.4781 100.584 35.5204 100.625 35.5714C100.706 35.6636 100.751 35.7826 100.751 35.9057C100.751 36.0289 100.706 36.1478 100.625 36.24Z" fill="#884E43"/>
<path d="M34.492 36.4733C42.0905 34.4425 49.1576 30.7836 55.2045 25.7496C55.3747 25.5982 55.633 25.8757 55.444 26.0334C49.3944 31.1837 42.2993 34.9567 34.6495 37.0915C34.566 37.1133 34.4772 37.1009 34.4028 37.0571C34.3283 37.0133 34.2743 36.9417 34.2525 36.8581C34.2308 36.7744 34.2432 36.6856 34.2869 36.6111C34.3306 36.5365 34.4021 36.4824 34.4857 36.4607L34.492 36.4733Z" fill="#884E43"/>
<path d="M17.4279 38.3659C17.4279 40.8891 16.7978 42.9708 16.029 43.2673C15.9711 43.291 15.9088 43.3018 15.8463 43.2988C14.9704 43.2988 14.2583 41.091 14.2583 38.3659C14.2583 35.9562 14.8192 33.9502 15.5186 33.5213C15.6071 33.4588 15.7129 33.4257 15.8211 33.4266C15.8438 33.4208 15.8677 33.4208 15.8904 33.4266L16.1236 33.5086C16.8797 33.9881 17.4279 35.9814 17.4279 38.3659Z" fill="#F3AB56"/>
<path d="M74.1338 28.9037C73.5982 29.3705 73.05 29.8247 72.4892 30.2599C72.319 30.3987 72.1426 30.5312 71.9787 30.6573C69.0469 32.9026 65.825 34.7402 62.4007 36.1201C61.9029 36.322 61.3862 36.5112 60.8695 36.6879L60.1826 36.9213C59.0756 37.2919 57.9504 37.6057 56.8114 37.8612C56.5243 37.9267 56.2249 37.9138 55.9445 37.8239C55.664 37.734 55.4129 37.5705 55.2171 37.3502C55.1667 37.2808 55.1163 37.224 55.0722 37.1547C54.9544 36.9823 54.869 36.7899 54.8202 36.5869C54.7743 36.3792 54.7743 36.1639 54.8202 35.9561C54.8278 35.8766 54.8448 35.7983 54.8706 35.7227C54.9589 35.436 55.1224 35.1783 55.3441 34.9764C55.5658 34.7745 55.8374 34.6358 56.1308 34.5746H56.1812H56.3325C61.7861 33.9763 67.0405 32.1799 71.7204 29.3137C72.2623 28.992 72.7979 28.6451 73.3209 28.2981H73.3524C73.4344 28.2477 73.51 28.1846 73.5919 28.1404C73.6491 28.0981 73.7165 28.072 73.7872 28.0647C73.9038 28.0451 74.0236 28.0651 74.1275 28.1215C74.1982 28.1566 74.2573 28.2113 74.2976 28.2792C74.3475 28.3861 74.3585 28.507 74.3285 28.6211C74.2986 28.7352 74.2297 28.8352 74.1338 28.9037Z" fill="#884E43"/>
<path d="M17.22 33.8492C17.5351 33.9502 17.8501 34.0385 18.1841 34.1142C23.7109 36.8447 29.8875 37.9826 36.0232 37.4007C40.075 37.0033 44.0575 35.8552 47.9013 34.745L49.0418 34.4107C49.3506 34.4107 49.672 34.3728 49.9744 34.3665C49.3002 34.5494 48.6322 34.7513 47.958 34.9405C44.1079 36.0571 40.1191 37.2115 36.0484 37.6026C29.5401 38.2337 22.9904 36.9281 17.22 33.8492Z" fill="#F3AB56"/>
<path d="M72.1237 30.3735L72.4829 30.2537C72.3127 30.3924 72.1363 30.5249 71.9724 30.6511C67.6119 32.1082 63.0749 33.6222 58.4119 34.9595C57.2021 35.3127 55.9922 35.6471 54.7635 35.9625C45.7525 38.3154 36.3572 39.8041 26.9556 38.8326C26.2876 38.7632 25.6134 38.6812 24.9518 38.5992C22.9891 38.3068 21.0063 38.1718 19.0222 38.1955C17.8229 38.2428 16.6431 38.5145 15.5438 38.9967V38.7759C16.6421 38.2991 17.8196 38.0317 19.0159 37.9874C21.0106 37.9601 23.0041 38.0951 24.977 38.3911C25.6071 38.4731 26.3128 38.5551 26.9745 38.6245C36.3824 39.6022 45.7966 38.0946 54.8139 35.7291C55.8725 35.4515 56.9248 35.1677 57.9646 34.8649C62.8418 33.4771 67.5867 31.9001 72.1237 30.3735Z" fill="#F3AB56"/>
<path d="M74.0645 28.0773C73.9259 28.1404 73.7809 28.2287 73.6486 28.3044C72.9999 28.6722 72.3309 29.0029 71.6448 29.2948C72.1867 28.9731 72.7223 28.6262 73.2453 28.2792H73.2768C73.3713 28.2414 73.447 28.1909 73.5352 28.1467L73.7116 28.0458C73.8294 28.0154 73.954 28.0266 74.0645 28.0773Z" fill="#F3AB56"/>
<path d="M55.1604 37.3439C51.7262 37.8107 48.3235 38.5613 45.009 39.2994C41.8016 40.0185 38.4934 40.7565 35.1851 41.1918C33.4271 41.4378 31.6312 41.6208 29.8857 41.8226C26.1868 42.1885 22.3619 42.567 18.7575 43.6456L18.2408 43.5826C22.0216 42.3967 25.9915 41.9929 29.8668 41.6081C31.606 41.4378 33.4019 41.2612 35.16 41.0089C38.4493 40.5421 41.7575 39.804 44.9649 39.1164C48.1722 38.4289 51.6191 37.6404 55.047 37.1673C56.5341 36.9591 58.0402 36.8203 59.5399 36.7446C59.9936 36.7446 60.4347 36.7067 60.8821 36.7004C61.9344 36.7004 62.9867 36.7005 64.0327 36.7509L64.6062 36.9843C63.1379 36.9023 61.6634 36.8771 60.1952 36.9339H59.5651C58.1095 37.0032 56.6539 37.1483 55.2108 37.3439H55.1604Z" fill="#F3AB56"/>
<path d="M84.1782 41.7091H84.1089C84.1528 41.7152 84.1973 41.7152 84.2412 41.7091H84.1782Z" fill="#F3AB56"/>
<path d="M56.8429 38.8516C54.9262 38.9858 53.0558 39.5027 51.3418 40.3718C51.178 40.3718 51.0015 40.4097 50.8377 40.4349C52.6695 39.3852 54.7175 38.7702 56.824 38.6371C61.6508 38.1451 66.5407 38.9147 71.2856 39.76H71.3297C71.7267 39.9113 72.1363 40.0501 72.5459 40.1763C67.4103 39.2742 62.0919 38.3154 56.8429 38.8516Z" fill="#F3AB56"/>
<path d="M80.9204 43.1474C83.9576 43.1474 87.0579 43.1474 90.1455 42.9392L89.7171 43.0969L89.4146 43.1978C86.5727 43.3555 83.7434 43.3555 80.9204 43.3555C77.8516 43.3555 74.6757 43.3555 71.5692 43.5637C71.2085 43.58 70.852 43.648 70.5105 43.7656L70.1892 43.6836C70.6151 43.4743 71.0821 43.3623 71.5565 43.3555C74.6946 43.1474 77.8453 43.1474 80.9204 43.1474Z" fill="#F3AB56"/>
<path d="M95.6655 40.2141L95.5899 40.2646L95.2749 40.4538C93.6421 40.6456 92.0263 40.9619 90.4417 41.4C89.3579 41.6776 88.2299 41.9488 87.1083 42.1507C82.0672 43.0275 76.8434 42.2453 71.8023 41.482C67.6434 40.8512 63.3774 40.2204 59.1996 40.5106C58.9223 40.4538 58.6577 40.4097 58.3804 40.3718C62.8544 39.9176 67.4292 40.6115 71.8527 41.2802C76.8938 42.0371 82.0735 42.8194 87.102 41.9425C88.211 41.7533 89.3327 41.4694 90.4165 41.1982C92.1329 40.712 93.8897 40.3826 95.6655 40.2141Z" fill="#F3AB56"/>
<path d="M99.9757 35.4894C99.8735 35.708 99.7556 35.9188 99.6228 36.1202C98.9075 37.2125 97.9847 38.1534 96.9069 38.8894C96.5658 39.1549 96.166 39.3345 95.7412 39.413C95.6825 39.4193 95.6234 39.4193 95.5647 39.413C95.3756 39.421 95.1874 39.3819 95.0169 39.2994C94.8465 39.2168 94.6992 39.0933 94.588 38.9399L94.7897 38.8516C94.8967 38.9861 95.0383 39.0889 95.1992 39.1489C95.3602 39.209 95.5345 39.2239 95.7033 39.1922C96.0991 39.1159 96.472 38.9498 96.7935 38.7065C97.8429 37.9831 98.7436 37.0643 99.4464 36.0003C99.4968 35.912 99.5472 35.8426 99.5976 35.7669L99.9568 35.4894H99.9757Z" fill="#F3AB56"/>
<path d="M74.9152 69.5277C74.004 67.6904 72.6991 66.077 71.0936 64.8024C69.4882 63.5277 67.6216 62.6233 65.627 62.1536" stroke="#211E1F" stroke-width="0.58" stroke-linecap="round" stroke-linejoin="round"/>
<path d="M64.3541 63.4846C64.4536 63.7935 64.6424 64.0659 64.8966 64.2674C65.1508 64.4688 65.4591 64.5902 65.7823 64.6162C66.1054 64.6422 66.4291 64.5716 66.7122 64.4134C66.9953 64.2552 67.2251 64.0164 67.3726 63.7274C67.52 63.4383 67.5785 63.1119 67.5406 62.7896C67.5027 62.4672 67.37 62.1634 67.1595 61.9165C66.949 61.6697 66.6701 61.4909 66.358 61.4028C66.0459 61.3148 65.7148 61.3214 65.4065 61.4218C64.994 61.5562 64.6517 61.8488 64.4544 62.2355C64.2571 62.6221 64.2211 63.0713 64.3541 63.4846Z" fill="#211E1F"/>
<path d="M89.8998 108.234L93.2647 110.858C93.458 109.525 93.5966 108.19 93.6806 106.853C92.4267 107.408 90.0195 108.215 89.8998 108.234Z" fill="#211E1F"/>
<path d="M103.756 92.4386C103.756 93.1893 103.681 93.9336 103.605 94.6717C103.491 95.6435 103.312 96.6066 103.07 97.5545C103.019 97.7626 102.963 97.9771 102.893 98.1853C102.564 99.2935 102.092 100.354 101.488 101.339C101.058 102.047 100.564 102.714 100.013 103.333C94.8338 109.142 85.01 110.448 77.8012 108.221C77.6437 108.171 77.4987 108.127 77.3475 108.064C76.5839 107.798 75.8475 107.46 75.1483 107.054C73.8122 106.261 72.6244 105.241 71.6385 104.039C71.295 103.607 70.9752 103.156 70.6807 102.689C70.3413 102.143 70.0321 101.579 69.7544 100.999C69.704 100.885 69.6473 100.772 69.6032 100.664C69.0696 99.4957 68.6477 98.2791 68.3429 97.0309C68.261 96.6903 68.179 96.3559 68.1097 96.009C67.9459 95.2331 67.8262 94.4446 67.7317 93.6435C67.5875 92.45 67.5055 91.2498 67.4859 90.0478C67.4765 89.9703 67.4765 89.892 67.4859 89.8145C67.4859 89.6504 67.4859 89.4738 67.4859 89.3035V89.253C67.442 86.7214 67.5979 84.1903 67.9522 81.6833C68.3539 78.6798 69.2886 75.7724 70.7122 73.098C71.3711 71.9015 72.1894 70.8002 73.1445 69.8242C78.8157 64.0523 88.4568 63.6675 94.8401 69.2501C98.2491 72.2212 100.719 76.6936 102.187 81.3742C102.307 81.7401 102.414 82.106 102.515 82.4845C102.892 83.8086 103.186 85.1548 103.397 86.5153C103.467 86.9569 103.53 87.3922 103.574 87.8211C103.668 88.6222 103.738 89.4044 103.763 90.1677V90.2749C103.775 90.9877 103.782 91.7132 103.756 92.4386Z" fill="#FCBD0C"/>
<path d="M75.602 81.3238C75.602 81.7919 75.4633 82.2495 75.2033 82.6387C74.9434 83.0278 74.574 83.331 74.1418 83.5099C73.7097 83.6887 73.2342 83.7352 72.7757 83.6434C72.3171 83.5516 71.8961 83.3257 71.5659 82.9942C71.2357 82.6628 71.0111 82.2407 70.9206 81.7814C70.8302 81.3221 70.8779 80.8463 71.0577 80.4142C71.2375 79.9821 71.5414 79.613 71.9308 79.3539C72.3202 79.0947 72.7777 78.957 73.2453 78.9583C73.8709 78.9599 74.4704 79.2099 74.9121 79.6534C75.3539 80.0968 75.602 80.6975 75.602 81.3238Z" fill="#211E1F"/>
<path d="M90.6055 79.0782C90.6055 79.5463 90.4668 80.0039 90.2069 80.3931C89.9469 80.7822 89.5775 81.0854 89.1454 81.2643C88.7132 81.4431 88.2378 81.4896 87.7792 81.3978C87.3207 81.306 86.8996 81.0801 86.5694 80.7486C86.2392 80.4172 86.0146 79.9951 85.9242 79.5358C85.8337 79.0765 85.8814 78.6007 86.0612 78.1686C86.241 77.7365 86.5449 77.3674 86.9343 77.1083C87.3237 76.8491 87.7812 76.7114 88.2488 76.7127C88.5589 76.7127 88.8658 76.7739 89.1522 76.8928C89.4385 77.0118 89.6986 77.1862 89.9175 77.4059C90.1364 77.6257 90.3099 77.8865 90.428 78.1734C90.546 78.4604 90.6064 78.7678 90.6055 79.0782Z" fill="#211E1F"/>
<path d="M79.4459 82.9577C79.4799 83.2571 79.5848 83.544 79.7519 83.7946C79.9191 84.0453 80.1436 84.2523 80.4068 84.3985C80.6699 84.5448 80.9642 84.626 81.2651 84.6354C81.566 84.6448 81.8647 84.5822 82.1365 84.4527C82.4915 84.2556 82.7823 83.9606 82.9745 83.6027C83.1666 83.2448 83.252 82.8391 83.2204 82.4341" stroke="#211E1F" stroke-width="1.15" stroke-linecap="round" stroke-linejoin="round"/>
<path d="M103.385 86.5154C101.391 88.1075 99.2036 89.4406 96.8754 90.4832C92.7975 92.2536 88.488 93.4325 84.0774 93.9842C82.4642 94.2113 80.9267 94.3753 79.4143 94.4699C75.5105 94.7752 71.5831 94.4924 67.7631 93.6309C67.6169 92.4376 67.5328 91.2374 67.5111 90.0353C67.5111 89.9533 67.5111 89.8839 67.5111 89.8019C72.0292 91.0635 77.3097 91.2654 83.5858 90.376C87.6588 89.8741 91.6394 88.7929 95.4072 87.1651C98.0217 86.0057 100.426 84.4197 102.521 82.4719C102.892 83.8008 103.18 85.1512 103.385 86.5154Z" fill="#211E1F"/>
<path d="M103.75 90.1614V90.2686C103.75 90.9941 103.75 91.7132 103.75 92.4449C103.75 93.1766 103.681 93.9399 103.593 94.6717C99.9208 96.8157 95.9551 98.4096 91.8217 99.4027C87.9058 100.465 83.8961 101.143 79.8491 101.428C76.4825 101.66 73.1004 101.512 69.767 100.986C69.7103 100.873 69.6536 100.759 69.6031 100.645C69.0821 99.4771 68.6708 98.2628 68.3744 97.0183C74.9404 98.4817 82.5146 98.1033 90.9206 95.8891C96.4154 94.432 100.587 92.6152 103.75 90.1614Z" fill="#211E1F"/>
<path d="M103.051 97.5482C103 97.769 102.937 97.9835 102.874 98.179C102.55 99.2889 102.077 100.35 101.469 101.333C101.039 102.041 100.545 102.708 99.9946 103.326C97.5178 104.39 94.9622 105.258 92.351 105.925C88.4351 106.987 84.4254 107.665 80.3784 107.95C79.3576 108.013 78.3431 108.051 77.3475 108.057C76.5839 107.792 75.8475 107.454 75.1483 107.048C73.8102 106.26 72.6237 105.239 71.6448 104.033C77.5491 104.872 84.1908 104.323 91.4562 102.412C96.2768 101.131 100.076 99.5542 103.051 97.5482Z" fill="#211E1F"/>
<path d="M85.3502 67.118C85.5218 65.0745 86.1416 63.094 87.1654 61.3178C88.1893 59.5416 89.592 58.0134 91.2735 56.8422" stroke="#211E1F" stroke-width="0.58" stroke-linecap="round" stroke-linejoin="round"/>
<path d="M92.9685 57.6055C92.9903 57.9307 92.9153 58.2549 92.7528 58.5373C92.5904 58.8197 92.3479 59.0475 92.056 59.1919C91.7642 59.3362 91.4361 59.3906 91.1134 59.3481C90.7906 59.3057 90.4877 59.1683 90.243 58.9534C89.9983 58.7385 89.8228 58.4557 89.7387 58.1409C89.6546 57.8261 89.6658 57.4934 89.7707 57.1849C89.8757 56.8765 90.0697 56.6061 90.3283 56.4081C90.5868 56.2101 90.8982 56.0934 91.2231 56.0727C91.6574 56.045 92.085 56.1908 92.4122 56.4781C92.7393 56.7654 92.9394 57.1708 92.9685 57.6055Z" fill="#211E1F"/>
</g>
<defs>
<clipPath id="clip0_339_2437">
<rect width="102" height="93" fill="white" transform="translate(14 19)"/>
</clipPath>
</defs>
</svg>
