<svg width="28" height="28" viewBox="0 0 28 28" fill="none" xmlns="http://www.w3.org/2000/svg">
<path d="M27.9744 14.4598C27.7195 12.1256 25.5762 10.3739 23.0038 10.4093C22.2436 10.4169 21.4182 10.5509 20.5865 10.7629C20.0308 9.87694 19.271 9.0905 18.3429 8.48331C18.1688 8.37128 17.9897 8.26822 17.8082 8.17098C18.3371 7.45624 18.6179 6.6232 18.6179 5.74177C18.6179 4.5108 18.0582 3.39859 17.1624 2.6023L19.1688 0.765038C19.36 0.589827 19.36 0.30662 19.1688 0.131409C18.9775 -0.0438029 18.6683 -0.0438029 18.477 0.131409L16.3875 2.04485C15.6488 1.61555 14.7755 1.36327 13.8376 1.36327C13.0436 1.36327 12.2956 1.5443 11.6361 1.85933L9.74966 0.131409C9.55837 -0.0438029 9.24918 -0.0438029 9.05789 0.131409C8.8666 0.30662 8.8666 0.589827 9.05789 0.765038L10.802 2.36256C9.73743 3.16602 9.05789 4.38264 9.05789 5.74177C9.05789 6.67653 9.39057 7.5844 9.99378 8.33051C9.81277 8.43671 9.63616 8.54918 9.46493 8.66928C8.66162 9.24286 7.9948 9.97238 7.49725 10.7848C6.63768 10.5599 5.78202 10.4169 4.99632 10.4088C2.42543 10.3699 0.280169 12.1251 0.0257711 14.4593C-0.115616 15.7535 0.328115 16.9934 1.27428 17.951C2.20724 18.8952 3.5394 19.437 4.92881 19.437C5.82361 19.437 6.81136 19.2617 7.79422 18.9835C7.82651 19.0507 7.85292 19.1134 7.88668 19.1833L7.88864 19.1869C7.89108 19.1918 7.89255 19.1963 7.895 19.2012C8.45125 20.287 9.17041 21.4001 10.0305 22.5061C10.483 23.1003 10.9776 23.6895 11.4977 24.255C11.8176 24.6077 12.2129 24.8851 12.6522 25.0746L13.1875 26.7985C13.3049 27.1763 13.6698 27.4286 14.0974 27.4286C14.0999 27.4286 14.1028 27.4286 14.1057 27.4286C14.5372 27.4254 14.9017 27.1669 15.0128 26.7846L15.5108 25.0715C15.9492 24.882 16.3435 24.6059 16.6629 24.2546C17.204 23.6564 17.6815 23.0846 18.1184 22.511C18.9765 21.4154 19.6942 20.3014 20.2456 19.2116C20.25 19.2035 20.2539 19.1945 20.2583 19.1865L20.2588 19.1856C20.2876 19.1318 20.314 19.0758 20.3419 19.0211C21.2798 19.277 22.2176 19.4374 23.0708 19.4374C24.4602 19.4374 25.7924 18.8961 26.7254 17.9515C27.672 16.9938 28.1153 15.7539 27.9744 14.4598ZM10.0363 5.74221C10.0363 3.82206 11.7418 2.25994 13.8381 2.25994C15.9345 2.25994 17.6399 3.82206 17.6399 5.74221C17.6399 6.48249 17.3875 7.17796 16.9198 7.76454C16.0181 7.41681 15.0573 7.23443 14.0774 7.23443C12.9654 7.23443 11.8661 7.46789 10.8636 7.89763C10.3309 7.2873 10.0363 6.52641 10.0363 5.74221ZM10.0637 9.37819C11.2071 8.57338 12.6322 8.1302 14.0769 8.1302C15.3924 8.1302 16.6732 8.50616 17.7774 9.21463C18.5284 9.70576 19.1546 10.3327 19.6306 11.0375C19.4124 11.1083 19.1957 11.1836 18.9809 11.2625H9.01875C8.82942 11.193 8.63911 11.1267 8.44733 11.0635C8.87003 10.4187 9.41698 9.84019 10.0637 9.37819ZM17.4638 21.8016H10.6909C10.0921 21.0165 9.56962 20.2324 9.1303 19.4594H19.02C18.5822 20.2386 18.0607 21.0224 17.4638 21.8016ZM9.07599 18.5631C10.7237 17.9533 12.2335 17.131 13.1131 16.4498C13.4693 16.1738 13.7114 15.8041 13.8205 15.3977H14.1796C14.2887 15.8041 14.5309 16.1738 14.887 16.4498C15.7667 17.131 17.2764 17.9533 18.9241 18.5631H9.07599ZM14.8787 13.4027C14.5094 13.689 14.2608 14.0757 14.1615 14.5015H13.8386C13.7393 14.0757 13.4908 13.6886 13.1214 13.4027C12.62 13.0142 11.9091 12.5768 11.0833 12.1592H16.9168C16.0905 12.5768 15.3802 13.0137 14.8787 13.4027ZM1.99931 17.3501C1.24101 16.5829 0.886321 15.5877 0.999333 14.5489C1.20187 12.6929 2.89264 11.3051 4.94153 11.3051C4.95621 11.3051 4.97137 11.3051 4.98605 11.3051C6.12448 11.3163 7.45176 11.6488 8.70173 12.1117C8.71543 12.1175 8.72864 12.1224 8.74283 12.1274C10.28 12.7014 11.6958 13.4708 12.4898 14.086C12.7569 14.2931 12.9101 14.5969 12.9101 14.9195C12.9101 15.2462 12.754 15.5545 12.482 15.7651C11.0168 16.8993 7.48404 18.5407 4.9293 18.5407C3.81533 18.5412 2.74734 18.107 1.99931 17.3501ZM14.0974 26.4521L13.755 25.3493C13.8616 25.3587 13.9683 25.3655 14.0764 25.3655C14.1914 25.3655 14.3053 25.3587 14.4179 25.3484L14.0974 26.4521ZM15.911 23.6819C15.4555 24.1825 14.7867 24.4697 14.0764 24.4697C13.3699 24.4697 12.7041 24.1825 12.2481 23.6801C11.9531 23.3593 11.6709 23.0304 11.3969 22.6979H16.7574C16.4917 23.0214 16.2138 23.3472 15.911 23.6819ZM26.0008 17.3501C25.2528 18.107 24.1853 18.5412 23.0713 18.5412C20.5161 18.5412 16.9839 16.9002 15.5186 15.7656C15.2466 15.555 15.0906 15.2467 15.0906 14.9204C15.0906 14.5978 15.2437 14.294 15.5108 14.0869C16.3043 13.4717 17.7192 12.7027 19.2554 12.1287C19.272 12.1233 19.2876 12.1175 19.3033 12.1103C20.5518 11.6483 21.8766 11.3167 23.0141 11.3055C25.0987 11.2921 26.7968 12.6799 27.0003 14.5489C27.1138 15.5877 26.7586 16.5825 26.0008 17.3501Z" fill="#FCBD0C"/>
</svg>
