<svg width="171" height="135" viewBox="0 0 171 135" fill="none" xmlns="http://www.w3.org/2000/svg">
<path d="M134.764 35.0288C135.028 35.6055 135.292 36.1822 135.531 36.7464" stroke="#033333" stroke-miterlimit="10"/>
<path d="M39.8938 1.37914L41.6032 0.576782" stroke="#033333" stroke-miterlimit="10"/>
<path d="M110.481 43.0525C109.292 42.8589 108.074 42.9448 106.924 43.3033H106.823C106.461 43.4171 106.111 43.5684 105.78 43.7547C105.163 44.0752 104.606 44.4993 104.133 45.0084C104.101 45.0344 104.071 45.0638 104.045 45.0961C103.457 45.7509 103.027 46.5315 102.788 47.3779C102.7 47.7438 102.65 48.1176 102.638 48.4937V48.5814C102.633 49.1264 102.718 49.6684 102.889 50.1862C102.885 50.2153 102.885 50.2448 102.889 50.274C103.092 50.8694 103.417 51.416 103.844 51.8787C104.362 52.3904 104.961 52.8139 105.616 53.1324C106.802 53.7818 108.07 54.2669 109.387 54.5742H109.613C112.659 55.1946 115.812 55.0307 118.776 54.0978L117.921 53.2452L117.846 53.1575C116.827 52.0789 115.874 50.9402 114.993 49.7474C114.952 49.7069 114.918 49.6604 114.892 49.6095C114.377 48.9325 113.887 48.2179 113.422 47.5033L113.309 47.3277C112.881 46.6632 112.479 46.0113 112.052 45.3343C111.621 44.514 111.094 43.748 110.481 43.0525Z" fill="#EAF6FE"/>
<path d="M162.642 39.5422C163.807 39.2294 165.029 39.1908 166.211 39.4294H166.312C166.685 39.516 167.051 39.6334 167.405 39.7804C168.051 40.0454 168.646 40.4185 169.165 40.8837L169.266 40.9589C169.907 41.5552 170.398 42.294 170.698 43.1153C170.836 43.465 170.925 43.832 170.962 44.206C170.968 44.2349 170.968 44.2648 170.962 44.2938C171.028 44.8339 170.998 45.3812 170.874 45.9111C170.874 45.9111 170.874 45.9737 170.874 46.0114C170.728 46.623 170.458 47.1987 170.083 47.7039C169.626 48.2782 169.079 48.7737 168.461 49.1707C167.332 49.9418 166.101 50.5536 164.804 50.9886L164.59 51.0638C161.623 51.984 158.471 52.1393 155.427 51.5151C155.695 51.2059 155.947 50.8925 156.181 50.5749L156.257 50.4746C157.168 49.3014 158.007 48.0747 158.771 46.8012L158.859 46.6633C159.286 45.9236 159.701 45.1714 160.115 44.4192L160.203 44.2436C160.555 43.5541 160.895 42.852 161.209 42.1499C161.567 41.2204 162.049 40.3433 162.642 39.5422Z" fill="#EAF6FE"/>
<path d="M138.711 85.9672L136.297 90.6811C135.38 89.2895 134.525 87.8603 133.783 86.406C135.43 86.3684 138.56 86.0173 138.711 85.9672Z" fill="#211E1F"/>
<path d="M140.545 32.5213C141.424 30.134 142.819 27.9688 144.631 26.1792C146.442 24.3895 148.626 23.0193 151.028 22.1656" stroke="#211E1F" stroke-width="0.6" stroke-linecap="round" stroke-linejoin="round"/>
<path d="M152.788 23.6326C152.707 24.0264 152.511 24.3875 152.225 24.6703C151.939 24.9531 151.575 25.1448 151.179 25.2211C150.784 25.2975 150.374 25.255 150.003 25.0991C149.631 24.9432 149.315 24.6809 149.093 24.3455C148.871 24.01 148.754 23.6164 148.756 23.2145C148.759 22.8126 148.881 22.4204 149.107 22.0877C149.333 21.755 149.653 21.4967 150.026 21.3454C150.399 21.1941 150.809 21.1567 151.204 21.238C151.732 21.3466 152.195 21.6598 152.492 22.1087C152.789 22.5576 152.895 23.1056 152.788 23.6326Z" fill="#211E1F"/>
<path d="M114.591 66.2087V66.334C114.691 67.22 114.817 68.1101 114.968 69.0045C115.131 69.9197 115.332 70.8224 115.559 71.7125C115.868 72.883 116.259 74.0308 116.727 75.1477C116.825 75.405 116.939 75.6562 117.067 75.8999C117.665 77.1998 118.434 78.4141 119.354 79.5106C120.007 80.2977 120.731 81.0237 121.516 81.6795C128.932 87.9481 141.274 87.735 149.746 83.7231C149.928 83.6436 150.105 83.5515 150.274 83.4472C151.163 82.9877 152.005 82.4418 152.788 81.8174C154.289 80.6078 155.566 79.1437 156.558 77.4921C156.907 76.9047 157.222 76.2978 157.501 75.6742C157.824 74.9427 158.105 74.1935 158.343 73.4301C158.343 73.2796 158.431 73.1292 158.469 72.9913C158.913 71.4645 159.207 69.8984 159.349 68.3149C159.349 67.8887 159.424 67.4624 159.449 67.0612C159.449 66.0833 159.449 65.0804 159.449 64.0899C159.417 62.5976 159.308 61.1079 159.122 59.6267C159.128 59.5306 159.128 59.4344 159.122 59.3383C159.122 59.1377 159.122 58.9246 159.047 58.7115C158.155 52.0543 156.345 44.8203 152.197 39.4043C151.167 38.0555 149.958 36.8533 148.602 35.8312C144.562 32.8834 139.555 31.5671 134.583 32.146C129.612 32.7249 125.043 35.1563 121.793 38.9529C118.123 43.203 115.885 49.1331 114.905 55.1384C114.83 55.6023 114.754 56.0787 114.704 56.5425C114.478 58.2428 114.356 59.9552 114.339 61.6702C114.339 62.2093 114.339 62.7484 114.339 63.3001C114.427 64.2905 114.49 65.2684 114.591 66.2087Z" fill="#FCBD0C"/>
<path d="M143.399 48.1803C143.499 48.7517 143.768 49.2805 144.17 49.6999C144.572 50.1192 145.089 50.4102 145.657 50.536C146.225 50.6619 146.818 50.617 147.36 50.4071C147.902 50.1971 148.37 49.8314 148.704 49.3564C149.037 48.8813 149.223 48.3181 149.236 47.7381C149.249 47.158 149.089 46.5871 148.777 46.0976C148.465 45.6081 148.014 45.2219 147.482 44.9878C146.95 44.7538 146.36 44.6824 145.787 44.7827C145.406 44.8493 145.043 44.9901 144.717 45.1969C144.391 45.4037 144.109 45.6726 143.887 45.9881C143.665 46.3036 143.508 46.6596 143.424 47.0357C143.34 47.4119 143.332 47.8008 143.399 48.1803Z" fill="#211E1F"/>
<path d="M124.52 48.6442C124.621 49.2156 124.889 49.7444 125.291 50.1637C125.693 50.583 126.211 50.874 126.779 50.9999C127.346 51.1258 127.939 51.0809 128.481 50.8709C129.023 50.6609 129.491 50.2953 129.825 49.8203C130.159 49.3452 130.344 48.782 130.357 48.202C130.37 47.6219 130.211 47.051 129.898 46.5615C129.586 46.0719 129.135 45.6857 128.603 45.4517C128.071 45.2177 127.481 45.1463 126.908 45.2466C126.141 45.3842 125.46 45.8186 125.013 46.4549C124.565 47.0913 124.388 47.8782 124.52 48.6442Z" fill="#211E1F"/>
<path d="M139.037 51.0011C139.053 51.3721 138.982 51.7418 138.829 52.0802C138.676 52.4186 138.445 52.7164 138.155 52.9494C137.865 53.1824 137.524 53.3442 137.16 53.4218C136.796 53.4993 136.418 53.4903 136.058 53.3957C135.58 53.233 135.16 52.9357 134.847 52.5397C134.535 52.1436 134.345 51.6658 134.299 51.164" stroke="#211E1F" stroke-width="1.2" stroke-linecap="round" stroke-linejoin="round"/>
<path d="M114.39 61.7203C117.128 63.3325 120.059 64.5961 123.112 65.4815C128.437 66.9171 133.938 67.5925 139.452 67.4874C141.476 67.4874 143.411 67.4122 145.284 67.2618C150.157 66.91 154.949 65.8279 159.499 64.0522C159.467 62.5599 159.358 61.0702 159.173 59.589C159.179 59.493 159.179 59.3967 159.173 59.3007C153.843 61.6827 147.37 62.8487 139.49 62.8738C134.401 62.9727 129.324 62.3565 124.407 61.0433C120.98 60.0799 117.735 58.5592 114.804 56.5425C114.56 58.2583 114.421 59.9875 114.39 61.7203Z" fill="#211E1F"/>
<path d="M114.591 66.2086V66.334C114.691 67.22 114.817 68.1101 114.968 69.0044C115.131 69.9196 115.332 70.8223 115.559 71.7124C120.463 73.7048 125.633 74.9719 130.905 75.4736C135.91 76.0777 140.961 76.1911 145.988 75.8121C150.177 75.4995 154.317 74.7172 158.331 73.4802C158.331 73.3297 158.419 73.1793 158.456 73.0414C158.9 71.5146 159.195 69.9485 159.336 68.365C151.506 71.3238 142.117 72.2139 131.37 70.9978C124.382 70.1453 118.915 68.6158 114.591 66.2086Z" fill="#211E1F"/>
<path d="M116.765 75.1477C116.863 75.405 116.976 75.6562 117.105 75.8999C117.702 77.1998 118.472 78.4141 119.392 79.5107C120.045 80.2977 120.769 81.0237 121.554 81.6796C124.794 82.5451 128.097 83.1571 131.433 83.51C136.438 84.1117 141.489 84.2292 146.516 83.861C147.773 83.7607 149.03 83.6228 150.286 83.4473C151.176 82.9878 152.018 82.4419 152.8 81.8175C154.302 80.6079 155.578 79.1437 156.571 77.4921C148.527 79.6352 140.135 80.1594 131.886 79.0342C126.665 78.578 121.556 77.2648 116.765 75.1477Z" fill="#211E1F"/>
<path d="M129.334 33.5117C128.841 31.0176 127.805 28.6622 126.297 26.6125C124.79 24.5629 122.849 22.8692 120.611 21.6516" stroke="#211E1F" stroke-width="0.6" stroke-linecap="round" stroke-linejoin="round"/>
<path d="M118.638 22.8553C118.656 23.2594 118.793 23.6491 119.034 23.9751C119.274 24.3011 119.605 24.5487 119.987 24.6865C120.368 24.8243 120.782 24.8461 121.175 24.7491C121.569 24.6522 121.925 24.4409 122.199 24.142C122.472 23.8431 122.65 23.47 122.71 23.07C122.771 22.67 122.711 22.2611 122.538 21.895C122.366 21.529 122.088 21.2223 121.74 21.0139C121.393 20.8054 120.991 20.7045 120.586 20.7239C120.317 20.7352 120.054 20.7994 119.81 20.9128C119.567 21.0262 119.348 21.1866 119.167 21.3848C118.986 21.5829 118.846 21.8149 118.755 22.0672C118.664 22.3196 118.624 22.5875 118.638 22.8553Z" fill="#211E1F"/>
</svg>
