<svg width="131" height="131" viewBox="0 0 131 131" fill="none" xmlns="http://www.w3.org/2000/svg">
<rect width="131" height="131" rx="20" fill="#FAF8F5"/>
<g clip-path="url(#clip0_358_1516)">
<path d="M58.3993 54.877C58.7698 52.9704 59.6221 51.1897 60.8754 49.7037C62.3269 48.2915 63.3473 46.4977 63.8182 44.5304C64.1294 42.4352 64.622 39.9779 63.17 38.206C61.1341 36.0411 58.8843 34.0869 56.4547 32.373C53.0192 29.6829 48.9745 26.4625 44.3723 26.4366C38.4607 26.4366 38.9144 33.5112 40.159 37.417C41.0924 40.3788 43.2055 42.7326 44.8519 45.3064C46.6418 47.9388 48.2073 50.7162 49.5319 53.6096C50.1565 55.0434 50.5922 56.5519 50.8283 58.0975C51.0228 59.4555 50.8283 60.9428 51.3858 62.2232C52.2803 64.0339 54.9249 64.1115 56.3899 62.8569C58.8271 60.7876 57.8937 57.6836 58.3993 54.9805C58.3863 54.9417 58.3863 54.9029 58.3993 54.877Z" fill="#FFCD00"/>
<path d="M62.9108 57.8H31.7713V64.409H62.9108V57.8Z" fill="#E6E6DC"/>
<path d="M64.2071 60.1022H30.4749V62.081H64.2071V60.1022Z" fill="#E6E6DC"/>
<path d="M64.0516 113.258C63.2608 114.991 62.7552 116 62.7552 116H31.9139C31.9139 116 31.4213 114.991 30.6175 113.258C27.2598 106.028 18.6906 86.4085 20.1685 77.2388C21.9965 65.8962 31.8361 64.4089 31.8361 64.4089H62.9367C62.9367 64.4089 72.6986 65.8962 74.6043 77.2388C75.9784 86.4085 67.4222 106.028 64.0516 113.258Z" fill="#FFAA00"/>
<path d="M62.9367 64.4089H47.3799V116H62.7552C62.7552 116 63.2608 114.991 64.0516 113.258C67.4222 106.028 75.9784 86.4085 74.5135 77.2388C72.6726 65.8962 62.9367 64.4089 62.9367 64.4089Z" fill="#FFBE00"/>
<path d="M64.0516 113.258C63.2608 114.991 62.7552 116 62.7552 116H31.9139C31.9139 116 31.4213 114.991 30.6175 113.258H64.0516Z" fill="#E6E6DC"/>
<path d="M64.6868 68.4312C72.4652 81.5326 69.8724 90.4178 60.1624 106.416C67.6815 90.3014 70.6891 82.0629 59.3197 68.4829L64.6868 68.4312Z" fill="white"/>
<path d="M62.833 65.3142C63.7145 65.4824 71.9077 67.2284 73.606 77.3811C75.071 86.4344 66.0351 106.843 63.2348 112.883C62.7811 113.866 62.4181 114.629 62.1977 115.095H32.4973C32.2639 114.629 31.9009 113.866 31.4472 112.883C28.647 106.843 19.6111 86.4732 21.076 77.3811C22.7224 67.2155 30.9805 65.4694 31.8491 65.3142H62.833ZM62.9107 64.4089H31.8231C31.8231 64.4089 22.0483 65.8962 20.2204 77.2388C18.7425 86.4085 27.3117 106.028 30.6693 113.258C31.4731 114.991 31.9657 116 31.9657 116H62.7552C62.7552 116 63.2608 114.991 64.0516 113.258C67.4222 106.028 75.9784 86.4085 74.5135 77.2388C72.6726 65.8962 62.8459 64.4089 62.8459 64.4089H62.9107Z" fill="#E6E6DC"/>
<path d="M110.813 92.3449L109.309 93.8581C109.309 93.8581 67.4481 51.0746 64.2331 49.5097C61.018 47.9448 49.9727 47.8284 40.8979 38.788C36.7883 34.6752 35.4142 27.3808 40.5738 22.2333L40.4701 22.3368C45.6557 17.1634 52.9415 18.5602 57.051 22.6601C66.1258 31.7134 66.2555 42.8491 67.8111 46.0177C69.3668 49.1864 112.2 90.9352 112.2 90.9352L110.683 92.4354L110.813 92.3449Z" fill="#A26A00"/>
<path d="M57.1418 25.5055C51.3339 19.7114 45.3186 19.6467 41.585 23.3715C37.8514 27.0963 37.9162 33.0974 43.7241 38.8915C49.5319 44.6856 60.4087 47.6732 63.17 44.9055C65.9443 42.1507 62.9367 31.2479 57.1418 25.5055Z" fill="#865200"/>
<path d="M57.1418 25.5055C51.3339 19.7114 45.3186 19.6467 41.585 23.3715L63.17 44.9055C65.9443 42.1507 62.9367 31.2479 57.1418 25.5055Z" fill="#905C00"/>
<path d="M113.717 89.1504C114.327 89.7603 114.742 90.5369 114.91 91.3822C115.078 92.2274 114.991 93.1034 114.66 93.8994C114.329 94.6954 113.769 95.3756 113.051 95.8542C112.333 96.3328 111.488 96.5883 110.625 96.5883C109.761 96.5883 108.917 96.3328 108.198 95.8542C107.48 95.3756 106.92 94.6954 106.589 93.8994C106.258 93.1034 106.171 92.2274 106.339 91.3822C106.507 90.5369 106.923 89.7603 107.533 89.1504C108.356 88.3377 109.467 87.8818 110.625 87.8818C111.783 87.8818 112.894 88.3377 113.717 89.1504Z" fill="#B47800"/>
</g>
<defs>
<clipPath id="clip0_358_1516">
<rect width="95" height="97" fill="white" transform="translate(20 19)"/>
</clipPath>
</defs>
</svg>
