<svg width="17" height="17" viewBox="0 0 17 17" fill="none" xmlns="http://www.w3.org/2000/svg">
<path d="M2.00399 0.412265C1.56466 -0.0270701 0.852341 -0.0270701 0.413006 0.412265C-0.0263405 0.8516 -0.0263405 1.56392 0.413006 2.00325L6.9096 8.49982L0.413073 14.9964C-0.0262729 15.4357 -0.0262729 16.148 0.413073 16.5873C0.852408 17.0266 1.56472 17.0266 2.00406 16.5873L8.50057 10.0908L14.9971 16.5873C15.4364 17.0266 16.1488 17.0266 16.5881 16.5873C17.0274 16.148 17.0274 15.4357 16.5881 14.9964L10.0915 8.49982L16.5881 2.00325C17.0275 1.56392 17.0275 0.8516 16.5881 0.412265C16.1488 -0.0270701 15.4365 -0.0270701 14.9971 0.412265L8.50057 6.90885L2.00399 0.412265Z" fill="#333333"/>
</svg>
