<svg width="89" height="86" viewBox="0 0 89 86" fill="none" xmlns="http://www.w3.org/2000/svg">
<g clip-path="url(#clip0_378_1836)">
<path d="M10.1509 29.185C8.602 28.9328 7.01558 29.0449 5.51753 29.5124H5.40296C4.92544 29.6609 4.46452 29.8583 4.02764 30.1016C3.22707 30.5249 2.50231 31.078 1.88287 31.7385L1.78464 31.8531C1.01254 32.7038 0.451662 33.7244 0.147402 34.8322C0.016811 35.3067 -0.049264 35.7967 -0.0490576 36.2889C-0.0490576 36.2889 -0.0490576 36.3708 -0.0490576 36.4035C-0.0597954 37.1142 0.0452746 37.8218 0.262021 38.4987V38.6133C0.523289 39.3969 0.947343 40.1165 1.50633 40.7248C2.17573 41.3921 2.95003 41.945 3.79845 42.3617C5.34304 43.2082 6.99533 43.8414 8.71015 44.244H8.98845C12.9552 45.0541 17.0629 44.84 20.9239 43.622C20.5473 43.2619 20.1872 42.8855 19.827 42.509L19.7124 42.3944C18.39 40.982 17.1491 39.4955 15.9958 37.9422L15.8649 37.7785C15.21 36.8782 14.5714 35.9452 13.9493 35.0122L13.8019 34.7831C13.2453 33.9319 12.7213 33.0644 12.1647 32.1805C11.6165 31.1046 10.9404 30.0988 10.1509 29.185Z" fill="#EAF6FE"/>
<path d="M78.1123 24.6018C79.6242 24.193 81.2108 24.1426 82.7457 24.4545H82.8767C83.364 24.5651 83.8407 24.7184 84.3011 24.9128C85.1486 25.2621 85.9295 25.7549 86.6095 26.3695L86.7241 26.4677C87.5669 27.2365 88.2127 28.1965 88.607 29.2668C88.7714 29.7281 88.8866 30.2054 88.9507 30.6908V30.8054C89.0326 31.51 88.9994 32.2231 88.8525 32.9169C88.8582 32.9604 88.8582 33.0044 88.8525 33.0479C88.6743 33.848 88.3283 34.6012 87.8374 35.2577C87.2333 36.0041 86.515 36.6504 85.7091 37.1727C84.2418 38.1762 82.6444 38.9748 80.9611 39.5462L80.6664 39.6444C76.8016 40.8458 72.6953 41.0485 68.731 40.2336L69.7296 39.006C69.7377 38.9627 69.7377 38.9184 69.7296 38.8751C70.9271 37.3514 72.0211 35.7492 73.0041 34.0791L73.1187 33.899C73.6918 32.9333 74.232 31.9512 74.756 30.9691L74.8706 30.7399C75.3454 29.8397 75.7711 28.923 76.1967 28.0064C76.6813 26.7915 77.3254 25.6466 78.1123 24.6018Z" fill="#EAF6FE"/>
<path d="M49.3298 15.4354C50.4718 12.3169 52.2874 9.48841 54.6475 7.15147C57.0077 4.81454 59.8542 3.02659 62.9843 1.91504" stroke="#211E1F" stroke-width="0.6" stroke-linecap="round" stroke-linejoin="round"/>
<path d="M65.2765 3.83024C65.1695 4.34256 64.9132 4.81176 64.54 5.17876C64.1668 5.54577 63.6933 5.79416 63.1792 5.89264C62.6651 5.99111 62.1333 5.9353 61.6508 5.73219C61.1683 5.52907 60.7568 5.18773 60.468 4.75122C60.1792 4.3147 60.026 3.80253 60.0278 3.27916C60.0297 2.7558 60.1863 2.24467 60.4781 1.81016C60.7699 1.37565 61.1839 1.03716 61.6677 0.83738C62.1516 0.637604 62.6837 0.585445 63.1972 0.687472C63.8893 0.829446 64.4968 1.24006 64.8866 1.82919C65.2764 2.41832 65.4166 3.13792 65.2765 3.83024Z" fill="#211E1F"/>
<path d="M15.5047 59.483V59.6631C15.6357 60.8089 15.7994 61.9711 16.0122 63.1332C16.2251 64.2954 16.4707 65.5067 16.7817 66.6688C17.1782 68.1992 17.6871 69.6983 18.3043 71.1538C18.4353 71.4975 18.5827 71.8249 18.73 72.1359C19.5148 73.8297 20.5165 75.4143 21.7098 76.85C22.5746 77.8751 23.5219 78.8277 24.5422 79.6981C34.2019 87.8005 50.2632 87.5877 61.2981 82.3662C61.5411 82.257 61.7763 82.1312 62.0021 81.9897C63.1631 81.3936 64.2603 80.6806 65.2766 79.8618C67.2415 78.2915 68.9056 76.3782 70.1883 74.2147C70.6492 73.4513 71.0594 72.6584 71.4162 71.8412C71.8443 70.8891 72.2107 69.9104 72.5132 68.9113C72.5132 68.7149 72.6278 68.5184 72.6932 68.3384C73.2584 66.3427 73.6366 64.2987 73.8229 62.2329C73.8229 61.6764 73.9376 61.1199 73.9539 60.5961C73.9539 59.3193 74.0522 58.0099 73.9539 56.7168C73.9062 54.7681 73.7586 52.8232 73.5119 50.8896C73.5199 50.7697 73.5199 50.6494 73.5119 50.5295L73.4136 49.6947C72.2512 41.003 69.8772 31.5584 64.4743 24.4872C63.1378 22.7223 61.5618 21.1522 59.7918 19.8222C54.5237 15.9793 47.9975 14.269 41.5212 15.0339C35.0449 15.7989 29.097 18.9826 24.8697 23.9471C20.0889 29.496 17.1747 37.2383 15.8976 45.0788C15.7994 45.6844 15.7175 46.3064 15.652 46.9284C15.3519 49.1424 15.1878 51.3727 15.1609 53.6068C15.1609 54.3106 15.1609 55.0308 15.1609 55.7346C15.2919 56.9132 15.3737 58.1899 15.5047 59.483Z" fill="#FCBD0C"/>
<path d="M53.03 35.8797C53.1612 36.6257 53.5107 37.3161 54.0344 37.8636C54.5581 38.411 55.2323 38.791 55.972 38.9553C56.7116 39.1197 57.4834 39.0611 58.1897 38.787C58.896 38.5128 59.5052 38.0354 59.9401 37.4152C60.3751 36.7949 60.6163 36.0597 60.6333 35.3024C60.6504 34.545 60.4424 33.7997 60.0357 33.1605C59.6291 32.5214 59.0419 32.0171 58.3486 31.7116C57.6553 31.406 56.887 31.3128 56.1407 31.4438C55.1418 31.6235 54.2544 32.1905 53.6718 33.0214C53.0891 33.8522 52.8584 34.8796 53.03 35.8797Z" fill="#211E1F"/>
<path d="M28.4551 36.5672C28.587 37.3137 28.9375 38.0043 29.4622 38.5515C29.9869 39.0988 30.6622 39.4781 31.4027 39.6414C32.1431 39.8046 32.9154 39.7446 33.6217 39.4688C34.328 39.193 34.9365 38.7139 35.3703 38.0921C35.804 37.4703 36.0434 36.7338 36.0583 35.9759C36.0731 35.218 35.8626 34.4727 35.4535 33.8344C35.0444 33.1962 34.455 32.6936 33.7601 32.3904C33.0651 32.0873 32.2957 31.9971 31.5495 32.1313C30.5515 32.3108 29.6655 32.8785 29.0855 33.71C28.5055 34.5415 28.2788 35.5689 28.4551 36.5672Z" fill="#211E1F"/>
<path d="M47.3653 39.5626C47.3837 40.0478 47.2882 40.5305 47.0865 40.9722C46.8848 41.4138 46.5825 41.8021 46.2037 42.106C45.825 42.4099 45.3804 42.6209 44.9055 42.7221C44.4305 42.8234 43.9385 42.812 43.4687 42.689C42.847 42.4749 42.3002 42.0862 41.8937 41.5695C41.4872 41.0528 41.2382 40.4299 41.1765 39.7754" stroke="#211E1F" stroke-width="1.2" stroke-linecap="round" stroke-linejoin="round"/>
<path d="M15.2427 53.4922C18.8079 55.6015 22.6256 57.2515 26.6051 58.4027C33.5404 60.2766 40.7063 61.1584 47.8891 61.0217C50.5251 61.0217 53.0464 60.9235 55.4695 60.727C61.8161 60.3113 68.0639 58.9428 74.003 56.6676C73.9553 54.719 73.8077 52.774 73.5609 50.8405C73.569 50.7206 73.569 50.6003 73.5609 50.4804C66.6027 53.5904 58.171 55.0963 47.9055 55.129C41.2768 55.2598 34.6627 54.4553 28.2587 52.7392C23.7954 51.4865 19.5692 49.5066 15.7502 46.8793C15.4472 49.0712 15.2777 51.2796 15.2427 53.4922Z" fill="#211E1F"/>
<path d="M15.5046 59.483V59.6631C15.6356 60.8089 15.7993 61.9711 16.0122 63.1332C16.225 64.2954 16.4706 65.5067 16.7817 66.6688C23.1648 69.2702 29.8941 70.9246 36.7559 71.5794C43.2748 72.3649 49.8543 72.5184 56.4027 72.0377C61.8593 71.6193 67.2519 70.5926 72.4803 68.9767C72.4803 68.7803 72.595 68.5839 72.6605 68.4039C73.2256 66.4082 73.6038 64.3642 73.7902 62.2984C63.6066 66.1614 51.3601 67.3235 37.3617 65.7358C28.2587 64.5573 21.1367 62.5603 15.5046 59.483Z" fill="#211E1F"/>
<path d="M18.3206 71.0883C18.4515 71.432 18.5989 71.7594 18.7463 72.0704C19.531 73.7642 20.5326 75.3488 21.726 76.7845C22.5907 77.8096 23.5381 78.7622 24.5584 79.6326C28.7815 80.749 33.0835 81.5424 37.4271 82.0061C43.9459 82.7928 50.5255 82.9463 57.0739 82.4644C58.7111 82.3334 60.3484 82.1533 61.9856 81.9242C63.1466 81.3281 64.2438 80.6151 65.2601 79.7963C67.225 78.226 68.8891 76.3127 70.1718 74.1492C59.6933 76.9475 48.7623 77.6319 38.0165 76.1625C31.2158 75.571 24.5602 73.8563 18.3206 71.0883Z" fill="#211E1F"/>
<path d="M34.7257 16.745C34.0832 13.4846 32.7307 10.4056 30.7642 7.72667C28.7976 5.0477 26.2653 2.83445 23.3469 1.24402" stroke="#211E1F" stroke-width="0.6" stroke-linecap="round" stroke-linejoin="round"/>
<path d="M20.7275 2.78264C20.7508 3.30703 20.9292 3.81275 21.2402 4.23566C21.5512 4.65858 21.9807 4.97968 22.4744 5.15834C22.9681 5.337 23.5037 5.36518 24.0134 5.23926C24.5231 5.11334 24.984 4.839 25.3376 4.45101C25.6913 4.06302 25.9217 3.57884 25.9999 3.05978C26.0781 2.54072 26.0004 2.01016 25.7767 1.53527C25.553 1.06039 25.1934 0.662543 24.7434 0.392158C24.2934 0.121772 23.7732 -0.00899016 23.2488 0.0164141C22.5481 0.0503613 21.8893 0.360489 21.4167 0.878946C20.9442 1.3974 20.6963 2.08191 20.7275 2.78264Z" fill="#211E1F"/>
</g>
<defs>
<clipPath id="clip0_378_1836">
<rect width="89" height="86" fill="white"/>
</clipPath>
</defs>
</svg>
