<svg width="131" height="131" viewBox="0 0 131 131" fill="none" xmlns="http://www.w3.org/2000/svg">
<rect width="131" height="131" rx="20" fill="#DBEEE9"/>
<path d="M60.7895 60.1787H14.2105V104.995H60.7895V60.1787Z" fill="#A26B14"/>
<path d="M67 52H8V60.1787H67V52Z" fill="#583412"/>
<path d="M17.0984 104.995H14.2105V120H17.0984V104.995Z" fill="#583412"/>
<path d="M60.7895 104.995H57.9016V120H60.7895V104.995Z" fill="#583412"/>
<path d="M60.7895 73.1024H14.2105V83.3518H60.7895V73.1024Z" fill="#A26B14"/>
<path d="M60.7895 60.1787H14.2105V62.8529H60.7895V60.1787Z" fill="#905D14"/>
<path d="M60.7895 92.8312H14.2105V103.081H60.7895V92.8312Z" fill="#B47812"/>
<path d="M60.7895 62.8529H14.2105V73.1023H60.7895V62.8529Z" fill="#B47812"/>
<path d="M41.04 75.9014C41.04 76.6053 40.8324 77.2933 40.4434 77.8785C40.0544 78.4637 39.5016 78.9199 38.8547 79.1892C38.2079 79.4586 37.4961 79.529 36.8094 79.3917C36.1227 79.2544 35.4919 78.9155 34.9969 78.4178C34.5018 77.9201 34.1646 77.286 34.028 76.5957C33.8915 75.9054 33.9616 75.1899 34.2295 74.5396C34.4974 73.8893 34.9511 73.3335 35.5333 72.9425C36.1154 72.5515 36.7999 72.3428 37.5 72.3428C38.4389 72.3428 39.3393 72.7177 40.0032 73.385C40.6671 74.0524 41.04 74.9576 41.04 75.9014V75.9014Z" fill="#583412"/>
<path d="M60.7895 82.5922H14.2105V92.8416H60.7895V82.5922Z" fill="#905D14"/>
<path d="M55.9142 96.4419H19.0858V99.4803H55.9142V96.4419Z" fill="#A26B14"/>
<g clip-path="url(#clip0_358_1517)">
<path d="M118.47 60.97H78.43V106.05H118.47V60.97Z" fill="#A26A00"/>
<path d="M88.44 60.97H78.43V106.05H88.44V60.97Z" fill="#905C00"/>
<path d="M82.98 60.97H78.43V106.05H82.98V60.97Z" fill="#7E4E00"/>
<path d="M118.47 60.97H98.45V106.05H118.47V60.97Z" fill="#BB8000"/>
<path d="M98.45 65.85C98.45 63.74 98.83 66.25 99.45 65.85C99.8708 65.6059 100.349 65.4773 100.835 65.4773C101.321 65.4773 101.799 65.6059 102.22 65.85C102.81 65.5533 103.43 65.3219 104.07 65.16C104.73 65.04 105.42 64.24 106.14 65.85C106.85 65.92 107.59 66.5 108.34 66.03C109.1 66.03 109.86 65.92 110.62 65.85C111.327 65.5008 112.112 65.339 112.9 65.38C113.66 65.54 114.4 64.89 115.11 65.85C115.83 65.36 116.52 66.08 117.18 65.49C117.84 67.13 118.45 65.14 119.03 65.85C119.6 65.56 120.13 65.85 120.59 65.85H122.85C122.85 65.85 105.67 29.97 98.45 29.97C91.23 29.97 74 65.82 74 65.82H75.05C75.2261 65.6281 75.4402 65.4749 75.6786 65.3701C75.917 65.2654 76.1746 65.2113 76.435 65.2113C76.6954 65.2113 76.953 65.2654 77.1914 65.3701C77.4299 65.4749 77.6439 65.6281 77.82 65.82C78.97 67.02 80.31 64.18 81.74 65.82C83.17 67.46 84.74 66.7 86.23 65.82C87.76 65.4 89.23 67.51 90.72 65.82C92.15 67.43 93.49 65.69 94.63 65.82C95.78 69.33 96.73 65.26 97.4 65.82C98.07 67.09 98.45 66.97 98.45 65.85Z" fill="#FFBE00"/>
<path d="M101.16 80.1299C101.162 80.6664 101.005 81.1913 100.708 81.6382C100.412 82.0852 99.989 82.4341 99.494 82.6408C98.999 82.8474 98.4538 82.9025 97.9275 82.7991C97.4011 82.6956 96.9173 82.4384 96.5373 82.0598C96.1573 81.6812 95.8982 81.1983 95.7928 80.6723C95.6875 80.1464 95.7405 79.601 95.9453 79.1052C96.1502 78.6094 96.4975 78.1856 96.9434 77.8874C97.3892 77.5891 97.9136 77.4299 98.45 77.4299C99.167 77.4299 99.8548 77.7141 100.363 78.2202C100.871 78.7262 101.157 79.4129 101.16 80.1299V80.1299Z" fill="#5A3200"/>
<path d="M84.34 106.05H81.63V120H84.34V106.05Z" fill="#5A3200"/>
<path d="M115.27 106.05H112.56V120H115.27V106.05Z" fill="#5A3200"/>
<path d="M118.46 60.97H108.45V106.05H118.46V60.97Z" fill="#B47800"/>
<path d="M118.46 60.97H113.91V106.05H118.46V60.97Z" fill="#A26A00"/>
<path d="M99.5 65.85C99.9207 65.6059 100.399 65.4773 100.885 65.4773C101.371 65.4773 101.849 65.6059 102.27 65.85C102.86 65.5533 103.48 65.3219 104.12 65.16C104.78 65.04 105.47 64.24 106.19 65.85C106.9 65.92 107.64 66.5 108.39 66.03C109.15 66.03 109.91 65.92 110.67 65.85C111.377 65.5008 112.162 65.339 112.95 65.38C113.71 65.54 114.45 64.89 115.16 65.85C115.88 65.36 116.57 66.08 117.23 65.49C117.89 67.13 118.5 65.14 119.08 65.85C119.65 65.56 120.18 65.85 120.64 65.85H122.9C122.9 65.85 105.67 29.97 98.45 29.97V65.82C98.45 63.74 98.83 66.25 99.5 65.85Z" fill="#FFCD00"/>
</g>
<defs>
<clipPath id="clip0_358_1517">
<rect width="48.9" height="90" fill="white" transform="translate(74 30)"/>
</clipPath>
</defs>
</svg>
