<svg width="72" height="29" viewBox="0 0 72 29" fill="none" xmlns="http://www.w3.org/2000/svg">
<path fill-rule="evenodd" clip-rule="evenodd" d="M33.2067 22.6842V14.1737H37.6971C39.5371 14.1737 41.0902 13.5706 42.3563 12.3811L42.6602 12.0795C44.9729 9.61685 44.821 5.78041 42.3563 3.50199C41.124 2.29577 39.4358 1.6424 37.6971 1.67591H30.4888V22.6842H33.2067ZM33.207 11.5935V4.25569H37.7657C38.745 4.25569 39.6736 4.62426 40.3658 5.29438C41.8347 6.70164 41.8685 9.04706 40.4502 10.5046C39.758 11.225 38.7787 11.627 37.7657 11.5935H33.207ZM55.3381 9.43244C54.1733 8.377 52.5864 7.8409 50.5776 7.8409C47.9947 7.8409 46.0534 8.77907 44.7704 10.6387L47.1675 12.1297C48.0454 10.8564 49.2439 10.2198 50.7633 10.2198C51.7255 10.2198 52.654 10.5716 53.3799 11.2083C54.0889 11.8114 54.494 12.6825 54.494 13.6039V14.2238C53.4474 13.6542 52.1306 13.3527 50.51 13.3527C48.6193 13.3527 47.1 13.7882 45.969 14.6761C44.8379 15.5641 44.264 16.7368 44.264 18.2278C44.2302 19.5848 44.8211 20.8748 45.8677 21.7459C46.9312 22.6841 48.2817 23.1532 49.8686 23.1532C51.7424 23.1532 53.2279 22.3323 54.359 20.6905H54.4771V22.6841H57.0769V13.8217C57.0769 11.9621 56.5029 10.4879 55.3381 9.43244ZM47.9614 20.0372C47.4043 19.6351 47.0666 18.9817 47.0666 18.2781C47.0666 17.4907 47.438 16.8374 48.164 16.318C48.9069 15.7987 49.8356 15.5306 50.933 15.5306C52.4526 15.5139 53.6344 15.8489 54.4786 16.519C54.4786 17.6583 54.0228 18.6467 53.1279 19.4843C52.3175 20.2885 51.22 20.7408 50.0719 20.7408C49.3122 20.7576 48.5693 20.5063 47.9614 20.0372ZM62.9178 29L72 8.30996H69.0457L64.8423 18.6298H64.7917L60.4869 8.30996H57.5327L63.4918 21.7627L60.1155 29H62.9178Z" fill="#3C4043"/>
<path d="M23.8237 12.331C23.8237 11.5101 23.7561 10.6892 23.6211 9.88501H12.1587V14.5256H18.7255C18.4554 16.0166 17.5776 17.3569 16.2946 18.1945V21.2101H20.2111C22.5069 19.1159 23.8237 16.0166 23.8237 12.331Z" fill="#4285F4"/>
<path d="M12.1591 24.1252C15.4341 24.1252 18.2026 23.053 20.2115 21.2101L16.295 18.1946C15.1977 18.9317 13.7966 19.3505 12.1591 19.3505C8.98543 19.3505 6.3013 17.2229 5.33907 14.3749H1.30444V17.4909C3.36396 21.5619 7.5674 24.1252 12.1591 24.1252Z" fill="#34A853"/>
<path d="M5.33955 14.3749C4.83303 12.8839 4.83303 11.2588 5.33955 9.75105V6.65173H1.30429C-0.434762 10.0526 -0.434762 14.0733 1.30429 17.4742L5.33955 14.3749Z" fill="#FBBC04"/>
<path d="M12.1591 4.77535C13.8979 4.74184 15.5691 5.39521 16.8183 6.58468L20.2959 3.13355C18.0844 1.08968 15.1809 -0.032777 12.1591 0.000729109C7.5674 0.000729109 3.36396 2.5807 1.30444 6.65169L5.33907 9.76776C6.3013 6.90299 8.98542 4.77535 12.1591 4.77535Z" fill="#EA4335"/>
</svg>
