<svg width="28" height="28" viewBox="0 0 28 28" fill="none" xmlns="http://www.w3.org/2000/svg">
<path d="M16.4748 16.1918L17.0052 15.6614L17.0052 15.6614L16.4748 16.1918ZM4.0833 17.5H3.3333H4.0833ZM4.34869 21.5403L5.0919 21.4397L4.34869 21.5403ZM23.6512 21.5403L22.908 21.4397L23.6512 21.5403ZM12.4804 4.36433L12.8729 5.0034L12.4804 4.36433ZM15.5195 4.36433L15.9121 3.72526V3.72526L15.5195 4.36433ZM21.5115 22.5833H19.8333V24.0833H21.5115V22.5833ZM18.25 21V18.6666H16.75V21H18.25ZM18.25 18.6666C18.25 17.5395 17.8022 16.4585 17.0052 15.6614L15.9445 16.7221C16.4602 17.2378 16.75 17.9373 16.75 18.6666H18.25ZM17.0052 15.6614C16.2081 14.8644 15.1271 14.4166 14 14.4166V15.9166C14.7293 15.9166 15.4288 16.2064 15.9445 16.7221L17.0052 15.6614ZM14 14.4166C12.8728 14.4166 11.7918 14.8644 10.9948 15.6614L12.0554 16.7221C12.5711 16.2064 13.2706 15.9166 14 15.9166V14.4166ZM10.9948 15.6614C10.1977 16.4585 9.74996 17.5395 9.74996 18.6666H11.25C11.25 17.9373 11.5397 17.2378 12.0554 16.7221L10.9948 15.6614ZM9.74996 18.6666V21H11.25V18.6666H9.74996ZM8.16663 22.5833H6.48844V24.0833H8.16663V22.5833ZM12.0879 3.72526C10.7724 4.53325 8.81467 5.8746 7.05296 7.63631L8.11362 8.69697C9.76172 7.04887 11.6124 5.77767 12.8729 5.0034L12.0879 3.72526ZM20.947 7.63631C19.1852 5.8746 17.2275 4.53325 15.9121 3.72526L15.127 5.0034C16.3875 5.77767 18.2382 7.04887 19.8863 8.69697L20.947 7.63631ZM5.0919 21.4397C4.95913 20.4592 4.8333 19.1061 4.8333 17.5H3.3333C3.3333 19.1834 3.46511 20.6046 3.60547 21.641L5.0919 21.4397ZM23.1666 17.5C23.1666 19.1061 23.0408 20.4593 22.908 21.4397L24.3944 21.641C24.5348 20.6046 24.6666 19.1834 24.6666 17.5H23.1666ZM7.05296 7.63631C5.14765 9.54161 4.18537 11.1059 3.72642 12.6994C3.27716 14.2593 3.3333 15.7959 3.3333 17.5H4.8333C4.8333 15.704 4.7912 14.4222 5.16782 13.1145C5.53475 11.8405 6.32246 10.4881 8.11362 8.69697L7.05296 7.63631ZM24.6666 17.5C24.6666 15.7959 24.7228 14.2593 24.2735 12.6994C23.8145 11.1059 22.8522 9.5416 20.947 7.63631L19.8863 8.69697C21.6774 10.4881 22.4652 11.8405 22.8321 13.1145C23.2087 14.4222 23.1666 15.704 23.1666 17.5H24.6666ZM6.48844 22.5833C5.75389 22.5833 5.18014 22.0912 5.0919 21.4397L3.60547 21.641C3.80462 23.1114 5.0816 24.0833 6.48844 24.0833V22.5833ZM9.74996 21C9.74996 21.8744 9.04108 22.5833 8.16663 22.5833V24.0833C9.8695 24.0833 11.25 22.7029 11.25 21H9.74996ZM19.8333 22.5833C18.9588 22.5833 18.25 21.8744 18.25 21H16.75C16.75 22.7029 18.1304 24.0833 19.8333 24.0833V22.5833ZM21.5115 24.0833C22.9183 24.0833 24.1953 23.1114 24.3944 21.641L22.908 21.4397C22.8198 22.0912 22.246 22.5833 21.5115 22.5833V24.0833ZM12.8729 5.0034C13.5709 4.57471 14.4291 4.57471 15.127 5.0034L15.9121 3.72526C14.7326 3.00076 13.2674 3.00076 12.0879 3.72526L12.8729 5.0034Z" fill="#FCBD0C"/>
</svg>
