<svg width="32" height="48" viewBox="0 0 32 48" fill="none" xmlns="http://www.w3.org/2000/svg">
<path d="M16 0C7.16166 0 0 7.23404 0 16.1578C0 25.0816 16 48 16 48C16 48 32 25.0816 32 16.1578C32 7.23404 24.8384 0 16 0ZM16 27.7128C13.7366 27.7137 11.5238 27.0366 9.64143 25.7673C7.75911 24.4979 6.29186 22.6933 5.42529 20.5817C4.55872 18.4702 4.33177 16.1465 4.77313 13.9046C5.21449 11.6627 6.30434 9.60342 7.90482 7.98716C9.5053 6.37089 11.5445 5.27029 13.7645 4.82458C15.9844 4.37886 18.2854 4.60806 20.3764 5.48318C22.4674 6.35829 24.2544 7.84001 25.5113 9.7409C26.7683 11.6418 27.4387 13.8764 27.4379 16.1622C27.4379 19.2256 26.2328 22.1636 24.0878 24.3297C21.9428 26.4959 19.0335 27.7128 16 27.7128Z" fill="#583412"/>
</svg>
