<svg width="53" height="40" viewBox="0 0 53 40" fill="none" xmlns="http://www.w3.org/2000/svg">
<path fill-rule="evenodd" clip-rule="evenodd" d="M14.9716 35.6617V37.7776V39.8936H14.0261V39.3798C13.7261 39.7608 13.2711 40 12.6525 40C11.4331 40 10.4771 39.0707 10.4771 37.7776C10.4771 36.4856 11.4331 35.5553 12.6525 35.5553C13.2711 35.5553 13.7261 35.7944 14.0261 36.1755V35.6617H14.9716ZM12.7701 36.4227C11.9516 36.4227 11.4507 37.0338 11.4507 37.7776C11.4507 38.5214 11.9516 39.1325 12.7701 39.1325C13.5522 39.1325 14.0802 38.5478 14.0802 37.7776C14.0802 37.0074 13.5522 36.4227 12.7701 36.4227ZM46.9247 37.7776C46.9247 37.0338 47.4256 36.4227 48.2441 36.4227C49.0272 36.4227 49.5541 37.0074 49.5541 37.7776C49.5541 38.5478 49.0272 39.1325 48.2441 39.1325C47.4256 39.1325 46.9247 38.5214 46.9247 37.7776ZM50.4466 33.9622V37.7776V39.8936H49.5V39.3798C49.2001 39.7608 48.745 40 48.1264 40C46.907 40 45.951 39.0707 45.951 37.7776C45.951 36.4856 46.907 35.5553 48.1264 35.5553C48.745 35.5553 49.2001 35.7944 49.5 36.1755V33.9622H50.4466ZM26.7088 36.3791C27.318 36.3791 27.7095 36.7511 27.8095 37.4057H25.5529C25.6539 36.7946 26.035 36.3791 26.7088 36.3791ZM24.5615 37.7776C24.5615 36.4582 25.4529 35.5553 26.7275 35.5553C27.9459 35.5553 28.7831 36.4582 28.7925 37.7776C28.7925 37.9013 28.7831 38.0168 28.7738 38.1313H25.5445C25.6809 38.8934 26.236 39.168 26.8452 39.168C27.2815 39.168 27.746 39.0079 28.1104 38.7252L28.5738 39.4072C28.0459 39.8409 27.446 40 26.791 40C25.4893 40 24.5615 39.1234 24.5615 37.7776ZM38.145 37.7776C38.145 37.0338 38.6459 36.4227 39.4644 36.4227C40.2465 36.4227 40.7744 37.0074 40.7744 37.7776C40.7744 38.5478 40.2465 39.1325 39.4644 39.1325C38.6459 39.1325 38.145 38.5214 38.145 37.7776ZM41.6659 35.6617V37.7776V39.8936H40.7203V39.3798C40.4193 39.7608 39.9653 40 39.3467 40C38.1273 40 37.1713 39.0707 37.1713 37.7776C37.1713 36.4856 38.1273 35.5553 39.3467 35.5553C39.9653 35.5553 40.4193 35.7944 40.7203 36.1755V35.6617H41.6659ZM32.8048 37.7776C32.8048 39.0616 33.7233 40 35.125 40C35.78 40 36.2163 39.8581 36.6891 39.4953L36.2351 38.7515C35.88 38.9998 35.5072 39.1325 35.0969 39.1325C34.3419 39.1234 33.7868 38.5924 33.7868 37.7776C33.7868 36.9629 34.3419 36.4318 35.0969 36.4227C35.5072 36.4227 35.88 36.5555 36.2351 36.8038L36.6891 36.0599C36.2163 35.6971 35.78 35.5553 35.125 35.5553C33.7233 35.5553 32.8048 36.4937 32.8048 37.7776ZM43.8494 36.1755C44.0952 35.8035 44.4503 35.5553 44.9959 35.5553C45.1876 35.5553 45.4604 35.5907 45.6697 35.6708L45.3781 36.5383C45.1782 36.4582 44.9782 36.4319 44.7866 36.4319C44.1681 36.4319 43.8588 36.821 43.8588 37.5212V39.8936H42.9122V35.6617H43.8494V36.1755ZM19.6483 35.9981C19.1932 35.7063 18.5663 35.5553 17.8748 35.5553C16.7731 35.5553 16.0639 36.069 16.0639 36.9102C16.0639 37.6003 16.5919 38.0259 17.5645 38.1587L18.0113 38.2205C18.5299 38.2914 18.7746 38.4242 18.7746 38.6633C18.7746 38.9907 18.4288 39.1771 17.7832 39.1771C17.1282 39.1771 16.6554 38.9734 16.3368 38.7343L15.8911 39.4507C16.4096 39.8227 17.0647 40 17.7738 40C19.0297 40 19.7576 39.4244 19.7576 38.6187C19.7576 37.8749 19.1849 37.4858 18.2383 37.353L17.7926 37.2902C17.3833 37.2375 17.0553 37.1584 17.0553 36.8747C17.0553 36.5646 17.3646 36.3791 17.8832 36.3791C18.4382 36.3791 18.9756 36.5828 19.239 36.7419L19.6483 35.9981ZM30.7034 36.1755C30.9481 35.8035 31.3032 35.5553 31.8489 35.5553C32.0405 35.5553 32.3134 35.5907 32.5227 35.6708L32.2311 36.5383C32.0312 36.4582 31.8312 36.4319 31.6396 36.4319C31.021 36.4319 30.7118 36.821 30.7118 37.5212V39.8936H29.7662V35.6617H30.7034V36.1755ZM23.7793 35.6617H22.2328V34.3777H21.2769V35.6617H20.3948V36.5028H21.2769V38.4333C21.2769 39.4153 21.6684 40 22.7868 40C23.1971 40 23.6699 39.8764 23.9698 39.6727L23.697 38.8843C23.4148 39.0434 23.1055 39.1234 22.8597 39.1234C22.387 39.1234 22.2328 38.8397 22.2328 38.4151V36.5028H23.7793V35.6617ZM9.64082 37.2375V39.8936H8.68485V37.5385C8.68485 36.821 8.37557 36.4227 7.72992 36.4227C7.10198 36.4227 6.66566 36.8129 6.66566 37.5476V39.8936H5.70969V37.5385C5.70969 36.821 5.39207 36.4227 4.76413 36.4227C4.11745 36.4227 3.69882 36.8129 3.69882 37.5476L3.69882 39.8936H2.7439L2.7439 35.6617H3.69049V36.1836C4.0456 35.688 4.49963 35.5553 4.96407 35.5553C5.62846 35.5553 6.10124 35.839 6.40115 36.3082C6.80207 35.7144 7.37482 35.5461 7.92987 35.5553C8.9858 35.5644 9.64082 36.2373 9.64082 37.2375Z" fill="#231F20"/>
<path d="M33.6662 28.4707H19.335V3.40747H33.6662V28.4707Z" fill="#FF5F00"/>
<path d="M20.244 15.9396C20.244 10.8554 22.6902 6.32659 26.4995 3.40802C23.7138 1.27382 20.1982 -1.14441e-05 16.3775 -1.14441e-05C7.33221 -1.14441e-05 0 7.13629 0 15.9396C0 24.743 7.33221 31.8793 16.3775 31.8793C20.1982 31.8793 23.7138 30.6054 26.4995 28.4712C22.6902 25.5527 20.244 21.0238 20.244 15.9396Z" fill="#EB001B"/>
<path d="M53 15.9396C53 24.743 45.6678 31.8793 36.6226 31.8793C32.8018 31.8793 29.2862 30.6054 26.4995 28.4712C30.3098 25.5527 32.756 21.0238 32.756 15.9396C32.756 10.8554 30.3098 6.32659 26.4995 3.40802C29.2862 1.27382 32.8018 -1.14441e-05 36.6226 -1.14441e-05C45.6678 -1.14441e-05 53 7.13629 53 15.9396Z" fill="#F79E1B"/>
</svg>
