<svg width="71" height="73" viewBox="0 0 71 73" fill="none" xmlns="http://www.w3.org/2000/svg">
<g clip-path="url(#clip0_361_2676)">
<path d="M8.11106 23.3176C6.87543 23.1157 5.60982 23.2052 4.41484 23.5792H4.31033C3.93357 23.6979 3.57022 23.8557 3.22623 24.05C2.58515 24.3843 2.00636 24.8267 1.51524 25.3578L1.4238 25.4493C0.543927 26.4187 0.0390558 27.671 0.000186357 28.9803V29.0718C-0.00462215 29.6361 0.0836544 30.1973 0.261424 30.7327C0.250441 30.7667 0.250441 30.8033 0.261424 30.8373C0.465475 31.4587 0.799418 32.0293 1.241 32.5113C1.78275 33.041 2.40415 33.4823 3.08258 33.8191C4.31485 34.4922 5.63313 34.9938 7.0009 35.3099L7.23599 35.3753C10.401 36.0156 13.6762 35.8447 16.7575 34.8784C16.4571 34.5906 16.1567 34.2899 15.8693 33.976L15.8171 33.9891C14.7585 32.864 13.7684 31.6761 12.8522 30.4319C12.8102 30.3897 12.775 30.3412 12.7478 30.2881C12.208 29.5732 11.6985 28.8408 11.2196 28.091L11.1021 27.921C10.658 27.2279 10.2401 26.5478 9.79599 25.8416C9.34221 24.9329 8.7761 24.085 8.11106 23.3176Z" fill="#EAF6FE"/>
<path d="M62.3144 19.6035C63.5251 19.2773 64.7949 19.237 66.0238 19.4858H66.1283C66.5151 19.5758 66.8949 19.6938 67.2646 19.8389C67.9333 20.1248 68.5509 20.5179 69.0931 21.0028L69.1976 21.0813C69.8639 21.7033 70.3741 22.474 70.6866 23.3307C70.83 23.6954 70.9223 24.0783 70.9609 24.4684C70.9672 24.4986 70.9672 24.5298 70.9609 24.56C71.0286 25.1234 70.9977 25.6942 70.8695 26.247C70.8695 26.247 70.8695 26.3124 70.8695 26.3516C70.7146 26.9888 70.4349 27.5889 70.0466 28.1171C69.5726 28.7162 69.0033 29.2331 68.3617 29.6472C67.1881 30.4516 65.9091 31.0897 64.561 31.5435L64.339 31.622C61.2558 32.5818 57.98 32.7438 54.8174 32.0927C55.096 31.7702 55.3573 31.4432 55.6011 31.1119L55.6795 31.0073C56.626 29.7835 57.4983 28.504 58.2917 27.1755C58.3143 27.123 58.3452 27.0744 58.3831 27.0317C58.8272 26.2601 59.2713 25.4754 59.6892 24.6777L59.7806 24.4946C60.1463 23.7753 60.499 23.0429 60.8255 22.2975C61.2019 21.3381 61.7024 20.4324 62.3144 19.6035Z" fill="#EAF6FE"/>
<path d="M37.4461 68.0828L34.9384 73C33.9849 71.5483 33.0968 70.0575 32.3262 68.5405C34.1025 68.5013 37.2894 68.1351 37.4461 68.0828Z" fill="#211E1F"/>
<path d="M39.3267 12.3323C40.24 9.84201 41.6893 7.5834 43.5717 5.7166C45.4542 3.8498 47.7239 2.42051 50.2196 1.53003" stroke="#211E1F" stroke-width="0.6" stroke-linecap="round" stroke-linejoin="round"/>
<path d="M52.0744 3.06012C51.9908 3.47093 51.7874 3.84767 51.4898 4.14264C51.1923 4.43762 50.8141 4.63757 50.403 4.71719C49.9919 4.79681 49.5664 4.75251 49.1805 4.58992C48.7945 4.42732 48.4655 4.15372 48.2349 3.80377C48.0044 3.45381 47.8827 3.04322 47.8853 2.62398C47.8879 2.20475 48.0146 1.79573 48.2495 1.44867C48.4844 1.10161 48.8169 0.832124 49.2048 0.674335C49.5927 0.516547 50.0186 0.477542 50.4287 0.562268C50.9774 0.675634 51.4588 1.00224 51.7673 1.4705C52.0759 1.93876 52.1863 2.51045 52.0744 3.06012Z" fill="#211E1F"/>
<path d="M12.3821 47.4722V47.603C12.4866 48.5315 12.6172 49.46 12.787 50.3886C12.9567 51.3171 13.1527 52.2848 13.3878 53.2134C13.7099 54.4343 14.1158 55.6316 14.6025 56.7966C14.7066 57.064 14.8244 57.3259 14.9551 57.5813C15.5733 58.9349 16.373 60.1976 17.3322 61.3346C18.0071 62.1629 18.7594 62.9248 19.5787 63.6101C27.2848 70.149 40.1108 69.9267 48.9139 65.7418L49.4625 65.4541C50.3842 64.9701 51.2587 64.401 52.0747 63.754C53.6354 62.4923 54.9618 60.965 55.993 59.2422C56.3557 58.6295 56.6828 57.9963 56.9726 57.3459C57.3084 56.5829 57.6006 55.8013 57.8477 55.005C57.8477 54.8481 57.9391 54.6911 57.9783 54.5342C58.4488 52.9514 58.7637 51.3264 58.9187 49.6824C58.9187 49.2377 58.9971 48.7931 59.0232 48.3746C59.0754 47.3458 59.0754 46.3127 59.0232 45.2752C58.9894 43.7185 58.8761 42.1646 58.6836 40.6195C58.69 40.5193 58.69 40.4188 58.6836 40.3187C58.6836 40.1094 58.6836 39.8871 58.6052 39.6648C57.6779 32.7205 55.7971 25.1747 51.4869 19.5251C50.4172 18.1181 49.1604 16.8641 47.7515 15.7979C43.5488 12.7276 38.3425 11.3611 33.176 11.9723C28.0095 12.5834 23.2646 15.1271 19.8922 19.0935C16.0783 23.5268 13.7535 29.7126 12.7347 35.9769C12.6564 36.4607 12.578 36.9446 12.5257 37.4416C12.291 39.2152 12.1645 41.0014 12.147 42.7904C12.147 43.3527 12.147 43.9151 12.147 44.4905C12.2123 45.4713 12.2776 46.4783 12.3821 47.4722Z" fill="#FCBD0C"/>
<path d="M37.7859 31.6089C37.8027 31.9959 37.7285 32.3815 37.5692 32.7345C37.4099 33.0875 37.1699 33.3981 36.8686 33.6412C36.5674 33.8843 36.2133 34.0531 35.8349 34.134C35.4565 34.2148 35.0645 34.2055 34.6904 34.1067C34.1926 33.9347 33.7551 33.6222 33.4306 33.2069C33.1062 32.7915 32.9086 32.291 32.8618 31.7658" stroke="#211E1F" stroke-width="1.2" stroke-linecap="round" stroke-linejoin="round"/>
<path d="M23.5751 30.7197C23.5582 30.3326 23.6325 29.9471 23.7918 29.594C23.9511 29.241 24.191 28.9304 24.4923 28.6873C24.7935 28.4442 25.1477 28.2754 25.5261 28.1946C25.9044 28.1137 26.2965 28.123 26.6706 28.2218C27.1684 28.3938 27.6059 28.7063 27.9304 29.1217C28.2548 29.5371 28.4524 30.0375 28.4992 30.5627" stroke="#211E1F" stroke-width="1.2" stroke-linecap="round" stroke-linejoin="round"/>
<path d="M42.8664 30.9026C42.8524 30.5147 42.9288 30.1289 43.0897 29.7758C43.2505 29.4227 43.4913 29.1119 43.793 28.8682C44.0947 28.6245 44.449 28.4546 44.8278 28.3718C45.2065 28.2891 45.5993 28.2959 45.9749 28.3917C46.4719 28.5651 46.9085 28.878 47.2327 29.2931C47.5569 29.7082 47.755 30.2079 47.8034 30.7326" stroke="#211E1F" stroke-width="1.2" stroke-linecap="round" stroke-linejoin="round"/>
<path d="M12.1729 42.7381C15.0188 44.4198 18.064 45.7379 21.2372 46.6615C26.7698 48.159 32.4865 48.8635 38.2166 48.7539C40.3195 48.7539 42.3308 48.6754 44.2769 48.5185C49.3355 48.185 54.3152 47.0917 59.049 45.2752C59.0152 43.7185 58.902 42.1646 58.7095 40.6195C58.7158 40.5194 58.7158 40.4189 58.7095 40.3187C53.1716 42.8035 46.4451 44.0197 38.2558 44.0459C32.9677 44.1492 27.6915 43.5064 22.5825 42.1366C19.0211 41.1316 15.6496 39.5454 12.6038 37.4417C12.3537 39.1968 12.2098 40.9655 12.1729 42.7381Z" fill="#211E1F"/>
<path d="M12.3818 47.4722V47.603C12.4863 48.5315 12.6169 49.46 12.7867 50.3885C12.9565 51.317 13.1525 52.2848 13.3876 53.2133C18.4843 55.2916 23.8568 56.6133 29.3351 57.1366C34.5354 57.7668 39.785 57.8851 45.0084 57.4897C49.3613 57.1636 53.6638 56.3476 57.8344 55.0572C57.8344 54.9003 57.9258 54.7434 57.965 54.5865C58.4433 52.9872 58.7626 51.3445 58.9184 49.6823C50.7814 52.7687 41.0248 53.6972 29.8576 52.4286C22.5564 51.5655 16.8748 49.9831 12.3818 47.4722Z" fill="#211E1F"/>
<path d="M14.6152 56.7966C14.7194 57.064 14.837 57.3259 14.9678 57.5813C15.586 58.9349 16.3858 60.1976 17.345 61.3346C18.0199 62.1629 18.7721 62.9248 19.5915 63.6101C22.9587 64.513 26.3911 65.1514 29.8575 65.5195C35.0579 66.1471 40.3068 66.2698 45.5308 65.8857C46.8369 65.7811 48.143 65.6372 49.4491 65.4541C50.3708 64.9701 51.2454 64.401 52.0613 63.754C53.622 62.4923 54.9484 60.9649 55.9796 59.2422C47.6203 61.4776 38.9002 62.0244 30.3277 60.8507C24.903 60.3748 19.5941 59.005 14.6152 56.7966Z" fill="#211E1F"/>
<path d="M27.7026 13.3655C27.1906 10.7638 26.1132 8.30681 24.5467 6.16876C22.9802 4.03071 20.963 2.26396 18.6382 0.993896" stroke="#211E1F" stroke-width="0.6" stroke-linecap="round" stroke-linejoin="round"/>
<path d="M16.5876 2.22322C16.6062 2.64478 16.7493 3.05134 16.9988 3.39139C17.2484 3.73144 17.5931 3.98967 17.9893 4.1334C18.3856 4.27713 18.8155 4.29992 19.2246 4.19881C19.6338 4.0977 20.0038 3.87725 20.2877 3.56544C20.5716 3.25362 20.7568 2.86444 20.8197 2.4472C20.8825 2.02995 20.8203 1.60341 20.6408 1.2216C20.4614 0.839788 20.1728 0.519891 19.8117 0.302427C19.4505 0.0849619 19.033 -0.020272 18.6121 2.75981e-05C18.333 0.01176 18.0589 0.0787137 17.8058 0.197024C17.5527 0.315334 17.3255 0.482628 17.1373 0.689315C16.9491 0.896003 16.8036 1.13796 16.7092 1.40123C16.6149 1.6645 16.5736 1.94387 16.5876 2.22322Z" fill="#211E1F"/>
</g>
<defs>
<clipPath id="clip0_361_2676">
<rect width="71" height="73" fill="white"/>
</clipPath>
</defs>
</svg>
