<svg width="80" height="22" viewBox="0 0 80 22" fill="none" xmlns="http://www.w3.org/2000/svg">
<path fill-rule="evenodd" clip-rule="evenodd" d="M9.61151 0H3.38169C2.95532 0 2.59275 0.317303 2.52616 0.748563L0.00651702 17.1124C-0.043493 17.4354 0.200689 17.7264 0.520396 17.7264H3.49446C3.92083 17.7264 4.2834 17.4093 4.34999 16.9773L5.02947 12.5635C5.09504 12.1315 5.45838 11.8142 5.88398 11.8142H7.85606C11.9597 11.8142 14.328 9.77993 14.9468 5.74909C15.2254 3.98536 14.9585 2.59984 14.1522 1.62938C13.2668 0.563774 11.6964 0 9.61151 0ZM10.3299 5.97673C9.98923 8.26659 8.28124 8.26659 6.62988 8.26659H5.68964L6.34922 3.99005C6.38851 3.73156 6.60692 3.54128 6.86207 3.54128H7.29303C8.418 3.54128 9.47918 3.54128 10.0275 4.1981C10.3546 4.5899 10.4546 5.17223 10.3299 5.97673Z" fill="#28356A"/>
<path fill-rule="evenodd" clip-rule="evenodd" d="M28.3926 5.77921H25.4094C25.1552 5.77921 24.9355 5.96948 24.8965 6.22798L24.7643 7.08266L24.5559 6.77293C23.9101 5.81266 22.4697 5.4917 21.0325 5.4917C17.7356 5.4917 14.92 8.04946 14.3717 11.6373C14.0867 13.4269 14.4919 15.1383 15.4831 16.3317C16.3922 17.429 17.693 17.8864 19.2405 17.8864C21.8969 17.8864 23.3697 16.1368 23.3697 16.1368L23.2367 16.986C23.1867 17.3106 23.4309 17.6017 23.7488 17.6017H26.4358C26.8632 17.6017 27.224 17.2844 27.2914 16.8524L28.9037 6.39316C28.9547 6.07116 28.7113 5.77921 28.3926 5.77921ZM24.2341 11.727C23.9463 13.4726 22.5937 14.6446 20.8684 14.6446C20.0021 14.6446 19.3099 14.36 18.8652 13.8208C18.4243 13.2852 18.2569 12.5228 18.397 11.6736C18.6659 9.94284 20.0412 8.73244 21.7402 8.73244C22.5873 8.73244 23.276 9.02099 23.7297 9.56464C24.1841 10.1143 24.3645 10.8814 24.2341 11.727Z" fill="#28356A"/>
<path fill-rule="evenodd" clip-rule="evenodd" d="M44.0514 6.04102H41.0533C40.7673 6.04102 40.4986 6.1866 40.3366 6.43019L36.2019 12.6688L34.4492 6.67353C34.339 6.29846 34.0012 6.04102 33.6184 6.04102H30.6727C30.3145 6.04102 30.0659 6.39935 30.1797 6.74462L33.4819 16.6709L30.3775 21.1602C30.1333 21.5138 30.3793 22 30.801 22H33.7953C34.0795 22 34.3454 21.8581 34.5066 21.6194L44.4775 6.87609C44.7163 6.5235 44.4711 6.04102 44.0514 6.04102" fill="#28356A"/>
<path fill-rule="evenodd" clip-rule="evenodd" d="M54.0456 0H47.815C47.3897 0 47.0271 0.317303 46.9605 0.748563L44.4408 17.1124C44.3908 17.4354 44.635 17.7264 44.9529 17.7264H48.1503C48.447 17.7264 48.7011 17.5044 48.7476 17.202L49.4628 12.5635C49.5283 12.1315 49.8919 11.8142 50.3173 11.8142H52.2886C56.393 11.8142 58.7606 9.77993 59.3801 5.74909C59.6597 3.98536 59.391 2.59984 58.5848 1.62938C57.7001 0.563774 56.1307 0 54.0456 0ZM54.7644 5.97673C54.4246 8.26659 52.7166 8.26659 51.0642 8.26659H50.1253L50.7856 3.99005C50.8246 3.73156 51.0415 3.54128 51.2974 3.54128H51.7284C52.8523 3.54128 53.9145 3.54128 54.4629 4.1981C54.79 4.5899 54.8892 5.17223 54.7644 5.97673Z" fill="#298FC2"/>
<path fill-rule="evenodd" clip-rule="evenodd" d="M72.8224 5.77921H69.841C69.5851 5.77921 69.3674 5.96948 69.3291 6.22798L69.197 7.08266L68.9875 6.77293C68.3417 5.81266 66.9024 5.4917 65.4648 5.4917C62.1683 5.4917 59.3537 8.04946 58.8053 11.6373C58.5211 13.4269 58.9245 15.1383 59.9155 16.3317C60.8267 17.429 62.1254 17.8864 63.6731 17.8864C66.3293 17.8864 67.8023 16.1368 67.8023 16.1368L67.6694 16.986C67.6193 17.3106 67.8633 17.6017 68.1832 17.6017H70.8695C71.2948 17.6017 71.6574 17.2844 71.724 16.8524L73.3371 6.39316C73.3863 6.07116 73.1421 5.77921 72.8224 5.77921ZM68.664 11.727C68.378 13.4726 67.0234 14.6446 65.2981 14.6446C64.4336 14.6446 63.7396 14.36 63.2949 13.8208C62.8542 13.2852 62.6884 12.5228 62.8267 11.6736C63.0974 9.94284 64.4709 8.73244 66.1699 8.73244C67.017 8.73244 67.7057 9.02099 68.1594 9.56464C68.6156 10.1143 68.796 10.8814 68.664 11.727Z" fill="#298FC2"/>
<path fill-rule="evenodd" clip-rule="evenodd" d="M76.091 0.449817L73.5341 17.1132C73.4841 17.4362 73.728 17.7271 74.046 17.7271H76.6166C77.044 17.7271 77.4063 17.4101 77.4719 16.9781L79.9933 0.615003C80.0436 0.29195 79.7994 0 79.4815 0H76.6031C76.349 0.000784109 76.1303 0.191323 76.091 0.449817" fill="#298FC2"/>
</svg>
