<svg width="131" height="131" viewBox="0 0 131 131" fill="none" xmlns="http://www.w3.org/2000/svg">
<rect width="131" height="131" rx="20" fill="#FFF8F2"/>
<g clip-path="url(#clip0_358_1515)">
<path d="M66.14 73.08L60.07 69.49C61.99 68.39 63.96 67.37 65.96 66.49C65.87 68.7 66.09 72.88 66.14 73.08Z" fill="#211E1F"/>
<path d="M78.77 40.1899C77.8819 39.8349 76.9226 39.6945 75.97 39.7799H75.89C75.5891 39.8115 75.2913 39.8683 75 39.9499C74.466 40.1035 73.9622 40.347 73.51 40.67H73.44C72.8833 41.0856 72.4285 41.6225 72.11 42.2399C71.9805 42.5085 71.88 42.7901 71.81 43.0799C71.8113 43.1032 71.8113 43.1266 71.81 43.1499C71.7185 43.5735 71.6915 44.0083 71.73 44.4399C71.7257 44.4664 71.7257 44.4934 71.73 44.5199C71.786 45.0177 71.9462 45.4981 72.2 45.9299C72.5032 46.457 72.8918 46.9302 73.35 47.3299C74.1734 48.0363 75.0883 48.6283 76.07 49.0899L76.24 49.17C78.4743 50.1498 80.9201 50.5488 83.35 50.3299C83.18 50.0699 83 49.7899 82.84 49.5199C82.8211 49.4947 82.8044 49.4679 82.79 49.4399C82.1823 48.4297 81.6347 47.3846 81.15 46.3099L81.1 46.1899C80.82 45.5699 80.56 44.9299 80.32 44.2999L80.26 44.1499C80.04 43.5699 79.84 42.9799 79.65 42.3899C79.4549 41.621 79.159 40.8813 78.77 40.1899Z" fill="#EAF6FE"/>
<path d="M86.35 39.71C87.1919 39.2629 88.127 39.0197 89.08 39H89.17C89.4714 38.9984 89.7724 39.0218 90.07 39.07C90.6214 39.166 91.1523 39.3553 91.64 39.63L91.72 39.6799C92.3222 40.0277 92.8357 40.5104 93.22 41.09C93.3793 41.3413 93.5101 41.6096 93.61 41.89C93.61 41.89 93.61 41.94 93.61 41.96C93.7525 42.3684 93.8269 42.7975 93.83 43.23V43.33C93.8333 43.8301 93.7275 44.3249 93.52 44.78C93.2686 45.309 92.9306 45.7923 92.52 46.21C91.7845 46.9905 90.9429 47.6638 90.02 48.21L89.86 48.3099C87.7318 49.5542 85.3243 50.242 82.86 50.3099C83.0067 50.0233 83.1467 49.7333 83.28 49.44C83.2818 49.4133 83.2818 49.3866 83.28 49.36C83.7772 48.2887 84.2047 47.1863 84.56 46.0599C84.5643 46.0201 84.5643 45.9798 84.56 45.94C84.77 45.29 84.96 44.63 85.13 43.94V43.78C85.28 43.17 85.41 42.57 85.54 41.97C85.7079 41.1839 85.9803 40.4238 86.35 39.71Z" fill="#EAF6FE"/>
<path d="M112.51 49.59H65.43V89.93H112.51V49.59Z" fill="#FCBD0C"/>
<path d="M72.46 49.59H68.79V89.93H72.46V49.59Z" fill="#211E1F"/>
<path d="M78.54 49.59H74.87V89.93H78.54V49.59Z" fill="#211E1F"/>
<path d="M84.61 49.59H80.94V89.93H84.61V49.59Z" fill="#211E1F"/>
<path d="M99.23 62.07C99.3028 62.8381 99.6017 63.5673 100.089 64.1655C100.576 64.7636 101.23 65.2038 101.968 65.4303C102.705 65.6568 103.494 65.6594 104.233 65.4379C104.972 65.2163 105.628 64.7805 106.12 64.1856C106.611 63.5907 106.915 62.8635 106.993 62.0958C107.071 61.3282 106.919 60.5548 106.557 59.8733C106.195 59.1918 105.64 58.633 104.96 58.2675C104.281 57.902 103.508 57.7462 102.74 57.82C101.711 57.9187 100.764 58.4218 100.106 59.2186C99.4474 60.0155 99.1325 61.0411 99.23 62.07Z" fill="#211E1F"/>
<path d="M103.11 42.5H101.73V49.59H103.11V42.5Z" fill="#211E1F"/>
<path d="M104.81 43.2499C104.559 43.7207 104.175 44.1067 103.705 44.3593C103.236 44.6119 102.702 44.7197 102.171 44.6692C101.64 44.6188 101.136 44.4122 100.722 44.0756C100.309 43.739 100.004 43.2874 99.8467 42.7779C99.6894 42.2683 99.6865 41.7236 99.8384 41.2124C99.9903 40.7012 100.29 40.2464 100.7 39.9055C101.11 39.5645 101.612 39.3525 102.142 39.2964C102.673 39.2402 103.208 39.3424 103.68 39.59C103.995 39.7552 104.275 39.9812 104.502 40.2549C104.73 40.5287 104.901 40.8447 105.006 41.1849C105.111 41.525 105.148 41.8826 105.114 42.2371C105.081 42.5915 104.977 42.9357 104.81 43.2499Z" fill="#211E1F"/>
<path d="M55.64 69.76H54.14" stroke="#033333" stroke-miterlimit="10"/>
<path d="M51.61 69.76H37.66" stroke="#033333" stroke-miterlimit="10" stroke-dasharray="2.54 2.54"/>
<path d="M36.39 69.76H34.89" stroke="#033333" stroke-miterlimit="10"/>
<path d="M34.89 69.76V68.26" stroke="#033333" stroke-miterlimit="10"/>
<path d="M34.89 65.38V49.54" stroke="#033333" stroke-miterlimit="10" stroke-dasharray="2.88 2.88"/>
<path d="M34.89 48.1V46.6" stroke="#033333" stroke-miterlimit="10"/>
<path d="M34.76 47.05H33.26" stroke="#033333" stroke-miterlimit="10"/>
<path d="M30.72 47.05H16.77" stroke="#033333" stroke-miterlimit="10" stroke-dasharray="2.54 2.54"/>
<path d="M15.5 47.05H14" stroke="#033333" stroke-miterlimit="10"/>
</g>
<defs>
<clipPath id="clip0_358_1515">
<rect width="98.51" height="50.93" fill="white" transform="translate(14 39)"/>
</clipPath>
</defs>
</svg>
