<svg width="286" height="119" viewBox="0 0 286 119" fill="none" xmlns="http://www.w3.org/2000/svg">
<path d="M286 105L14 105" stroke="#333333"/>
<path d="M210.436 17.344C210.436 17.008 210.504 16.714 210.64 16.462C210.776 16.206 210.962 16.008 211.198 15.868C211.438 15.728 211.706 15.658 212.002 15.658C212.258 15.658 212.496 15.718 212.716 15.838C212.936 15.954 213.104 16.108 213.22 16.3V14.56H213.772V19H213.22V18.382C213.112 18.578 212.952 18.74 212.74 18.868C212.528 18.992 212.28 19.054 211.996 19.054C211.704 19.054 211.438 18.982 211.198 18.838C210.962 18.694 210.776 18.492 210.64 18.232C210.504 17.972 210.436 17.676 210.436 17.344ZM213.22 17.35C213.22 17.102 213.17 16.886 213.07 16.702C212.97 16.518 212.834 16.378 212.662 16.282C212.494 16.182 212.308 16.132 212.104 16.132C211.9 16.132 211.714 16.18 211.546 16.276C211.378 16.372 211.244 16.512 211.144 16.696C211.044 16.88 210.994 17.096 210.994 17.344C210.994 17.596 211.044 17.816 211.144 18.004C211.244 18.188 211.378 18.33 211.546 18.43C211.714 18.526 211.9 18.574 212.104 18.574C212.308 18.574 212.494 18.526 212.662 18.43C212.834 18.33 212.97 18.188 213.07 18.004C213.17 17.816 213.22 17.598 213.22 17.35ZM214.49 17.344C214.49 17.008 214.558 16.714 214.694 16.462C214.83 16.206 215.016 16.008 215.252 15.868C215.492 15.728 215.758 15.658 216.05 15.658C216.338 15.658 216.588 15.72 216.8 15.844C217.012 15.968 217.17 16.124 217.274 16.312V15.712H217.826V19H217.274V18.388C217.166 18.58 217.004 18.74 216.788 18.868C216.576 18.992 216.328 19.054 216.044 19.054C215.752 19.054 215.488 18.982 215.252 18.838C215.016 18.694 214.83 18.492 214.694 18.232C214.558 17.972 214.49 17.676 214.49 17.344ZM217.274 17.35C217.274 17.102 217.224 16.886 217.124 16.702C217.024 16.518 216.888 16.378 216.716 16.282C216.548 16.182 216.362 16.132 216.158 16.132C215.954 16.132 215.768 16.18 215.6 16.276C215.432 16.372 215.298 16.512 215.198 16.696C215.098 16.88 215.048 17.096 215.048 17.344C215.048 17.596 215.098 17.816 215.198 18.004C215.298 18.188 215.432 18.33 215.6 18.43C215.768 18.526 215.954 18.574 216.158 18.574C216.362 18.574 216.548 18.526 216.716 18.43C216.888 18.33 217.024 18.188 217.124 18.004C217.224 17.816 217.274 17.598 217.274 17.35ZM219.415 16.162V18.1C219.415 18.26 219.449 18.374 219.517 18.442C219.585 18.506 219.703 18.538 219.871 18.538H220.273V19H219.781C219.477 19 219.249 18.93 219.097 18.79C218.945 18.65 218.869 18.42 218.869 18.1V16.162H218.443V15.712H218.869V14.884H219.415V15.712H220.273V16.162H219.415ZM223.935 17.23C223.935 17.334 223.929 17.444 223.917 17.56H221.289C221.309 17.884 221.419 18.138 221.619 18.322C221.823 18.502 222.069 18.592 222.357 18.592C222.593 18.592 222.789 18.538 222.945 18.43C223.105 18.318 223.217 18.17 223.281 17.986H223.869C223.781 18.302 223.605 18.56 223.341 18.76C223.077 18.956 222.749 19.054 222.357 19.054C222.045 19.054 221.765 18.984 221.517 18.844C221.273 18.704 221.081 18.506 220.941 18.25C220.801 17.99 220.731 17.69 220.731 17.35C220.731 17.01 220.799 16.712 220.935 16.456C221.071 16.2 221.261 16.004 221.505 15.868C221.753 15.728 222.037 15.658 222.357 15.658C222.669 15.658 222.945 15.726 223.185 15.862C223.425 15.998 223.609 16.186 223.737 16.426C223.869 16.662 223.935 16.93 223.935 17.23ZM223.371 17.116C223.371 16.908 223.325 16.73 223.233 16.582C223.141 16.43 223.015 16.316 222.855 16.24C222.699 16.16 222.525 16.12 222.333 16.12C222.057 16.12 221.821 16.208 221.625 16.384C221.433 16.56 221.323 16.804 221.295 17.116H223.371ZM227.689 19.054C227.381 19.054 227.101 18.984 226.849 18.844C226.601 18.704 226.405 18.506 226.261 18.25C226.121 17.99 226.051 17.69 226.051 17.35C226.051 17.014 226.123 16.718 226.267 16.462C226.415 16.202 226.615 16.004 226.867 15.868C227.119 15.728 227.401 15.658 227.713 15.658C228.025 15.658 228.307 15.728 228.559 15.868C228.811 16.004 229.009 16.2 229.153 16.456C229.301 16.712 229.375 17.01 229.375 17.35C229.375 17.69 229.299 17.99 229.147 18.25C228.999 18.506 228.797 18.704 228.541 18.844C228.285 18.984 228.001 19.054 227.689 19.054ZM227.689 18.574C227.885 18.574 228.069 18.528 228.241 18.436C228.413 18.344 228.551 18.206 228.655 18.022C228.763 17.838 228.817 17.614 228.817 17.35C228.817 17.086 228.765 16.862 228.661 16.678C228.557 16.494 228.421 16.358 228.253 16.27C228.085 16.178 227.903 16.132 227.707 16.132C227.507 16.132 227.323 16.178 227.155 16.27C226.991 16.358 226.859 16.494 226.759 16.678C226.659 16.862 226.609 17.086 226.609 17.35C226.609 17.618 226.657 17.844 226.753 18.028C226.853 18.212 226.985 18.35 227.149 18.442C227.313 18.53 227.493 18.574 227.689 18.574ZM231.431 16.162H230.741V19H230.195V16.162H229.769V15.712H230.195V15.478C230.195 15.11 230.289 14.842 230.477 14.674C230.669 14.502 230.975 14.416 231.395 14.416V14.872C231.155 14.872 230.985 14.92 230.885 15.016C230.789 15.108 230.741 15.262 230.741 15.478V15.712H231.431V16.162ZM233.463 17.344C233.463 17.008 233.531 16.714 233.667 16.462C233.803 16.206 233.989 16.008 234.225 15.868C234.465 15.728 234.731 15.658 235.023 15.658C235.311 15.658 235.561 15.72 235.773 15.844C235.985 15.968 236.143 16.124 236.247 16.312V15.712H236.799V19H236.247V18.388C236.139 18.58 235.977 18.74 235.761 18.868C235.549 18.992 235.301 19.054 235.017 19.054C234.725 19.054 234.461 18.982 234.225 18.838C233.989 18.694 233.803 18.492 233.667 18.232C233.531 17.972 233.463 17.676 233.463 17.344ZM236.247 17.35C236.247 17.102 236.197 16.886 236.097 16.702C235.997 16.518 235.861 16.378 235.689 16.282C235.521 16.182 235.335 16.132 235.131 16.132C234.927 16.132 234.741 16.18 234.573 16.276C234.405 16.372 234.271 16.512 234.171 16.696C234.071 16.88 234.021 17.096 234.021 17.344C234.021 17.596 234.071 17.816 234.171 18.004C234.271 18.188 234.405 18.33 234.573 18.43C234.741 18.526 234.927 18.574 235.131 18.574C235.335 18.574 235.521 18.526 235.689 18.43C235.861 18.33 235.997 18.188 236.097 18.004C236.197 17.816 236.247 17.598 236.247 17.35ZM237.518 17.344C237.518 17.008 237.586 16.714 237.722 16.462C237.858 16.206 238.044 16.008 238.28 15.868C238.52 15.728 238.788 15.658 239.084 15.658C239.34 15.658 239.578 15.718 239.798 15.838C240.018 15.954 240.186 16.108 240.302 16.3V14.56H240.854V19H240.302V18.382C240.194 18.578 240.034 18.74 239.822 18.868C239.61 18.992 239.362 19.054 239.078 19.054C238.786 19.054 238.52 18.982 238.28 18.838C238.044 18.694 237.858 18.492 237.722 18.232C237.586 17.972 237.518 17.676 237.518 17.344ZM240.302 17.35C240.302 17.102 240.252 16.886 240.152 16.702C240.052 16.518 239.916 16.378 239.744 16.282C239.576 16.182 239.39 16.132 239.186 16.132C238.982 16.132 238.796 16.18 238.628 16.276C238.46 16.372 238.326 16.512 238.226 16.696C238.126 16.88 238.076 17.096 238.076 17.344C238.076 17.596 238.126 17.816 238.226 18.004C238.326 18.188 238.46 18.33 238.628 18.43C238.796 18.526 238.982 18.574 239.186 18.574C239.39 18.574 239.576 18.526 239.744 18.43C239.916 18.33 240.052 18.188 240.152 18.004C240.252 17.816 240.302 17.598 240.302 17.35ZM243.21 19.054C242.902 19.054 242.622 18.984 242.37 18.844C242.122 18.704 241.926 18.506 241.782 18.25C241.642 17.99 241.572 17.69 241.572 17.35C241.572 17.014 241.644 16.718 241.788 16.462C241.936 16.202 242.136 16.004 242.388 15.868C242.64 15.728 242.922 15.658 243.234 15.658C243.546 15.658 243.828 15.728 244.08 15.868C244.332 16.004 244.53 16.2 244.674 16.456C244.822 16.712 244.896 17.01 244.896 17.35C244.896 17.69 244.82 17.99 244.668 18.25C244.52 18.506 244.318 18.704 244.062 18.844C243.806 18.984 243.522 19.054 243.21 19.054ZM243.21 18.574C243.406 18.574 243.59 18.528 243.762 18.436C243.934 18.344 244.072 18.206 244.176 18.022C244.284 17.838 244.338 17.614 244.338 17.35C244.338 17.086 244.286 16.862 244.182 16.678C244.078 16.494 243.942 16.358 243.774 16.27C243.606 16.178 243.424 16.132 243.228 16.132C243.028 16.132 242.844 16.178 242.676 16.27C242.512 16.358 242.38 16.494 242.28 16.678C242.18 16.862 242.13 17.086 242.13 17.35C242.13 17.618 242.178 17.844 242.274 18.028C242.374 18.212 242.506 18.35 242.67 18.442C242.834 18.53 243.014 18.574 243.21 18.574ZM246.16 16.318C246.268 16.13 246.428 15.974 246.64 15.85C246.856 15.722 247.106 15.658 247.39 15.658C247.682 15.658 247.946 15.728 248.182 15.868C248.422 16.008 248.61 16.206 248.746 16.462C248.882 16.714 248.95 17.008 248.95 17.344C248.95 17.676 248.882 17.972 248.746 18.232C248.61 18.492 248.422 18.694 248.182 18.838C247.946 18.982 247.682 19.054 247.39 19.054C247.11 19.054 246.862 18.992 246.646 18.868C246.434 18.74 246.272 18.582 246.16 18.394V20.56H245.614V15.712H246.16V16.318ZM248.392 17.344C248.392 17.096 248.342 16.88 248.242 16.696C248.142 16.512 248.006 16.372 247.834 16.276C247.666 16.18 247.48 16.132 247.276 16.132C247.076 16.132 246.89 16.182 246.718 16.282C246.55 16.378 246.414 16.52 246.31 16.708C246.21 16.892 246.16 17.106 246.16 17.35C246.16 17.598 246.21 17.816 246.31 18.004C246.414 18.188 246.55 18.33 246.718 18.43C246.89 18.526 247.076 18.574 247.276 18.574C247.48 18.574 247.666 18.526 247.834 18.43C248.006 18.33 248.142 18.188 248.242 18.004C248.342 17.816 248.392 17.596 248.392 17.344ZM250.335 16.162V18.1C250.335 18.26 250.369 18.374 250.437 18.442C250.505 18.506 250.623 18.538 250.791 18.538H251.193V19H250.701C250.397 19 250.169 18.93 250.017 18.79C249.865 18.65 249.789 18.42 249.789 18.1V16.162H249.363V15.712H249.789V14.884H250.335V15.712H251.193V16.162H250.335ZM252.137 15.178C252.033 15.178 251.945 15.142 251.873 15.07C251.801 14.998 251.765 14.91 251.765 14.806C251.765 14.702 251.801 14.614 251.873 14.542C251.945 14.47 252.033 14.434 252.137 14.434C252.237 14.434 252.321 14.47 252.389 14.542C252.461 14.614 252.497 14.702 252.497 14.806C252.497 14.91 252.461 14.998 252.389 15.07C252.321 15.142 252.237 15.178 252.137 15.178ZM252.401 15.712V19H251.855V15.712H252.401ZM254.765 19.054C254.457 19.054 254.177 18.984 253.925 18.844C253.677 18.704 253.481 18.506 253.337 18.25C253.197 17.99 253.127 17.69 253.127 17.35C253.127 17.014 253.199 16.718 253.343 16.462C253.491 16.202 253.691 16.004 253.943 15.868C254.195 15.728 254.477 15.658 254.789 15.658C255.101 15.658 255.383 15.728 255.635 15.868C255.887 16.004 256.085 16.2 256.229 16.456C256.377 16.712 256.451 17.01 256.451 17.35C256.451 17.69 256.375 17.99 256.223 18.25C256.075 18.506 255.873 18.704 255.617 18.844C255.361 18.984 255.077 19.054 254.765 19.054ZM254.765 18.574C254.961 18.574 255.145 18.528 255.317 18.436C255.489 18.344 255.627 18.206 255.731 18.022C255.839 17.838 255.893 17.614 255.893 17.35C255.893 17.086 255.841 16.862 255.737 16.678C255.633 16.494 255.497 16.358 255.329 16.27C255.161 16.178 254.979 16.132 254.783 16.132C254.583 16.132 254.399 16.178 254.231 16.27C254.067 16.358 253.935 16.494 253.835 16.678C253.735 16.862 253.685 17.086 253.685 17.35C253.685 17.618 253.733 17.844 253.829 18.028C253.929 18.212 254.061 18.35 254.225 18.442C254.389 18.53 254.569 18.574 254.765 18.574ZM258.771 15.652C259.171 15.652 259.495 15.774 259.743 16.018C259.991 16.258 260.115 16.606 260.115 17.062V19H259.575V17.14C259.575 16.812 259.493 16.562 259.329 16.39C259.165 16.214 258.941 16.126 258.657 16.126C258.369 16.126 258.139 16.216 257.967 16.396C257.799 16.576 257.715 16.838 257.715 17.182V19H257.169V15.712H257.715V16.18C257.823 16.012 257.969 15.882 258.153 15.79C258.341 15.698 258.547 15.652 258.771 15.652ZM261.181 19.036C261.077 19.036 260.989 19 260.917 18.928C260.845 18.856 260.809 18.768 260.809 18.664C260.809 18.56 260.845 18.472 260.917 18.4C260.989 18.328 261.077 18.292 261.181 18.292C261.281 18.292 261.365 18.328 261.433 18.4C261.505 18.472 261.541 18.56 261.541 18.664C261.541 18.768 261.505 18.856 261.433 18.928C261.365 19 261.281 19.036 261.181 19.036ZM261.181 16.468C261.077 16.468 260.989 16.432 260.917 16.36C260.845 16.288 260.809 16.2 260.809 16.096C260.809 15.992 260.845 15.904 260.917 15.832C260.989 15.76 261.077 15.724 261.181 15.724C261.281 15.724 261.365 15.76 261.433 15.832C261.505 15.904 261.541 15.992 261.541 16.096C261.541 16.2 261.505 16.288 261.433 16.36C261.365 16.432 261.281 16.468 261.181 16.468ZM215.251 23.16V22.662H216.379V27H215.827V23.16H215.251ZM217.317 24.786C217.317 24.098 217.429 23.562 217.653 23.178C217.877 22.79 218.269 22.596 218.829 22.596C219.385 22.596 219.775 22.79 219.999 23.178C220.223 23.562 220.335 24.098 220.335 24.786C220.335 25.486 220.223 26.03 219.999 26.418C219.775 26.806 219.385 27 218.829 27C218.269 27 217.877 26.806 217.653 26.418C217.429 26.03 217.317 25.486 217.317 24.786ZM219.795 24.786C219.795 24.438 219.771 24.144 219.723 23.904C219.679 23.66 219.585 23.464 219.441 23.316C219.301 23.168 219.097 23.094 218.829 23.094C218.557 23.094 218.349 23.168 218.205 23.316C218.065 23.464 217.971 23.66 217.923 23.904C217.879 24.144 217.857 24.438 217.857 24.786C217.857 25.146 217.879 25.448 217.923 25.692C217.971 25.936 218.065 26.132 218.205 26.28C218.349 26.428 218.557 26.502 218.829 26.502C219.097 26.502 219.301 26.428 219.441 26.28C219.585 26.132 219.679 25.936 219.723 25.692C219.771 25.448 219.795 25.146 219.795 24.786ZM227.017 22.848V27H226.471V23.904L225.091 27H224.707L223.321 23.898V27H222.775V22.848H223.363L224.899 26.28L226.435 22.848H227.017ZM227.738 25.344C227.738 25.008 227.806 24.714 227.942 24.462C228.078 24.206 228.264 24.008 228.5 23.868C228.74 23.728 229.006 23.658 229.298 23.658C229.586 23.658 229.836 23.72 230.048 23.844C230.26 23.968 230.418 24.124 230.522 24.312V23.712H231.074V27H230.522V26.388C230.414 26.58 230.252 26.74 230.036 26.868C229.824 26.992 229.576 27.054 229.292 27.054C229 27.054 228.736 26.982 228.5 26.838C228.264 26.694 228.078 26.492 227.942 26.232C227.806 25.972 227.738 25.676 227.738 25.344ZM230.522 25.35C230.522 25.102 230.472 24.886 230.372 24.702C230.272 24.518 230.136 24.378 229.964 24.282C229.796 24.182 229.61 24.132 229.406 24.132C229.202 24.132 229.016 24.18 228.848 24.276C228.68 24.372 228.546 24.512 228.446 24.696C228.346 24.88 228.296 25.096 228.296 25.344C228.296 25.596 228.346 25.816 228.446 26.004C228.546 26.188 228.68 26.33 228.848 26.43C229.016 26.526 229.202 26.574 229.406 26.574C229.61 26.574 229.796 26.526 229.964 26.43C230.136 26.33 230.272 26.188 230.372 26.004C230.472 25.816 230.522 25.598 230.522 25.35ZM232.543 24.246C232.639 24.058 232.775 23.912 232.951 23.808C233.131 23.704 233.349 23.652 233.605 23.652V24.216H233.461C232.849 24.216 232.543 24.548 232.543 25.212V27H231.997V23.712H232.543V24.246ZM234.031 25.35C234.031 25.01 234.099 24.714 234.235 24.462C234.371 24.206 234.559 24.008 234.799 23.868C235.043 23.728 235.321 23.658 235.633 23.658C236.037 23.658 236.369 23.756 236.629 23.952C236.893 24.148 237.067 24.42 237.151 24.768H236.563C236.507 24.568 236.397 24.41 236.233 24.294C236.073 24.178 235.873 24.12 235.633 24.12C235.321 24.12 235.069 24.228 234.877 24.444C234.685 24.656 234.589 24.958 234.589 25.35C234.589 25.746 234.685 26.052 234.877 26.268C235.069 26.484 235.321 26.592 235.633 26.592C235.873 26.592 236.073 26.536 236.233 26.424C236.393 26.312 236.503 26.152 236.563 25.944H237.151C237.063 26.28 236.887 26.55 236.623 26.754C236.359 26.954 236.029 27.054 235.633 27.054C235.321 27.054 235.043 26.984 234.799 26.844C234.559 26.704 234.371 26.506 234.235 26.25C234.099 25.994 234.031 25.694 234.031 25.35ZM239.512 23.652C239.76 23.652 239.984 23.706 240.184 23.814C240.384 23.918 240.54 24.076 240.652 24.288C240.768 24.5 240.826 24.758 240.826 25.062V27H240.286V25.14C240.286 24.812 240.204 24.562 240.04 24.39C239.876 24.214 239.652 24.126 239.368 24.126C239.08 24.126 238.85 24.216 238.678 24.396C238.51 24.576 238.426 24.838 238.426 25.182V27H237.88V22.56H238.426V24.18C238.534 24.012 238.682 23.882 238.87 23.79C239.062 23.698 239.276 23.652 239.512 23.652ZM243.161 26.562C243.669 26.154 244.067 25.82 244.355 25.56C244.643 25.296 244.885 25.022 245.081 24.738C245.281 24.45 245.381 24.168 245.381 23.892C245.381 23.632 245.317 23.428 245.189 23.28C245.065 23.128 244.863 23.052 244.583 23.052C244.311 23.052 244.099 23.138 243.947 23.31C243.799 23.478 243.719 23.704 243.707 23.988H243.179C243.195 23.54 243.331 23.194 243.587 22.95C243.843 22.706 244.173 22.584 244.577 22.584C244.989 22.584 245.315 22.698 245.555 22.926C245.799 23.154 245.921 23.468 245.921 23.868C245.921 24.2 245.821 24.524 245.621 24.84C245.425 25.152 245.201 25.428 244.949 25.668C244.697 25.904 244.375 26.18 243.983 26.496H246.047V26.952H243.161V26.562ZM246.679 24.786C246.679 24.098 246.791 23.562 247.015 23.178C247.239 22.79 247.631 22.596 248.191 22.596C248.747 22.596 249.137 22.79 249.361 23.178C249.585 23.562 249.697 24.098 249.697 24.786C249.697 25.486 249.585 26.03 249.361 26.418C249.137 26.806 248.747 27 248.191 27C247.631 27 247.239 26.806 247.015 26.418C246.791 26.03 246.679 25.486 246.679 24.786ZM249.157 24.786C249.157 24.438 249.133 24.144 249.085 23.904C249.041 23.66 248.947 23.464 248.803 23.316C248.663 23.168 248.459 23.094 248.191 23.094C247.919 23.094 247.711 23.168 247.567 23.316C247.427 23.464 247.333 23.66 247.285 23.904C247.241 24.144 247.219 24.438 247.219 24.786C247.219 25.146 247.241 25.448 247.285 25.692C247.333 25.936 247.427 26.132 247.567 26.28C247.711 26.428 247.919 26.502 248.191 26.502C248.459 26.502 248.663 26.428 248.803 26.28C248.947 26.132 249.041 25.936 249.085 25.692C249.133 25.448 249.157 25.146 249.157 24.786ZM250.38 26.562C250.888 26.154 251.286 25.82 251.574 25.56C251.862 25.296 252.104 25.022 252.3 24.738C252.5 24.45 252.6 24.168 252.6 23.892C252.6 23.632 252.536 23.428 252.408 23.28C252.284 23.128 252.082 23.052 251.802 23.052C251.53 23.052 251.318 23.138 251.166 23.31C251.018 23.478 250.938 23.704 250.926 23.988H250.398C250.414 23.54 250.55 23.194 250.806 22.95C251.062 22.706 251.392 22.584 251.796 22.584C252.208 22.584 252.534 22.698 252.774 22.926C253.018 23.154 253.14 23.468 253.14 23.868C253.14 24.2 253.04 24.524 252.84 24.84C252.644 25.152 252.42 25.428 252.168 25.668C251.916 25.904 251.594 26.18 251.202 26.496H253.266V26.952H250.38V26.562ZM253.831 26.562C254.339 26.154 254.737 25.82 255.025 25.56C255.313 25.296 255.555 25.022 255.751 24.738C255.951 24.45 256.051 24.168 256.051 23.892C256.051 23.632 255.987 23.428 255.859 23.28C255.735 23.128 255.533 23.052 255.253 23.052C254.981 23.052 254.769 23.138 254.617 23.31C254.469 23.478 254.389 23.704 254.377 23.988H253.849C253.865 23.54 254.001 23.194 254.257 22.95C254.513 22.706 254.843 22.584 255.247 22.584C255.659 22.584 255.985 22.698 256.225 22.926C256.469 23.154 256.591 23.468 256.591 23.868C256.591 24.2 256.491 24.524 256.291 24.84C256.095 25.152 255.871 25.428 255.619 25.668C255.367 25.904 255.045 26.18 254.653 26.496H256.717V26.952H253.831V26.562Z" fill="#333333"/>
<path d="M267.49 110.52L264.19 118.58H263.25L264.33 115.94L262.12 110.52H263.13L264.85 114.96L266.55 110.52H267.49ZM273.405 113.05C273.405 113.223 273.395 113.407 273.375 113.6H268.995C269.028 114.14 269.211 114.563 269.545 114.87C269.885 115.17 270.295 115.32 270.775 115.32C271.168 115.32 271.495 115.23 271.755 115.05C272.021 114.863 272.208 114.617 272.315 114.31H273.295C273.148 114.837 272.855 115.267 272.415 115.6C271.975 115.927 271.428 116.09 270.775 116.09C270.255 116.09 269.788 115.973 269.375 115.74C268.968 115.507 268.648 115.177 268.415 114.75C268.181 114.317 268.065 113.817 268.065 113.25C268.065 112.683 268.178 112.187 268.405 111.76C268.631 111.333 268.948 111.007 269.355 110.78C269.768 110.547 270.241 110.43 270.775 110.43C271.295 110.43 271.755 110.543 272.155 110.77C272.555 110.997 272.861 111.31 273.075 111.71C273.295 112.103 273.405 112.55 273.405 113.05ZM272.465 112.86C272.465 112.513 272.388 112.217 272.235 111.97C272.081 111.717 271.871 111.527 271.605 111.4C271.345 111.267 271.055 111.2 270.735 111.2C270.275 111.2 269.881 111.347 269.555 111.64C269.235 111.933 269.051 112.34 269.005 112.86H272.465ZM274.266 113.24C274.266 112.68 274.379 112.19 274.606 111.77C274.833 111.343 275.143 111.013 275.536 110.78C275.936 110.547 276.379 110.43 276.866 110.43C277.346 110.43 277.763 110.533 278.116 110.74C278.469 110.947 278.733 111.207 278.906 111.52V110.52H279.826V116H278.906V114.98C278.726 115.3 278.456 115.567 278.096 115.78C277.743 115.987 277.329 116.09 276.856 116.09C276.369 116.09 275.929 115.97 275.536 115.73C275.143 115.49 274.833 115.153 274.606 114.72C274.379 114.287 274.266 113.793 274.266 113.24ZM278.906 113.25C278.906 112.837 278.823 112.477 278.656 112.17C278.489 111.863 278.263 111.63 277.976 111.47C277.696 111.303 277.386 111.22 277.046 111.22C276.706 111.22 276.396 111.3 276.116 111.46C275.836 111.62 275.613 111.853 275.446 112.16C275.279 112.467 275.196 112.827 275.196 113.24C275.196 113.66 275.279 114.027 275.446 114.34C275.613 114.647 275.836 114.883 276.116 115.05C276.396 115.21 276.706 115.29 277.046 115.29C277.386 115.29 277.696 115.21 277.976 115.05C278.263 114.883 278.489 114.647 278.656 114.34C278.823 114.027 278.906 113.663 278.906 113.25ZM282.274 111.41C282.434 111.097 282.66 110.853 282.954 110.68C283.254 110.507 283.617 110.42 284.044 110.42V111.36H283.804C282.784 111.36 282.274 111.913 282.274 113.02V116H281.364V110.52H282.274V111.41Z" fill="#333333"/>
<path d="M6.53 53.32C6.21667 53.14 5.95667 52.8733 5.75 52.52C5.53667 52.16 5.43 51.7433 5.43 51.27C5.43 50.7833 5.54667 50.3433 5.78 49.95C6.01333 49.55 6.34333 49.2367 6.77 49.01C7.19 48.7833 7.68 48.67 8.24 48.67C8.79333 48.67 9.28667 48.7833 9.72 49.01C10.1533 49.2367 10.49 49.55 10.73 49.95C10.97 50.3433 11.09 50.7833 11.09 51.27C11.09 51.7367 10.9867 52.15 10.78 52.51C10.5667 52.8633 10.3033 53.1333 9.99 53.32L13.6 53.32L13.6 54.23L5.52 54.23L5.52 53.32L6.53 53.32ZM8.24 49.6C7.82667 49.6 7.46667 49.6833 7.16 49.85C6.85333 50.0167 6.62 50.2433 6.46 50.53C6.3 50.81 6.22 51.12 6.22 51.46C6.22 51.7933 6.30333 52.1033 6.47 52.39C6.63 52.67 6.86667 52.8967 7.18 53.07C7.48667 53.2367 7.84333 53.32 8.25 53.32C8.66333 53.32 9.02667 53.2367 9.34 53.07C9.64667 52.8967 9.88333 52.67 10.05 52.39C10.21 52.1033 10.29 51.7933 10.29 51.46C10.29 51.12 10.21 50.81 10.05 50.53C9.88333 50.2433 9.64667 50.0167 9.34 49.85C9.02667 49.6833 8.66 49.6 8.24 49.6ZM11.09 45.0822C11.09 45.5955 10.9733 46.0622 10.74 46.4822C10.5067 46.8955 10.1767 47.2222 9.75 47.4622C9.31667 47.6955 8.81667 47.8122 8.25 47.8122C7.69 47.8122 7.19667 47.6922 6.77 47.4522C6.33667 47.2055 6.00667 46.8722 5.78 46.4522C5.54667 46.0322 5.43 45.5622 5.43 45.0422C5.43 44.5222 5.54667 44.0522 5.78 43.6322C6.00667 43.2122 6.33333 42.8822 6.76 42.6422C7.18667 42.3955 7.68333 42.2722 8.25 42.2722C8.81667 42.2722 9.31667 42.3989 9.75 42.6522C10.1767 42.8989 10.5067 43.2355 10.74 43.6622C10.9733 44.0889 11.09 44.5622 11.09 45.0822ZM10.29 45.0822C10.29 44.7555 10.2133 44.4489 10.06 44.1622C9.90667 43.8755 9.67667 43.6455 9.37 43.4722C9.06333 43.2922 8.69 43.2022 8.25 43.2022C7.81 43.2022 7.43667 43.2889 7.13 43.4622C6.82333 43.6355 6.59667 43.8622 6.45 44.1422C6.29667 44.4222 6.22 44.7255 6.22 45.0522C6.22 45.3855 6.29667 45.6922 6.45 45.9722C6.59667 46.2455 6.82333 46.4655 7.13 46.6322C7.43667 46.7989 7.81 46.8822 8.25 46.8822C8.69667 46.8822 9.07333 46.8022 9.38 46.6422C9.68667 46.4755 9.91667 46.2555 10.07 45.9822C10.2167 45.7089 10.29 45.4089 10.29 45.0822ZM6.53 40.1657C6.21667 39.9857 5.95667 39.719 5.75 39.3657C5.53667 39.0057 5.43 38.589 5.43 38.1157C5.43 37.629 5.54667 37.189 5.78 36.7957C6.01333 36.3957 6.34333 36.0824 6.77 35.8557C7.19 35.629 7.68 35.5157 8.24 35.5157C8.79333 35.5157 9.28667 35.629 9.72 35.8557C10.1533 36.0824 10.49 36.3957 10.73 36.7957C10.97 37.189 11.09 37.629 11.09 38.1157C11.09 38.5824 10.9867 38.9957 10.78 39.3557C10.5667 39.709 10.3033 39.979 9.99 40.1657L13.6 40.1657L13.6 41.0757L5.52 41.0757L5.52 40.1657L6.53 40.1657ZM8.24 36.4457C7.82667 36.4457 7.46667 36.529 7.16 36.6957C6.85333 36.8624 6.62 37.089 6.46 37.3757C6.3 37.6557 6.22 37.9657 6.22 38.3057C6.22 38.639 6.30333 38.949 6.47 39.2357C6.63 39.5157 6.86667 39.7424 7.18 39.9157C7.48667 40.0824 7.84333 40.1657 8.25 40.1657C8.66333 40.1657 9.02667 40.0824 9.34 39.9157C9.64667 39.7424 9.88333 39.5157 10.05 39.2357C10.21 38.949 10.29 38.639 10.29 38.3057C10.29 37.9657 10.21 37.6557 10.05 37.3757C9.88333 37.089 9.64667 36.8624 9.34 36.6957C9.02667 36.529 8.66 36.4457 8.24 36.4457ZM5.52 29.4579L11 29.4579L11 30.3679L10.19 30.3679C10.47 30.5412 10.69 30.7846 10.85 31.0979C11.0033 31.4046 11.08 31.7446 11.08 32.1179C11.08 32.5446 10.9933 32.9279 10.82 33.2679C10.64 33.6079 10.3733 33.8779 10.02 34.0779C9.66667 34.2712 9.23667 34.3679 8.73 34.3679L5.52 34.3679L5.52 33.4679L8.61 33.4679C9.15 33.4679 9.56667 33.3312 9.86 33.0579C10.1467 32.7846 10.29 32.4112 10.29 31.9379C10.29 31.4512 10.14 31.0679 9.84 30.7879C9.54 30.5079 9.10333 30.3679 8.53 30.3679L5.52 30.3679L5.52 29.4579ZM3.6 27.0114L11 27.0114L11 27.9214L3.6 27.9214L3.6 27.0114ZM8.24 25.8005C7.68 25.8005 7.19 25.6871 6.77 25.4605C6.34333 25.2338 6.01333 24.9238 5.78 24.5305C5.54666 24.1305 5.43 23.6871 5.43 23.2005C5.43 22.7205 5.53333 22.3038 5.74 21.9505C5.94666 21.5971 6.20666 21.3338 6.52 21.1605L5.52 21.1605L5.52 20.2405L11 20.2405L11 21.1605L9.98 21.1605C10.3 21.3405 10.5667 21.6105 10.78 21.9705C10.9867 22.3238 11.09 22.7371 11.09 23.2105C11.09 23.6971 10.97 24.1371 10.73 24.5305C10.49 24.9238 10.1533 25.2338 9.72 25.4605C9.28667 25.6871 8.79333 25.8005 8.24 25.8005ZM8.25 21.1605C7.83667 21.1605 7.47667 21.2438 7.17 21.4105C6.86333 21.5771 6.63 21.8038 6.47 22.0905C6.30333 22.3705 6.22 22.6805 6.22 23.0205C6.22 23.3605 6.3 23.6705 6.46 23.9505C6.62 24.2305 6.85333 24.4538 7.16 24.6205C7.46667 24.7871 7.82667 24.8705 8.24 24.8705C8.66 24.8705 9.02667 24.7871 9.34 24.6205C9.64667 24.4538 9.88333 24.2305 10.05 23.9505C10.21 23.6705 10.29 23.3605 10.29 23.0205C10.29 22.6805 10.21 22.3705 10.05 22.0905C9.88333 21.8038 9.64667 21.5771 9.34 21.4105C9.02667 21.2438 8.66333 21.1605 8.25 21.1605ZM6.27 17.5927L9.5 17.5927C9.76666 17.5927 9.95666 17.536 10.07 17.4227C10.1767 17.3093 10.23 17.1127 10.23 16.8327L10.23 16.1627L11 16.1627L11 16.9827C11 17.4893 10.8833 17.8693 10.65 18.1227C10.4167 18.376 10.0333 18.5027 9.5 18.5027L6.27 18.5027L6.27 19.2127L5.52 19.2127L5.52 18.5027L4.14 18.5027L4.14 17.5927L5.52 17.5927L5.52 16.1627L6.27 16.1627L6.27 17.5927ZM4.63 14.5901C4.63 14.7634 4.57 14.9101 4.45 15.0301C4.33 15.1501 4.18333 15.2101 4.01 15.2101C3.83666 15.2101 3.69 15.1501 3.57 15.0301C3.45 14.9101 3.39 14.7634 3.39 14.5901C3.39 14.4234 3.45 14.2834 3.57 14.1701C3.69 14.0501 3.83666 13.9901 4.01 13.9901C4.18333 13.9901 4.33 14.0501 4.45 14.1701C4.57 14.2834 4.63 14.4234 4.63 14.5901ZM5.52 14.1501L11 14.1501L11 15.0601L5.52 15.0601L5.52 14.1501ZM11.09 10.2091C11.09 10.7225 10.9733 11.1891 10.74 11.6091C10.5067 12.0225 10.1767 12.3491 9.75 12.5891C9.31666 12.8225 8.81666 12.9391 8.25 12.9391C7.69 12.9391 7.19666 12.8191 6.77 12.5791C6.33666 12.3325 6.00666 11.9991 5.78 11.5791C5.54666 11.1591 5.43 10.6891 5.43 10.1691C5.43 9.64914 5.54666 9.17914 5.78 8.75914C6.00666 8.33914 6.33333 8.00914 6.76 7.76914C7.18666 7.52247 7.68333 7.39914 8.25 7.39914C8.81666 7.39914 9.31666 7.52581 9.75 7.77914C10.1767 8.02581 10.5067 8.36247 10.74 8.78914C10.9733 9.21581 11.09 9.68914 11.09 10.2091ZM10.29 10.2091C10.29 9.88247 10.2133 9.57581 10.06 9.28914C9.90666 9.00247 9.67666 8.77247 9.37 8.59914C9.06333 8.41914 8.69 8.32914 8.25 8.32914C7.81 8.32914 7.43666 8.41581 7.13 8.58914C6.82333 8.76247 6.59666 8.98914 6.45 9.26914C6.29666 9.54914 6.22 9.85247 6.22 10.1791C6.22 10.5125 6.29666 10.8191 6.45 11.0991C6.59666 11.3725 6.82333 11.5925 7.13 11.7591C7.43666 11.9258 7.81 12.0091 8.25 12.0091C8.69666 12.0091 9.07333 11.9291 9.38 11.7691C9.68666 11.6025 9.91666 11.3825 10.07 11.1091C10.2167 10.8358 10.29 10.5358 10.29 10.2091ZM5.42 3.53266C5.42 2.86599 5.62333 2.32599 6.03 1.91266C6.43 1.49932 7.01 1.29266 7.77 1.29266L11 1.29266L11 2.19266L7.9 2.19266C7.35333 2.19266 6.93666 2.32932 6.65 2.60266C6.35666 2.87599 6.21 3.24932 6.21 3.72266C6.21 4.20266 6.36 4.58599 6.66 4.87266C6.96 5.15266 7.39666 5.29266 7.97 5.29266L11 5.29266L11 6.20266L5.52 6.20266L5.52 5.29266L6.3 5.29266C6.02 5.11266 5.80333 4.86932 5.65 4.56266C5.49666 4.24932 5.42 3.90599 5.42 3.53266Z" fill="#333333"/>
<path opacity="0.5" d="M14 80.7024C14.4722 80.6163 14.9427 80.5122 15.4114 80.3896C19.6861 79.3509 23.8301 77.0681 27.9553 74.7957C33.4732 71.7561 38.9574 68.7351 44.6752 68.7351C52.3409 68.7351 59.5866 74.1649 67.0567 79.763C69.3241 81.4622 71.6122 83.1769 73.939 84.76C83.2177 91.5585 86.6387 68.4096 95.9175 63.5535C105.037 59.5651 120.133 75.8976 129.148 63.5535C130.011 62.3712 130.879 61.1827 131.753 59.9942C132.496 58.9824 133.236 57.9706 133.972 56.9635C143.13 44.4355 151.768 32.6196 161.017 30.3723C165.293 29.2533 169.721 30.6097 174.16 31.9697C179.354 33.5606 184.564 35.1566 189.567 32.8003C194.726 30.2929 199.886 24.2897 204.947 18.4009C209.688 12.885 214.343 7.46948 218.83 5.12086C222.976 3.30778 226.998 3.83475 231 5.69632" stroke="#FCBD0C" stroke-width="3" stroke-linecap="round"/>
<circle cx="232.5" cy="5.5" r="3.5" fill="#583412"/>
</svg>
