<svg width="22" height="24" viewBox="0 0 22 24" fill="none" xmlns="http://www.w3.org/2000/svg">
<path d="M4.58332 23.2501H17.4167V21.7501H4.58332V23.2501ZM11 14.1668C9.85355 14.1668 7.41426 14.1384 5.25614 14.7426C4.17316 15.0457 3.09511 15.5249 2.27924 16.3031C1.44106 17.1025 0.916656 18.1842 0.916656 19.5835H2.41666C2.41666 18.6023 2.76726 17.9105 3.31449 17.3885C3.88403 16.8453 4.70182 16.4554 5.66051 16.187C7.58572 15.6481 9.8131 15.6668 11 15.6668V14.1668ZM11 15.6668C12.1869 15.6668 14.4143 15.6481 16.3395 16.187C17.2982 16.4554 18.1159 16.8453 18.6855 17.3885C19.2327 17.9105 19.5833 18.6023 19.5833 19.5835H21.0833C21.0833 18.1842 20.5589 17.1025 19.7207 16.3031C18.9049 15.5249 17.8268 15.0457 16.7438 14.7426C14.5857 14.1384 12.1464 14.1668 11 14.1668V15.6668ZM0.916656 19.5835C0.916656 21.6085 2.55828 23.2501 4.58332 23.2501V21.7501C3.38671 21.7501 2.41666 20.7801 2.41666 19.5835H0.916656ZM19.5833 19.5835C19.5833 20.7801 18.6133 21.7501 17.4167 21.7501V23.2501C19.4417 23.2501 21.0833 21.6085 21.0833 19.5835H19.5833ZM14.9167 6.16667C14.9167 8.32978 13.1631 10.0833 11 10.0833V11.5833C13.9915 11.5833 16.4167 9.15821 16.4167 6.16667H14.9167ZM11 10.0833C8.83687 10.0833 7.08332 8.32978 7.08332 6.16667H5.58332C5.58332 9.15821 8.00845 11.5833 11 11.5833V10.0833ZM7.08332 6.16667C7.08332 4.00355 8.83687 2.25 11 2.25V0.75C8.00845 0.75 5.58332 3.17512 5.58332 6.16667H7.08332ZM11 2.25C13.1631 2.25 14.9167 4.00355 14.9167 6.16667H16.4167C16.4167 3.17512 13.9915 0.75 11 0.75V2.25Z" fill="#FCBD0C"/>
</svg>
