<svg width="81" height="88" viewBox="0 0 81 88" fill="none" xmlns="http://www.w3.org/2000/svg">
<g clip-path="url(#clip0_378_1791)">
<path d="M72.3199 18.4299C73.9089 18.5904 75.4373 19.125 76.7799 19.9899L76.8899 20.0699C78.1021 20.8576 79.0852 21.951 79.7399 23.2399L79.8099 23.3899C80.3191 24.4363 80.5793 25.5863 80.5699 26.7499C80.5581 27.2459 80.491 27.7389 80.3699 28.2199C80.3757 28.2564 80.3757 28.2935 80.3699 28.3299C80.1913 29.0397 79.8974 29.7153 79.4999 30.3299C79.4766 30.3689 79.4498 30.4057 79.4199 30.4399C78.9537 31.1344 78.3474 31.7236 77.6399 32.1699C76.7926 32.6466 75.8742 32.9842 74.9199 33.1699C73.1598 33.5936 71.3483 33.7654 69.5399 33.6799H69.2299C65.117 33.4202 61.1382 32.1158 57.6699 29.8899C58.1399 29.6299 58.5999 29.3699 59.0599 29.0899L59.1899 28.9999C60.8747 27.9779 62.4945 26.8524 64.0399 25.6299L64.2099 25.4999C65.1099 24.7899 65.9799 24.0599 66.8299 23.2999L67.0299 23.1299C67.8033 22.4633 68.5533 21.7533 69.2799 20.9999C70.1757 20.0132 71.1979 19.1491 72.3199 18.4299Z" fill="#EAF6FE"/>
<path d="M61.4401 11.85C60.5305 10.5339 59.3293 9.44562 57.93 8.66999L57.8101 8.60999C57.3597 8.37676 56.8915 8.17949 56.4101 8.01999C55.5255 7.7355 54.5989 7.60363 53.6701 7.63001H53.5001C52.3397 7.67988 51.2066 7.99822 50.1901 8.56C49.7567 8.80971 49.3511 9.1047 48.9801 9.44001L48.8901 9.53C48.3635 10.0227 47.924 10.6008 47.5901 11.24C47.5589 11.2749 47.5351 11.3157 47.5201 11.36C47.1326 12.1012 46.9044 12.9153 46.85 13.75C46.8217 14.7242 46.95 15.6966 47.2301 16.63C47.6989 18.3878 48.4126 20.0709 49.35 21.63C49.3975 21.7202 49.4509 21.807 49.5101 21.89C51.7145 25.3583 54.763 28.2107 58.3701 30.18C58.3701 29.65 58.3701 29.11 58.4201 28.58C58.4151 28.5268 58.4151 28.4732 58.4201 28.42C58.5135 26.4521 58.7273 24.4918 59.0601 22.55C59.0648 22.4767 59.0648 22.4032 59.0601 22.33C59.2501 21.21 59.4801 20.09 59.7401 18.98C59.7648 18.8945 59.7848 18.8077 59.8001 18.72C60.0301 17.72 60.3001 16.72 60.5901 15.72C61.0392 14.4721 61.3249 13.1713 61.4401 11.85Z" fill="#EAF6FE"/>
<path d="M69.54 71.7L76.54 71.62C75.43 69.71 74.23 67.84 72.96 66.03C71.95 68.04 69.67 71.56 69.54 71.7Z" fill="#211E1F"/>
<path d="M19.21 31.2599C17.2064 28.5339 14.6261 26.2835 11.6531 24.6691C8.68003 23.0546 5.38744 22.1159 2.01001 21.9199" stroke="#211E1F" stroke-width="0.6" stroke-linecap="round" stroke-linejoin="round"/>
<path d="M0.320066 24.45C0.570197 24.9242 0.955348 25.3135 1.4268 25.5688C1.89825 25.824 2.43482 25.9337 2.96862 25.8839C3.50241 25.8341 4.00945 25.6272 4.42559 25.2892C4.84173 24.9512 5.14826 24.4973 5.30642 23.985C5.46457 23.4728 5.46724 22.9251 5.31408 22.4114C5.16092 21.8976 4.85882 21.4408 4.44599 21.0988C4.03316 20.7568 3.52816 20.5448 2.99487 20.4899C2.46158 20.4349 1.92398 20.5393 1.45006 20.79C0.817097 21.1277 0.343195 21.7019 0.131551 22.3874C-0.0800933 23.0729 -0.0123353 23.8142 0.320066 24.45Z" fill="#211E1F"/>
<path d="M61.83 31.81L61.99 31.91C62.99 32.59 63.92 33.3 64.86 34.06C65.8 34.82 66.76 35.63 67.64 36.47C68.818 37.5722 69.9143 38.7586 70.92 40.02C71.15 40.3 71.38 40.59 71.59 40.88C72.7229 42.4183 73.6475 44.0995 74.34 45.88C74.8463 47.1491 75.2378 48.461 75.51 49.8C78.06 62.39 70.05 76.66 59.99 83.98C59.77 84.14 59.56 84.29 59.33 84.43C58.2256 85.1776 57.0498 85.814 55.82 86.33C53.4582 87.3193 50.9385 87.878 48.38 87.98C47.4696 88.0149 46.558 87.9948 45.65 87.92C44.5917 87.8352 43.5397 87.685 42.5 87.47L41.9 87.35C39.8418 86.8726 37.833 86.203 35.9 85.35C35.37 85.13 34.84 84.9 34.32 84.65C33.14 84.09 31.97 83.47 30.82 82.8C29.0996 81.8125 27.4307 80.7378 25.82 79.58C25.7088 79.5135 25.6019 79.44 25.5 79.36C25.27 79.21 25.04 79.03 24.82 78.87C17.6 73.6 10.31 66.87 6.60999 58.6C5.67398 56.5583 5.02128 54.3984 4.66999 52.18C2.66999 38.97 11.67 25.86 25.37 22.94C32.67 21.37 41.02 22.53 48.66 25.22C49.25 25.43 49.84 25.65 50.43 25.89C52.5557 26.7021 54.6296 27.6439 56.64 28.71C57.28 29.05 57.91 29.4 58.54 29.76C59.67 30.41 60.8 31.09 61.83 31.81Z" fill="#FCBD0C"/>
<path d="M16.8601 43.68C16.7876 44.4477 16.489 45.1768 16.0022 45.7749C15.5155 46.373 14.8623 46.8134 14.1253 47.0403C13.3883 47.2673 12.6005 47.2707 11.8616 47.05C11.1227 46.8294 10.4657 46.3947 9.97382 45.8007C9.48192 45.2068 9.17713 44.4804 9.09799 43.7133C9.01884 42.9463 9.1689 42.1729 9.52918 41.4911C9.88946 40.8092 10.4438 40.2495 11.1221 39.8827C11.8004 39.5158 12.5723 39.3583 13.3401 39.43C13.8504 39.4777 14.3463 39.6254 14.7994 39.8649C15.2526 40.1043 15.6541 40.4307 15.981 40.8254C16.3079 41.2201 16.5538 41.6754 16.7046 42.1652C16.8555 42.655 16.9083 43.1698 16.8601 43.68Z" fill="#211E1F"/>
<path d="M41.8701 42.2901C41.7975 43.0578 41.499 43.7869 41.0122 44.385C40.5255 44.9831 39.8723 45.4235 39.1353 45.6504C38.3983 45.8774 37.6105 45.8808 36.8716 45.6602C36.1326 45.4395 35.4757 45.0048 34.9838 44.4109C34.4919 43.817 34.1871 43.0905 34.108 42.3235C34.0289 41.5564 34.1789 40.783 34.5392 40.1012C34.8995 39.4194 35.4538 38.8596 36.1321 38.4928C36.8104 38.1259 37.5823 37.9684 38.3501 38.0401C38.8609 38.0865 39.3575 38.2334 39.8112 38.4724C40.265 38.7115 40.667 39.0379 40.9942 39.4329C41.3213 39.8279 41.5671 40.2837 41.7175 40.774C41.8678 41.2644 41.9197 41.7796 41.8701 42.2901Z" fill="#211E1F"/>
<path d="M22.9199 46.9499C22.9397 47.4437 23.0748 47.9261 23.3142 48.3585C23.5536 48.7908 23.8908 49.1612 24.2989 49.4401C24.707 49.7189 25.1746 49.8985 25.6644 49.9644C26.1542 50.0304 26.6526 49.9809 27.1199 49.8199C27.7356 49.5504 28.2603 49.1087 28.631 48.5482C29.0018 47.9876 29.2028 47.3319 29.2099 46.6599" stroke="#211E1F" stroke-width="1.2" stroke-linecap="round" stroke-linejoin="round"/>
<path d="M56.67 28.6899C56.8019 32.9005 56.3987 37.1109 55.47 41.2199C53.7849 48.3556 51.0912 55.2146 47.47 61.5899C46.17 63.9399 44.86 66.1499 43.47 68.2299C40.0065 73.7013 35.7387 78.6199 30.81 82.8199C29.0896 81.8324 27.4207 80.7577 25.81 79.5999C25.6988 79.5335 25.5919 79.46 25.49 79.3799C31.66 74.6799 37.12 67.8799 42.16 58.6999C45.5175 52.8195 48.0257 46.4934 49.61 39.9099C50.6623 35.3219 50.9495 30.5915 50.46 25.9099C52.5847 26.7091 54.6586 27.6375 56.67 28.6899Z" fill="#211E1F"/>
<path d="M61.8299 31.8101L61.9899 31.9101C62.9899 32.5901 63.9199 33.3001 64.8599 34.0601C65.7999 34.8201 66.7599 35.6301 67.6399 36.4701C66.8377 43.441 65.0183 50.2567 62.2399 56.7C59.7601 62.9378 56.6789 68.9194 53.0399 74.5601C50.0139 79.2387 46.4716 83.5625 42.4799 87.45L41.8799 87.33C39.8217 86.8526 37.8129 86.183 35.8799 85.33C44.2999 78.1 51.2999 67.7101 56.6899 54.4101C60.2199 45.7301 61.8999 38.3801 61.8299 31.8101Z" fill="#211E1F"/>
<path d="M70.9199 40.02C71.1499 40.3 71.3799 40.59 71.5899 40.88C72.7227 42.4183 73.6474 44.0995 74.3399 45.88C74.8461 47.1491 75.2377 48.461 75.5099 49.8C74.4648 54.1243 73.0839 58.3605 71.3799 62.47C68.9015 68.7003 65.8237 74.675 62.1899 80.31C61.2565 81.73 60.3032 83.1034 59.3299 84.43C58.2254 85.1776 57.0497 85.814 55.8199 86.33C53.4581 87.3193 50.9384 87.8781 48.3799 87.98C55.3299 80.98 61.1699 71.69 65.8399 60.2C68.9199 52.53 70.5999 45.95 70.9199 40.02Z" fill="#211E1F"/>
<path d="M44.4 28.2699C44.0996 24.9006 44.546 21.5065 45.7076 18.3295C46.8691 15.1525 48.7172 12.2709 51.12 9.88989" stroke="#211E1F" stroke-width="0.6" stroke-linecap="round" stroke-linejoin="round"/>
<path d="M54.06 10.6599C54.186 11.1814 54.1545 11.7285 53.9693 12.232C53.7842 12.7355 53.4537 13.1727 53.0199 13.4883C52.586 13.8038 52.0683 13.9835 51.5323 14.0046C50.9962 14.0256 50.466 13.8871 50.0087 13.6066C49.5514 13.3261 49.1877 12.9161 48.9636 12.4287C48.7395 11.9413 48.6651 11.3984 48.7498 10.8686C48.8346 10.3389 49.0746 9.84622 49.4396 9.45303C49.8046 9.05985 50.278 8.78384 50.8 8.65994C51.4974 8.4944 52.232 8.61189 52.843 8.98673C53.4539 9.36156 53.8915 9.96321 54.06 10.6599Z" fill="#211E1F"/>
<path d="M30.092 27.7572C37.778 27.1509 43.9229 25.5704 43.8169 24.227C43.7109 22.8836 37.3943 22.286 29.7083 22.8923C22.0223 23.4985 15.8774 25.079 15.9834 26.4224C16.0893 27.7658 22.406 28.3634 30.092 27.7572Z" fill="#121528"/>
<path d="M41.0099 9.46005C39.7699 5.53005 36.1499 5.23004 32.3599 4.67004C31.3468 4.59298 30.3823 4.20482 29.5983 3.55862C28.8142 2.91243 28.249 2.03978 27.9799 1.06006C27.8652 2.07032 27.4417 3.0206 26.767 3.78122C26.0922 4.54184 25.1993 5.07573 24.2099 5.31006C20.5499 6.46006 17.0299 7.31005 16.4199 11.4001C15.8099 15.4901 20.0499 19.7801 20.0499 19.7801L29.3899 19.05L38.7399 18.3101C38.7399 18.3101 42.2599 13.3901 41.0099 9.46005Z" fill="#DF1014"/>
<path d="M34.84 9.94006C34.06 5.94006 32.24 5.54005 30.31 4.83005C28.38 4.12005 27.98 1.06006 27.98 1.06006C27.98 1.06006 28.05 4.15005 26.26 5.15005C24.47 6.15005 22.74 6.87006 22.59 10.9101C22.44 14.9501 24.75 19.4101 24.75 19.4101L29.39 19.05L34.04 18.6801C34.04 18.6801 35.61 13.9101 34.84 9.94006Z" fill="#E73333"/>
<path d="M28.03 3.58C29.0186 3.58 29.82 2.77859 29.82 1.79C29.82 0.80141 29.0186 0 28.03 0C27.0414 0 26.24 0.80141 26.24 1.79C26.24 2.77859 27.0414 3.58 28.03 3.58Z" fill="#F6A20D"/>
<path d="M28.72 0.890055C28.7084 1.07517 28.6305 1.24991 28.5004 1.38215C28.3704 1.51439 28.1969 1.59525 28.012 1.60984C27.8271 1.62444 27.6432 1.57181 27.494 1.46162C27.3448 1.35143 27.2404 1.19107 27.2 1.01005C27.2238 0.833432 27.3074 0.670339 27.4369 0.547861C27.5664 0.425384 27.7339 0.35092 27.9115 0.336893C28.0892 0.322867 28.2663 0.370099 28.4134 0.470743C28.5605 0.571388 28.6687 0.719369 28.72 0.890055Z" fill="#FFD700"/>
<path d="M43.4699 9.55994C41.3799 11.4099 41.2999 13.7399 39.6599 13.9799C38.0199 14.2199 37.2699 12.2799 35.9899 8.17993C35.6299 12.0699 34.2899 14.6999 32.6399 13.5499C30.9899 12.3999 28.5399 7.16992 28.5399 7.16992C28.5399 7.16992 26.9399 12.7199 25.4899 14.1099C24.0399 15.4999 22.2999 13.1099 21.3399 9.32993C20.7099 13.5899 20.2699 15.6299 18.6099 15.6399C16.9499 15.6499 16.5199 13.3699 14.1699 11.8699C14.1699 11.8699 17.3099 16.4599 17.7799 25.1699C18.3199 26.5199 21.5299 27.1699 30.0599 26.5199C38.5899 25.8699 41.6499 24.6799 41.9799 23.2599C41.0799 14.5799 43.4699 9.55994 43.4699 9.55994Z" fill="#FFD700"/>
<path d="M43.4699 9.56012C41.3799 11.4101 41.3399 14.8901 39.6999 15.1401C38.0599 15.3901 37.2699 12.2801 35.9899 8.14011C35.6299 12.0301 33.9199 16.1401 32.2599 14.9701C30.5999 13.8001 28.5399 7.13013 28.5399 7.13013C28.5399 7.13013 27.0599 14.4001 25.5999 15.7901C24.1399 17.1801 22.2999 13.0801 21.3399 9.2901C20.7099 13.5501 20.3399 17.0201 18.7199 17.0401C17.0999 17.0601 16.5199 13.3301 14.1699 11.8301C14.1699 11.8301 17.3099 16.4201 17.7799 25.1301C18.3199 26.4801 21.5299 27.1301 30.0599 26.4801C38.5899 25.8301 41.6499 24.6401 41.9799 23.2201C41.0799 14.5801 43.4699 9.56012 43.4699 9.56012Z" fill="#F6A20D"/>
<path d="M18.7199 17.08C17.0699 17.08 16.5199 13.3701 14.1699 11.8701C14.1699 11.8701 17.3099 16.46 17.7799 25.17C18.1299 26.04 19.5899 26.63 22.8899 26.76L21.2699 9.81006C20.6699 13.8401 20.3099 17.07 18.7199 17.08Z" fill="#F49606"/>
<path d="M43.47 9.55991C41.38 11.4099 41.34 14.8899 39.7 15.1399C38.06 15.3899 37.27 12.2799 35.99 8.13989C35.99 8.13989 35.99 8.2199 35.99 8.2699L37.16 25.5999C40.43 24.9599 41.79 24.1399 42 23.2199C41.08 14.5799 43.47 9.55991 43.47 9.55991Z" fill="#FCBD0B"/>
<path d="M41.7801 19.74C41.0501 21.06 37.9401 22.12 29.7801 22.74C21.6201 23.36 18.3601 22.82 17.4401 21.63C17.1701 22.07 17.3401 22.88 17.3801 23.53C17.9301 24.92 21.2101 25.61 29.9501 24.92C38.6901 24.23 41.8201 23.03 42.1501 21.58C42.1682 20.9465 42.0417 20.3172 41.7801 19.74Z" fill="#FFD700"/>
<path d="M29.77 22.77C21.59 23.41 18.35 22.85 17.43 21.66C17.3482 21.7967 17.3002 21.951 17.29 22.11C17.98 23.42 21.29 24.06 29.81 23.39C38.33 22.72 41.49 21.57 41.98 20.18C41.936 20.024 41.8686 19.8757 41.78 19.74C41.05 21.06 37.94 22.12 29.77 22.77Z" fill="#FFE939"/>
<path d="M28.9701 15.52L27.5801 18.05L29.3501 20.37L30.7401 17.8L28.9701 15.52Z" fill="#DF1014"/>
<path d="M27.5801 18.0499L29.3501 20.3699L29.1601 17.9299L27.5801 18.0499Z" fill="#C61618"/>
<path d="M28.97 15.52L29.16 17.93L30.74 17.8L28.97 15.52Z" fill="#E73333"/>
<path d="M21.79 16.29L20.51 18.61L22.14 20.74L23.42 18.38L21.79 16.29Z" fill="#DF1014"/>
<path d="M20.51 18.61L22.14 20.74L21.96 18.49L20.51 18.61Z" fill="#C61618"/>
<path d="M21.79 16.29L21.96 18.49L23.42 18.38L21.79 16.29Z" fill="#E73333"/>
<path d="M36.27 15.1399L34.99 17.4699L36.62 19.5899L37.9 17.2399L36.27 15.1399Z" fill="#DF1014"/>
<path d="M34.99 17.4701L36.62 19.5901L36.45 17.3501L34.99 17.4701Z" fill="#C61618"/>
<path d="M36.27 15.1399L36.45 17.3499L37.9 17.2399L36.27 15.1399Z" fill="#E73333"/>
<path d="M28.5199 8.10989C29.1329 8.10989 29.6299 7.61293 29.6299 6.99989C29.6299 6.38686 29.1329 5.88989 28.5199 5.88989C27.9069 5.88989 27.4099 6.38686 27.4099 6.99989C27.4099 7.61293 27.9069 8.10989 28.5199 8.10989Z" fill="#F6A20D"/>
<path d="M28.9501 6.44013C28.9475 6.55508 28.9 6.66445 28.8177 6.74481C28.7355 6.82518 28.6251 6.87015 28.5101 6.87012C28.4345 6.86228 28.3627 6.83308 28.3031 6.78592C28.2436 6.73877 28.1986 6.67561 28.1736 6.60385C28.1486 6.5321 28.1446 6.45471 28.162 6.38074C28.1794 6.30677 28.2175 6.2393 28.2718 6.18619C28.3261 6.13308 28.3945 6.09655 28.4688 6.08087C28.5432 6.0652 28.6205 6.07102 28.6916 6.09766C28.7628 6.1243 28.8249 6.17064 28.8707 6.23129C28.9164 6.29194 28.944 6.36439 28.9501 6.44013Z" fill="#FFD700"/>
<path d="M21.2301 10.3001C21.8432 10.3001 22.3401 9.80311 22.3401 9.19008C22.3401 8.57704 21.8432 8.08008 21.2301 8.08008C20.6171 8.08008 20.1201 8.57704 20.1201 9.19008C20.1201 9.80311 20.6171 10.3001 21.2301 10.3001Z" fill="#F6A20D"/>
<path d="M21.2285 9.05917C21.4872 9.03876 21.6829 8.84365 21.6656 8.62342C21.6482 8.40319 21.4243 8.24122 21.1656 8.26163C20.9068 8.28204 20.7111 8.47711 20.7285 8.69734C20.7458 8.91757 20.9697 9.07958 21.2285 9.05917Z" fill="#FFD700"/>
<path d="M14.2382 12.7213C14.8493 12.6731 15.3056 12.1386 15.2574 11.5275C15.2092 10.9163 14.6747 10.46 14.0636 10.5082C13.4525 10.5564 12.9961 11.0909 13.0443 11.702C13.0925 12.3132 13.627 12.7695 14.2382 12.7213Z" fill="#F6A20D"/>
<path d="M14.5701 11.0601C14.5945 11.1556 14.5889 11.2563 14.554 11.3485C14.5192 11.4407 14.4568 11.5199 14.3754 11.5754C14.2939 11.631 14.1974 11.6601 14.0988 11.6588C14.0003 11.6576 13.9045 11.626 13.8245 11.5684C13.7446 11.5108 13.6842 11.43 13.6518 11.3369C13.6193 11.2439 13.6163 11.1431 13.6431 11.0482C13.6699 10.9534 13.7253 10.8691 13.8017 10.8068C13.8781 10.7446 13.9718 10.7073 14.0701 10.7001C14.184 10.6827 14.3001 10.7107 14.3936 10.778C14.4871 10.8453 14.5505 10.9466 14.5701 11.0601Z" fill="#FFD700"/>
<path d="M36.0482 9.12755C36.6594 9.07935 37.1157 8.54486 37.0675 7.93372C37.0193 7.32258 36.4848 6.86622 35.8737 6.91443C35.2625 6.96263 34.8062 7.49715 34.8544 8.10829C34.9026 8.71943 35.4371 9.17576 36.0482 9.12755Z" fill="#F6A20D"/>
<path d="M35.9416 7.90511C36.2004 7.8847 36.3961 7.6896 36.3787 7.46937C36.3613 7.24914 36.1375 7.08716 35.8787 7.10757C35.6199 7.12798 35.4242 7.32306 35.4416 7.54329C35.459 7.76352 35.6828 7.92553 35.9416 7.90511Z" fill="#FFD700"/>
<path d="M44.4 9.18011C44.421 9.3991 44.3764 9.61942 44.272 9.81304C44.1675 10.0067 44.0079 10.1649 43.8133 10.2676C43.6188 10.3703 43.3981 10.4129 43.1793 10.39C42.9605 10.367 42.7535 10.2796 42.5844 10.1388C42.4154 9.99791 42.2921 9.81004 42.2301 9.59896C42.1681 9.38788 42.1702 9.16312 42.2361 8.95324C42.3021 8.74336 42.4289 8.55781 42.6005 8.42016C42.7721 8.2825 42.9808 8.19895 43.2 8.18011C43.4914 8.15506 43.7809 8.24606 44.0057 8.43331C44.2304 8.62057 44.3721 8.88894 44.4 9.18011Z" fill="#F6A20D"/>
<path d="M43.67 8.74003C43.67 8.79735 43.6586 8.8541 43.6363 8.90694C43.6141 8.95977 43.5815 9.00762 43.5405 9.04768C43.4995 9.08775 43.4509 9.1192 43.3976 9.14021C43.3443 9.16122 43.2873 9.17136 43.23 9.17003C43.1161 9.18742 43 9.15946 42.9065 9.09215C42.813 9.02483 42.7496 8.92356 42.73 8.81004C42.7429 8.69928 42.794 8.59648 42.8745 8.5193C42.955 8.44212 43.0599 8.39535 43.1711 8.38707C43.2823 8.37879 43.3929 8.40948 43.484 8.47389C43.575 8.5383 43.6408 8.63241 43.67 8.74003Z" fill="#FFD700"/>
</g>
<defs>
<clipPath id="clip0_378_1791">
<rect width="80.57" height="87.97" fill="white"/>
</clipPath>
</defs>
</svg>
