<svg width="21" height="21" viewBox="0 0 21 21" fill="none" xmlns="http://www.w3.org/2000/svg">
<path d="M17.9393 20.0607C18.5251 20.6465 19.4749 20.6465 20.0606 20.0607C20.6464 19.4749 20.6464 18.5251 20.0606 17.9394L17.9393 20.0607ZM15.8639 13.7427C15.2782 13.1569 14.3284 13.1569 13.7426 13.7427C13.1568 14.3284 13.1568 15.2782 13.7426 15.864L15.8639 13.7427ZM9.5 15.5C6.18629 15.5 3.5 12.8137 3.5 9.5H0.5C0.5 14.4706 4.52944 18.5 9.5 18.5V15.5ZM3.5 9.5C3.5 6.18629 6.18629 3.5 9.5 3.5V0.5C4.52944 0.5 0.5 4.52944 0.5 9.5H3.5ZM9.5 3.5C12.8137 3.5 15.5 6.18629 15.5 9.5H18.5C18.5 4.52944 14.4706 0.5 9.5 0.5V3.5ZM15.5 9.5C15.5 12.8137 12.8137 15.5 9.5 15.5V18.5C14.4706 18.5 18.5 14.4706 18.5 9.5H15.5ZM20.0606 17.9394L15.8639 13.7427L13.7426 15.864L17.9393 20.0607L20.0606 17.9394Z" fill="#FCBD17"/>
</svg>
