<svg width="25" height="32" viewBox="0 0 25 32" fill="none" xmlns="http://www.w3.org/2000/svg">
<path d="M22.1029 12.6194C21.9851 12.4237 21.8308 12.2553 21.6546 12.1154C21.8317 11.9752 21.986 11.8063 22.1038 11.6097L24.7396 7.21185C25.0868 6.63338 25.0868 5.91419 24.7396 5.33572L22.1038 0.938286C21.7571 0.35938 21.11 0 20.4158 0H15.1382C14.4439 0 13.7973 0.359813 13.4502 0.938286L10.8143 5.33572C10.6942 5.53619 10.6187 5.75355 10.5818 5.97611C10.3557 5.88907 10.1124 5.84101 9.86238 5.84101H4.58389C3.89007 5.84101 3.24302 6.20083 2.89589 6.7793L0.260013 11.1772C-0.0866709 11.7556 -0.0866709 12.4748 0.260013 13.0533L2.89589 17.4512C3.24302 18.0296 3.88962 18.3894 4.58389 18.3894H9.86148C10.1119 18.3894 10.3552 18.341 10.5814 18.2544C10.6187 18.4765 10.6947 18.6938 10.8152 18.8934L13.4506 23.293C13.7973 23.8711 14.4448 24.2305 15.1395 24.2305C15.2411 24.2305 15.3234 24.3101 15.3234 24.4076V30.4681C15.3234 30.9262 15.5348 31.3566 15.9035 31.6497C16.1908 31.8783 16.5483 32 16.9161 32C17.0186 32 17.1216 31.9905 17.2241 31.9714C17.9661 31.8342 18.5052 31.183 18.5052 30.4231V24.4071C18.5052 24.3093 18.5879 24.23 18.6891 24.23H19.0996C19.2013 24.23 19.2835 24.3097 19.2835 24.4071V26.3421C19.2835 27.0968 19.8173 27.7485 20.552 27.8909C21.0264 27.9832 21.5098 27.8676 21.8807 27.5753C22.2522 27.2822 22.4653 26.8505 22.4653 26.3902V23.0051C22.4653 22.796 22.5224 22.5903 22.6308 22.4097L24.7379 18.8943C25.0868 18.3154 25.0863 17.5962 24.7379 17.019L22.1029 12.6194ZM11.5931 5.76827L14.229 1.37084C14.416 1.05909 14.7641 0.865544 15.1377 0.865544H20.4153C20.7894 0.865544 21.1375 1.05909 21.3241 1.37084L23.9604 5.76827C24.1475 6.08002 24.1475 6.46711 23.9604 6.77843L21.3241 11.1763C21.137 11.488 20.789 11.6816 20.4153 11.6816H20.4135H15.14H15.1382C14.7645 11.6816 14.416 11.488 14.2294 11.1763L11.5936 6.77843C11.406 6.46711 11.406 6.08002 11.5931 5.76827ZM4.58389 17.5235C4.20978 17.5235 3.86174 17.3299 3.67514 17.0182L1.03926 12.6203C0.852207 12.309 0.852207 11.9215 1.03926 11.6101L3.67514 7.21272C3.86219 6.90097 4.21023 6.70742 4.58389 6.70742H9.86148C10.2351 6.70742 10.5836 6.90097 10.7702 7.21272L13.4061 11.6101C13.5932 11.9219 13.5932 12.309 13.4061 12.6203L10.7698 17.0182C10.5827 17.3299 10.2347 17.5235 9.86103 17.5235H4.58389ZM23.9599 18.4596L21.852 21.9768C21.6649 22.2889 21.566 22.6444 21.566 23.0051V26.3902C21.566 26.5898 21.4729 26.7777 21.311 26.905C21.1469 27.0341 20.9401 27.0821 20.7301 27.0414C20.4185 26.9812 20.1833 26.6803 20.1833 26.3417V24.4067C20.1833 23.8312 19.6972 23.3636 19.1001 23.3636H18.6895C18.092 23.3636 17.6063 23.8317 17.6063 24.4067V30.4222C17.6063 30.7617 17.3694 31.0617 17.0546 31.1202C16.8442 31.1596 16.6382 31.1102 16.4763 30.9812C16.3154 30.8534 16.2232 30.666 16.2232 30.4672V24.4071C16.2232 23.8317 15.7371 23.364 15.14 23.364C14.7654 23.364 14.4165 23.1705 14.2299 22.8596L11.594 18.4592C11.4065 18.1487 11.4065 17.7629 11.5949 17.4512L14.2299 13.0529C14.4169 12.7415 14.7654 12.548 15.14 12.548H20.414C20.7885 12.548 21.1375 12.7415 21.3241 13.0524L23.9599 17.4525C24.1475 17.7633 24.1475 18.1491 23.9599 18.4596Z" fill="#FCBD0C"/>
</svg>
