<svg width="85" height="27" viewBox="0 0 85 27" fill="none" xmlns="http://www.w3.org/2000/svg">
<path fill-rule="evenodd" clip-rule="evenodd" d="M21.2509 26.7897H13.8947L8.37841 5.84392C8.11658 4.88041 7.56065 4.02862 6.7429 3.62715C4.7021 2.61826 2.45327 1.81534 0 1.41039V0.603973H11.8503C13.4858 0.603973 14.7124 1.81534 14.9169 3.2222L17.779 18.3311L25.1316 0.603973H32.2834L21.2509 26.7897ZM36.3722 26.7897H29.4249L35.1456 0.603973H42.0929L36.3722 26.7897ZM51.081 7.85818C51.2855 6.44782 52.5121 5.64141 53.9432 5.64141C56.192 5.43893 58.6417 5.84389 60.6861 6.84929L61.9127 1.21137C59.8683 0.404953 57.6195 0 55.5787 0C48.8358 0 43.9293 3.62712 43.9293 8.6611C43.9293 12.4907 47.4047 14.5015 49.858 15.7129C52.5121 16.9207 53.5343 17.7272 53.3299 18.935C53.3299 20.7468 51.2855 21.5533 49.2447 21.5533C46.7914 21.5533 44.3382 20.9493 42.0929 19.9404L40.8663 25.5818C43.3195 26.5872 45.9737 26.9922 48.4269 26.9922C55.9876 27.1912 60.6861 23.5675 60.6861 18.1286C60.6861 11.2793 51.081 10.8779 51.081 7.85818ZM85 26.7897L79.4837 0.603973H73.5586C72.332 0.603973 71.1053 1.41039 70.6964 2.61826L60.4817 26.7897H67.6335L69.0609 22.9636H77.8482L78.666 26.7897H85ZM74.5808 7.65581L76.6216 17.5248H70.9009L74.5808 7.65581Z" fill="#172B85"/>
</svg>
