               <svg width="98" height="85" viewBox="0 0 98 85" fill="none" xmlns="http://www.w3.org/2000/svg">
<g clip-path="url(#clip0_378_1850)">
<path d="M92.6 28.65C93.9858 29.4484 95.1643 30.5617 96.04 31.9L96.11 32.0101C96.3794 32.4388 96.6103 32.8906 96.8 33.36C97.1537 34.2224 97.3566 35.139 97.4 36.0701C97.3954 36.1233 97.3954 36.1768 97.4 36.23C97.437 37.3908 97.2042 38.5444 96.72 39.6C96.5033 40.0507 96.2385 40.4765 95.93 40.8701C95.909 40.9076 95.882 40.9413 95.85 40.97C95.4007 41.5331 94.8598 42.0165 94.25 42.4C94.2151 42.4311 94.1743 42.455 94.13 42.47C93.423 42.9166 92.6285 43.2065 91.8 43.3201C90.8284 43.4303 89.8452 43.3796 88.89 43.17C87.1116 42.8278 85.3887 42.2423 83.77 41.4301L83.5 41.29C79.854 39.3629 76.7572 36.5414 74.5 33.09C75.04 33.09 75.57 32.99 76.1 32.92H76.26C78.214 32.6766 80.151 32.3126 82.06 31.8301H82.28C83.38 31.5501 84.48 31.2401 85.57 30.8901L85.82 30.8101C86.82 30.4901 87.82 30.1501 88.75 29.8101C89.976 29.2537 91.2708 28.8636 92.6 28.65Z" fill="#EAF6FE"/>
<path d="M85.3601 18.19C85.0752 16.6194 84.428 15.1369 83.4701 13.86L83.3801 13.75C83.0781 13.353 82.7436 12.9817 82.3801 12.6401C81.685 12.0189 80.8906 11.5185 80.0301 11.16L79.8801 11.1C78.8012 10.6707 77.6369 10.4994 76.4801 10.6C75.9826 10.6435 75.4923 10.7476 75.0201 10.91H74.9101C74.2263 11.1371 73.5844 11.4749 73.0101 11.91L72.9101 11.99C72.2526 12.5088 71.711 13.1594 71.3201 13.9C70.8875 14.7771 70.6037 15.7199 70.4801 16.69C70.1969 18.4801 70.1633 20.3007 70.3801 22.1C70.3801 22.2 70.3801 22.3 70.3801 22.4C70.958 26.4822 72.5651 30.3502 75.0501 33.6401C75.2701 33.1501 75.5101 32.64 75.7501 32.19C75.7695 32.1447 75.793 32.1012 75.8201 32.06C76.7185 30.3023 77.7203 28.5994 78.8201 26.9601L78.9501 26.78C79.5801 25.83 80.2501 24.91 80.9501 24L81.1101 23.79C81.7401 22.97 82.3901 22.1701 83.0601 21.3801C83.9591 20.4187 84.732 19.3467 85.3601 18.19Z" fill="#EAF6FE"/>
<path d="M59.1699 80.3L64.5199 84.46C64.8199 82.36 65.0399 80.24 65.1699 78.12C63.1799 78.99 59.3699 80.27 59.1699 80.3Z" fill="#211E1F"/>
<path d="M81.16 55.2701C81.16 56.4567 81.08 57.6367 80.92 58.81C80.7478 60.3487 80.4637 61.8727 80.07 63.37C79.9949 63.7082 79.9015 64.042 79.79 64.37C79.277 66.1302 78.5268 67.8123 77.56 69.37C76.8831 70.4934 76.1031 71.5513 75.23 72.53C67.01 81.74 51.41 83.81 39.97 80.28C39.73 80.21 39.49 80.13 39.26 80.04C38.044 79.6179 36.8718 79.0787 35.76 78.43C33.6362 77.1813 31.7532 75.5624 30.2 73.65C29.6517 72.9707 29.1441 72.2595 28.68 71.5201C28.1376 70.6565 27.6468 69.7615 27.21 68.84L26.96 68.3C26.1147 66.4468 25.4451 64.5183 24.96 62.54C24.83 62.01 24.7 61.47 24.6 60.93C24.34 59.69 24.15 58.44 24 57.17C23.7626 55.2787 23.6291 53.3759 23.6 51.47C23.59 51.3502 23.59 51.2298 23.6 51.11C23.6 50.84 23.6 50.56 23.6 50.29V50.22C23.5258 46.2067 23.7733 42.1938 24.34 38.22C24.9735 33.45 26.4605 28.8331 28.73 24.59C29.7759 22.6907 31.0781 20.9443 32.6 19.4C41.6 10.25 56.9 9.64002 67.03 18.49C72.44 23.2 76.35 30.2901 78.69 37.7101C78.87 38.2901 79.04 38.87 79.2 39.47C79.7962 41.5736 80.2671 43.7107 80.61 45.87C80.71 46.56 80.81 47.25 80.88 47.94C81.03 49.2 81.14 50.44 81.18 51.66V51.83C81.2 52.93 81.21 54.1101 81.16 55.2701Z" fill="#FCBD0C"/>
<path d="M36.4801 37.65C36.486 38.393 36.2712 39.121 35.8628 39.7416C35.4543 40.3622 34.8707 40.8475 34.1861 41.1359C33.5014 41.4244 32.7465 41.5029 32.0171 41.3616C31.2877 41.2203 30.6167 40.8656 30.0892 40.3423C29.5618 39.8191 29.2016 39.151 29.0545 38.4227C28.9074 37.6945 28.9799 36.939 29.2628 36.252C29.5457 35.565 30.0263 34.9776 30.6436 34.5642C31.2609 34.1508 31.9872 33.9301 32.7301 33.9301C33.7195 33.93 34.6688 34.321 35.3712 35.0178C36.0736 35.7145 36.4722 36.6607 36.4801 37.65Z" fill="#211E1F"/>
<path d="M60.3001 34.0801C60.3001 34.8218 60.0801 35.5468 59.6681 36.1635C59.256 36.7801 58.6703 37.2608 57.9851 37.5446C57.2999 37.8284 56.5459 37.9027 55.8185 37.758C55.091 37.6133 54.4228 37.2561 53.8984 36.7317C53.3739 36.2072 53.0168 35.5391 52.8721 34.8116C52.7274 34.0842 52.8017 33.3302 53.0855 32.645C53.3693 31.9598 53.85 31.3741 54.4667 30.962C55.0833 30.55 55.8084 30.3301 56.5501 30.3301C57.543 30.3353 58.4938 30.7321 59.1959 31.4342C59.898 32.1363 60.2948 33.0871 60.3001 34.0801Z" fill="#211E1F"/>
<path d="M42.5801 40.2401C42.6355 40.7138 42.803 41.1675 43.0688 41.5636C43.3347 41.9597 43.6911 42.2866 44.1086 42.5173C44.5261 42.7481 44.9925 42.8759 45.4693 42.8903C45.9461 42.9047 46.4194 42.8052 46.8501 42.6C47.4176 42.2925 47.8827 41.8257 48.1883 41.2571C48.4939 40.6886 48.6266 40.043 48.5701 39.4" stroke="#211E1F" stroke-width="1.15" stroke-linecap="round" stroke-linejoin="round"/>
<path d="M80.5701 45.87C77.407 48.3983 73.936 50.5152 70.2401 52.17C63.768 54.9731 56.9291 56.8386 49.9301 57.71C47.3834 58.07 44.9201 58.33 42.5401 58.49C36.3345 58.9794 30.0906 58.5276 24.0201 57.15C23.7877 55.2582 23.6542 53.3557 23.6201 51.45C23.6201 51.33 23.6201 51.21 23.6201 51.08C30.8001 53.08 39.1801 53.41 49.1401 51.99C55.5913 51.1973 61.8974 49.4937 67.8701 46.93C72.0207 45.0846 75.8385 42.5675 79.1701 39.48C79.766 41.5796 80.2336 43.7136 80.5701 45.87Z" fill="#211E1F"/>
<path d="M81.15 51.65V51.8301C81.15 52.9701 81.15 54.1101 81.15 55.2701C81.15 56.4301 81.04 57.64 80.91 58.8C75.0814 62.203 68.784 64.73 62.22 66.3C56.0066 67.9879 49.6429 69.063 43.22 69.5101C37.8773 69.8832 32.5096 69.6483 27.22 68.8101C27.13 68.6401 27.05 68.46 26.97 68.28C26.1233 66.4308 25.4537 64.5055 24.97 62.53C35.39 64.84 47.42 64.25 60.76 60.73C69.51 58.42 76.13 55.49 81.15 51.65Z" fill="#211E1F"/>
<path d="M80.07 63.37C79.99 63.71 79.9 64.05 79.79 64.37C79.2712 66.1263 78.5248 67.8073 77.57 69.37C76.8846 70.4871 76.1015 71.5412 75.23 72.52C71.2966 74.2068 67.2376 75.5844 63.09 76.64C56.8766 78.3277 50.5129 79.4028 44.09 79.85C42.46 79.96 40.86 80.01 39.27 80.02C38.0573 79.6016 36.8884 79.0657 35.78 78.42C33.6565 77.1709 31.7735 75.5521 30.22 73.64C39.59 74.97 50.13 74.1 61.66 71.07C69.29 69.04 75.33 66.54 80.07 63.37Z" fill="#211E1F"/>
<path d="M59.2763 10.8012L31.1249 17.3367C28.8762 17.8588 27.4759 20.1028 27.9974 22.3488C28.5188 24.5949 30.7645 25.9924 33.0132 25.4704L61.1645 18.9349C63.4133 18.4128 64.8136 16.1688 64.2921 13.9228C63.7707 11.6767 61.525 10.2792 59.2763 10.8012Z" fill="#EE7124" stroke="#1D1D1B" stroke-width="0.25" stroke-miterlimit="10"/>
<path d="M31.4199 17.3001C30.9793 15.4872 30.9026 13.6049 31.1942 11.7622C31.4858 9.91942 32.14 8.15283 33.1189 6.56459C34.0978 4.97634 35.3819 3.59798 36.897 2.50929C38.4121 1.4206 40.1281 0.643153 41.9456 0.221998C43.7631 -0.199158 45.6461 -0.255687 47.4856 0.0556768C49.3251 0.36704 51.0846 1.04012 52.6623 2.03596C54.2399 3.0318 55.6044 4.33065 56.6768 5.85731C57.7492 7.38397 58.5082 9.10814 58.9099 10.9301" fill="#EE7124"/>
<path d="M43.3424 0.0282616L40.6831 0.64563L43.286 11.8575L45.9453 11.2401L43.3424 0.0282616Z" fill="#1D1E1B"/>
<path d="M31.7859 8.61705L27.3538 9.646L29.3438 18.218L33.7759 17.1891L31.7859 8.61705Z" fill="#1D1E1B"/>
<path d="M28.94 16.68L4.73 30.18L0 9.80005L27.68 11.25L28.94 16.68Z" fill="#EEEB89"/>
<path d="M30.8301 27.14C28.1778 25.2573 25.1438 23.9812 21.9432 23.4023C18.7426 22.8233 15.4538 22.9557 12.3101 23.79" stroke="#211E1F" stroke-width="0.58" stroke-linecap="round" stroke-linejoin="round"/>
<path d="M11.5299 26.6101C11.9006 26.9662 12.3685 27.2044 12.8745 27.2947C13.3805 27.385 13.9019 27.3233 14.3729 27.1173C14.8438 26.9114 15.2432 26.5705 15.5205 26.1377C15.7977 25.7049 15.9405 25.1996 15.9307 24.6857C15.9209 24.1718 15.7591 23.6723 15.4655 23.2503C15.172 22.8284 14.76 22.5029 14.2815 22.315C13.8031 22.1271 13.2797 22.0853 12.7775 22.1948C12.2753 22.3043 11.8168 22.5601 11.4599 22.9301C11.2226 23.1761 11.036 23.4666 10.9111 23.7848C10.7861 24.103 10.7252 24.4428 10.7317 24.7846C10.7382 25.1264 10.812 25.4636 10.949 25.7768C11.086 26.0901 11.2834 26.3732 11.5299 26.6101Z" fill="#211E1F"/>
<path d="M57.95 22.1301C58.2242 18.8897 59.2085 15.7494 60.8331 12.9323C62.4577 10.1152 64.6826 7.6904 67.3499 5.83008" stroke="#211E1F" stroke-width="0.58" stroke-linecap="round" stroke-linejoin="round"/>
<path d="M70.01 7.04999C70.0426 7.56317 69.9222 8.07449 69.6642 8.51929C69.4062 8.96409 69.0221 9.32239 68.5605 9.54889C68.0988 9.7754 67.5804 9.85994 67.0707 9.79181C66.5611 9.72369 66.083 9.506 65.6971 9.1662C65.3111 8.82641 65.0346 8.37976 64.9025 7.88282C64.7704 7.38587 64.7885 6.86094 64.9548 6.37433C65.121 5.88773 65.4278 5.46132 65.8363 5.14905C66.2448 4.83679 66.7368 4.65268 67.25 4.62C67.5907 4.5983 67.9325 4.64396 68.2556 4.75434C68.5788 4.86472 68.877 5.03766 69.1333 5.26331C69.3896 5.48896 69.5989 5.7629 69.7493 6.06946C69.8998 6.37603 69.9883 6.7092 70.01 7.04999Z" fill="#211E1F"/>
</g>
<defs>
<clipPath id="clip0_378_1850">
<rect width="97.41" height="84.47" fill="white"/>
</clipPath>
</defs>
</svg>
